<mxfile host="65bd71144e">
    <diagram name="Page-1" id="iK97Og400Dm7oAyL1J_i">
        <mxGraphModel dx="1577" dy="366" grid="0" gridSize="10" guides="1" tooltips="1" connect="1" arrows="1" fold="1" page="0" pageScale="1" pageWidth="850" pageHeight="1100" background="#ffffff" math="0" shadow="0">
            <root>
                <mxCell id="0"/>
                <mxCell id="1" parent="0"/>
                <UserObject label="" tags="Background" id="RrnTrXlartnsTWybDFfY-262">
                    <mxCell style="vsdxID=10744;fillColor=#1ba1e2;fillOpacity=10;strokeOpacity=10;shape=stencil(nZBLDoAgDERP0z3SIyjew0SURgSD+Lu9kMZoXLhwN9O+tukAlrNpJg1SzDH4QW/URgNYgZTkjA4UkwJUgGXng+6DX1zLfmoymdXo17xh5zmRJ6Q42BWCfc2oJfdAr+Yv+AP9Cb7OJ3H/2JG1HNGz/84klThPVCc=);strokeColor=#006EAF;strokeWidth=6;spacingTop=-3;spacingBottom=-3;spacingLeft=-3;spacingRight=-3;points=[[0.47,0,0],[0.52,0,0]];labelBackgroundColor=#1e1515;rounded=0;html=1;whiteSpace=wrap;fontColor=#ffffff;" parent="1" vertex="1">
                        <mxGeometry x="507" y="535" width="912" height="716" as="geometry"/>
                    </mxCell>
                </UserObject>
                <UserObject label="&lt;div style=&quot;font-size: 1px&quot;&gt;&lt;p style=&quot;text-align:right;margin-left:0;margin-right:0;margin-top:0px;margin-bottom:0px;text-indent:0;vertical-align:bottom;direction:ltr;&quot;&gt;&lt;font style=&quot;font-size: 14.11px; font-family: &amp;quot;Segoe UI Semibold&amp;quot;; direction: ltr; letter-spacing: 0px; line-height: 120%; opacity: 1;&quot;&gt;&lt;span&gt;&lt;br&gt;Platform&lt;br&gt;Connectivity vNet&lt;/span&gt;&lt;/font&gt;&lt;font style=&quot;font-size: 14.11px; font-family: &amp;quot;Segoe UI Semibold&amp;quot;; direction: ltr; letter-spacing: 0px; line-height: 120%; opacity: 1;&quot;&gt;&lt;br&gt;&lt;/font&gt;&lt;/p&gt;&lt;/div&gt;" tags="Background" id="RrnTrXlartnsTWybDFfY-1">
                    <mxCell style="verticalAlign=bottom;align=right;overflow=width;vsdxID=10000;fillColor=#feffff;gradientColor=none;shape=stencil(nZBLDoAgDERP0z3SIyjew0SURgSD+Lu9kMZoXLhwN9O+tukAlrNpJg1SzDH4QW/URgNYgZTkjA4UkwJUgGXng+6DX1zLfmoymdXo17xh5zmRJ6Q42BWCfc2oJfdAr+Yv+AP9Cb7OJ3H/2JG1HNGz/84klThPVCc=);dashed=1;dashPattern=1.00 2.00;strokeColor=#6b859a;points=[[1,0.5,0],[0.5,0,0],[0.5,0.5,0],[0.5,0.5,0]];labelBackgroundColor=none;rounded=0;html=1;whiteSpace=wrap;fontStyle=1;fontColor=#0a0a0a;" parent="1" vertex="1">
                        <mxGeometry x="531" y="599" width="537" height="380" as="geometry"/>
                    </mxCell>
                </UserObject>
                <UserObject label="&lt;div style=&quot;font-size: 1px&quot;&gt;&lt;p style=&quot;text-align:left;margin-left:0;margin-right:0;margin-top:0px;margin-bottom:0px;text-indent:0;vertical-align:bottom;direction:ltr;&quot;&gt;&lt;font style=&quot;font-size: 14.11px; font-family: &amp;quot;Segoe UI Semibold&amp;quot;; direction: ltr; letter-spacing: 0px; line-height: 120%; opacity: 1;&quot;&gt;&lt;span&gt;GatewaySubnet&lt;br&gt;&lt;/span&gt;&lt;/font&gt;&lt;/p&gt;&lt;/div&gt;" tags="Background" id="RrnTrXlartnsTWybDFfY-2">
                    <mxCell style="verticalAlign=bottom;align=left;overflow=width;vsdxID=10006;fillColor=#f2f2f2;gradientColor=none;shape=stencil(nZBLDoAgDERP0z3SIyjew0SURgSD+Lu9kMZoXLhwN9O+tukAlrNpJg1SzDH4QW/URgNYgZTkjA4UkwJUgGXng+6DX1zLfmoymdXo17xh5zmRJ6Q42BWCfc2oJfdAr+Yv+AP9Cb7OJ3H/2JG1HNGz/84klThPVCc=);dashed=1;dashPattern=1.00 2.00;strokeColor=#6b859a;points=[[1,0.5,0],[0.5,0,0],[0.5,0.5,0],[0.5,0.5,0]];labelBackgroundColor=none;rounded=0;html=1;whiteSpace=wrap;fontStyle=1;fontColor=#0a0a0a;" parent="1" vertex="1">
                        <mxGeometry x="551" y="799" width="220" height="160" as="geometry"/>
                    </mxCell>
                </UserObject>
                <UserObject label="&lt;div style=&quot;font-size: 1px&quot;&gt;&lt;font style=&quot;font-size: 14.11px; font-family: &amp;quot;Segoe UI Semibold&amp;quot;; direction: ltr; letter-spacing: 0px; line-height: 120%; opacity: 1;&quot;&gt;&lt;span&gt;On-Premises&lt;/span&gt;&lt;/font&gt;&lt;font style=&quot;font-size: 14.11px; font-family: &amp;quot;Segoe UI Semibold&amp;quot;; direction: ltr; letter-spacing: 0px; line-height: 120%; opacity: 1;&quot;&gt;&lt;span&gt;&lt;br&gt;&lt;/span&gt;&lt;/font&gt;&lt;/div&gt;" tags="Background" id="RrnTrXlartnsTWybDFfY-3">
                    <mxCell style="verticalAlign=middle;align=center;overflow=width;vsdxID=10031;fillColor=#b1dafb;gradientColor=none;shape=stencil(nZBLDoAgDERP0z3SIyjew0SURgSD+Lu9kMZoXLhwN9O+tukAlrNpJg1SzDH4QW/URgNYgZTkjA4UkwJUgGXng+6DX1zLfmoymdXo17xh5zmRJ6Q42BWCfc2oJfdAr+Yv+AP9Cb7OJ3H/2JG1HNGz/84klThPVCc=);strokeColor=#6b859a;points=[[1,0.5,0],[0.5,0,0],[0.5,0.5,0],[0.5,0.5,0]];labelBackgroundColor=none;rounded=0;html=1;whiteSpace=wrap;fontStyle=1;fontColor=#0a0a0a;" parent="1" vertex="1">
                        <mxGeometry x="-29" y="799" width="180" height="40" as="geometry"/>
                    </mxCell>
                </UserObject>
                <UserObject label="&lt;div style=&quot;font-size: 1px&quot;&gt;&lt;/div&gt;" tags="Background" id="RrnTrXlartnsTWybDFfY-4">
                    <mxCell style="verticalAlign=middle;align=center;overflow=width;vsdxID=10032;fillColor=#ffffff;gradientColor=none;shape=stencil(nZBLDoAgDERP0z3SIyjew0SURgSD+Lu9kMZoXLhwN9O+tukAlrNpJg1SzDH4QW/URgNYgZTkjA4UkwJUgGXng+6DX1zLfmoymdXo17xh5zmRJ6Q42BWCfc2oJfdAr+Yv+AP9Cb7OJ3H/2JG1HNGz/84klThPVCc=);strokeColor=#6b859a;points=[[1,0.5,0],[0.5,0,0],[0.5,0.5,0],[0.5,0.5,0]];labelBackgroundColor=none;rounded=0;html=1;whiteSpace=wrap;fontStyle=1;fontColor=#0a0a0a;" parent="1" vertex="1">
                        <mxGeometry x="-29" y="839" width="180" height="161" as="geometry"/>
                    </mxCell>
                </UserObject>
                <UserObject label="" tags="Background" id="RrnTrXlartnsTWybDFfY-5">
                    <mxCell style="vsdxID=10040;fillColor=none;gradientColor=none;strokeColor=none;spacingTop=-3;spacingBottom=-3;spacingLeft=-3;spacingRight=-3;points=[];labelBackgroundColor=none;rounded=0;html=1;whiteSpace=wrap;fontStyle=1;fontColor=#0a0a0a;" parent="1" vertex="1">
                        <mxGeometry x="711" y="1003" width="26" height="15" as="geometry"/>
                    </mxCell>
                </UserObject>
                <mxCell id="RrnTrXlartnsTWybDFfY-6" style="vsdxID=10041;fillColor=#3999c6;gradientColor=none;shape=stencil(lZRNcsIwDIVPk63Glvy7pnAPpoSSKSVMCC3cvk5tguW0KeyMeM/6FD+7osVptz7WFYpT37Xv9Vez6XcVvVSIzWFXd00fVhUtK1ps265+69rzYRN/H9eDclh9tJ/DDpfo8wacH1worrGiEZT8qayi4fXcRYeMAilEMqSCFmDSHhdM23ogl1SppCx4SiqaNk8lZQBZ931zyHCdBM9xadz2V4NU4CUzSLA4O54Ex+cTfDYLSvPRBB9LAWk+VdmTM2b6BxEBFUekkelGGc4EOeX4ZWdA5z+mVaCJkU6Oq0S1FkzBmgcBpyqchoqm7emPsHJgAskP3yMIO8dbRNsT2CLagnOGDGvNObOut6A7QPcMZqkvMe9neS1v5Y0z5FgWVzDcSmM4q6Sx9CCsEyCR0Zr/8ppbZOkZgXMVTlU0qmwR2qCiGeAHnrinDWFxf1G3zX4fH+T8//IFDqX4etPyGw==);strokeColor=none;spacingTop=-3;spacingBottom=-3;spacingLeft=-3;spacingRight=-3;points=[];labelBackgroundColor=none;rounded=0;html=1;whiteSpace=wrap;fontStyle=1;fontColor=#0a0a0a;" parent="RrnTrXlartnsTWybDFfY-5" vertex="1">
                    <mxGeometry x="18" width="8" height="15" as="geometry"/>
                </mxCell>
                <mxCell id="RrnTrXlartnsTWybDFfY-7" style="vsdxID=10042;fillColor=#3999c6;gradientColor=none;shape=stencil(lZTRdoMgDIafxtscSAThuuveo2e10zNXe6zd2rcfHqgS2Ox6h/EP+RJ+KGhzbnanukBxHof+o/5u92NT0EuB2B6bemhHtypoW9Dm0A/1+9Bfjnv/fdpNymn12X9NO1x9HoGUUxKKmw8ohNJHXr3+7TL4BOkFIsjDpxKgrQ9dMShAYxCFSFmBpSCirHCIlBqQVe7aY0QqDQiOSvOuvyYYBcKyBAkVrrVmDCDvTvDOLIJSvDXB27IKtOJ9pVU5ZZzwP0proNIck6BUCakFMpx0Hu8a7PpI3R4VP4Ps0FJax5bAxmbATIS5rSgvTn+YNZmtBsMd4A5QVGu4UiT+tgRV4u9Fg3Oduy3m0UalaT43NE/BpgmZExa2W8p/h3WeNsltdN7QmuMaDVQ+heuuoyaGqx/ONkqRac4y3UiFuYpmlUjMoNcv2uOX7lm9WyzP6qHtOv8qx//TZ9iF/BNO2x8=);strokeColor=none;spacingTop=-3;spacingBottom=-3;spacingLeft=-3;spacingRight=-3;points=[];labelBackgroundColor=none;rounded=0;html=1;whiteSpace=wrap;fontStyle=1;fontColor=#0a0a0a;" parent="RrnTrXlartnsTWybDFfY-5" vertex="1">
                    <mxGeometry width="8" height="15" as="geometry"/>
                </mxCell>
                <mxCell id="RrnTrXlartnsTWybDFfY-8" style="vsdxID=10043;fillColor=#7fba00;gradientColor=none;shape=stencil(jZLREoIgEEW/hlcGFxV8NvsPJzWZTB3Usr9PZmkUKuttd7nL4Q6X8HSo874kwIZRd5fyroqxJvxAAFRbl1qNS0V4Rnhadbo8625qC+z73ChNde1u5oYZ9wLGzA6wB/YRtkfUniaN4sBX24GQVCQ4msGOYhoKqwJvbeaWEqwa7mq+kGFzq/+YF5m5VBFREbtc5jL3zXpWIaQQukBgNEpc6G+ju0zJqJQu1zO5fgG8v4v7mo9GG9X+nYClWKNTqabB5G3P/agtI4wpz54=);strokeColor=none;spacingTop=-3;spacingBottom=-3;spacingLeft=-3;spacingRight=-3;points=[];labelBackgroundColor=none;rounded=0;html=1;whiteSpace=wrap;fontStyle=1;fontColor=#0a0a0a;" parent="RrnTrXlartnsTWybDFfY-5" vertex="1">
                    <mxGeometry x="6" y="5" width="3" height="3" as="geometry"/>
                </mxCell>
                <mxCell id="RrnTrXlartnsTWybDFfY-9" style="vsdxID=10044;fillColor=#7fba00;gradientColor=none;shape=stencil(jZLRDoIwDEW/Zq/LaIHJM+p/EBmyiEAGKP69kM7ApqJvbXe7s5tdhmlXZq1iILreNBd113lfMtwzAF2Xyuh+qhgeGKZFY9TZNEOdU99ms3Kurs1tvmGkvUCIeQfEg/qI2iNpT4MhceCr7UDuuExoNIIdxTyUVgXe2oiWEiwadDVfyLC61X/Miyxcqoy4jF2ucJnbZj2rEHIIXSAgj9CF/ja6yZQJDwOX65lcvgDe34W+5qPRStd/J2AqlugUuqooeetzP2rTiGKKhyc=);strokeColor=none;spacingTop=-3;spacingBottom=-3;spacingLeft=-3;spacingRight=-3;points=[];labelBackgroundColor=none;rounded=0;html=1;whiteSpace=wrap;fontStyle=1;fontColor=#0a0a0a;" parent="RrnTrXlartnsTWybDFfY-5" vertex="1">
                    <mxGeometry x="11" y="5" width="3" height="3" as="geometry"/>
                </mxCell>
                <mxCell id="RrnTrXlartnsTWybDFfY-10" style="vsdxID=10045;fillColor=#7fba00;gradientColor=none;shape=stencil(vVHLDsIgEPwajiQI6RfU+h8bu22JCGRB2/69kG1iazx58DazM/vIjjBtmiCi0CplCjecbZ8nYc5Ca+snJJsLEqYTph0C4Ujh4XvmEaqzont41gkL96naodXKrGF6YSfQtUi0OXXDVlqPfJNP6usotUhYbJIUMmQb/GGrAxpRljVycDBuc1hKM2LclX8/7H9nFfB+82Cd45T2+mcspcSRmu4F);strokeColor=none;spacingTop=-3;spacingBottom=-3;spacingLeft=-3;spacingRight=-3;points=[];labelBackgroundColor=none;rounded=0;html=1;whiteSpace=wrap;fontStyle=1;fontColor=#0a0a0a;" parent="RrnTrXlartnsTWybDFfY-5" vertex="1">
                    <mxGeometry x="17" y="5" width="3" height="3" as="geometry"/>
                </mxCell>
                <UserObject label="&lt;div style=&quot;font-size: 1px&quot;&gt;&lt;/div&gt;" tags="Background" id="RrnTrXlartnsTWybDFfY-11">
                    <mxCell style="verticalAlign=middle;align=center;overflow=width;vsdxID=10046;fillColor=#feffff;gradientColor=none;shape=stencil(nZBLDoAgDERP0z3SIyjew0SURgSD+Lu9kMZoXLhwN9O+tukAlrNpJg1SzDH4QW/URgNYgZTkjA4UkwJUgGXng+6DX1zLfmoymdXo17xh5zmRJ6Q42BWCfc2oJfdAr+Yv+AP9Cb7OJ3H/2JG1HNGz/84klThPVCc=);dashed=1;dashPattern=1.00 2.00;strokeColor=#6b859a;points=[[1,0.5,0],[0.5,0,0],[0.5,0.5,0],[0.5,0.5,0]];labelBackgroundColor=none;rounded=0;html=1;whiteSpace=wrap;fontStyle=1;fontColor=#0a0a0a;" parent="1" vertex="1">
                        <mxGeometry x="731" y="1039" width="180" height="120" as="geometry"/>
                    </mxCell>
                </UserObject>
                <UserObject label="" tags="Background" id="RrnTrXlartnsTWybDFfY-12">
                    <mxCell style="vsdxID=10120;fillColor=none;gradientColor=none;strokeColor=none;spacingTop=-3;spacingBottom=-3;spacingLeft=-3;spacingRight=-3;points=[];labelBackgroundColor=none;rounded=0;html=1;whiteSpace=wrap;fontStyle=1;fontColor=#0a0a0a;" parent="1" vertex="1">
                        <mxGeometry x="331" y="864" width="51" height="31" as="geometry"/>
                    </mxCell>
                </UserObject>
                <mxCell id="RrnTrXlartnsTWybDFfY-13" style="vsdxID=10121;fillColor=none;gradientColor=none;strokeColor=none;spacingTop=-3;spacingBottom=-3;spacingLeft=-3;spacingRight=-3;points=[];labelBackgroundColor=none;rounded=0;html=1;whiteSpace=wrap;fontStyle=1;fontColor=#0a0a0a;" parent="RrnTrXlartnsTWybDFfY-12" vertex="1">
                    <mxGeometry width="51" height="31" as="geometry"/>
                </mxCell>
                <mxCell id="RrnTrXlartnsTWybDFfY-14" style="vsdxID=10122;fillColor=#68217a;gradientColor=none;shape=stencil(nZBRDoQgDERP03+WHsHFe5iISyOCQdT19kIaIxq//Jtp3zTpAFaTaUYNUkwx+F6v1EYD+AUpyRkdKCYFqACrzgf9C352LfuxyWRWg1/yhT/nRE5IsZWuZtCSK8CPeI0e/hF+jV7AJM4PO7KWCyr390bSiNtEtQM=);strokeColor=none;strokeWidth=17;spacingTop=-3;spacingBottom=-3;spacingLeft=-3;spacingRight=-3;points=[];labelBackgroundColor=none;rounded=0;html=1;whiteSpace=wrap;fontStyle=1;fontColor=#0a0a0a;" parent="RrnTrXlartnsTWybDFfY-13" vertex="1">
                    <mxGeometry x="10" y="23" width="32" height="3" as="geometry"/>
                </mxCell>
                <mxCell id="RrnTrXlartnsTWybDFfY-15" style="vsdxID=10123;fillColor=#68217a;gradientColor=none;shape=stencil(hZJNEoMgDIVPwzYDBBHW1t7DGbEyteKo/bt9pSwqdtBdEr68eQkhWExtNRjC6TSP7mqetp5bgifCue1bM9p5iQiWBIvGjeYyuntfh3yoPOmjm3t4hVfoo76D03fIlACpvpVzgDvbr2DUICOeplkhIY9YlgHb0c6BRbjWoGQaP/AdDykpiNg3MJHWZvRPXfE0rjnoeFK6s5cMAbd7wR31Q+9L8PvcxnZduI31+/YYllI4JCw/);strokeColor=none;strokeWidth=17;spacingTop=-3;spacingBottom=-3;spacingLeft=-3;spacingRight=-3;points=[];labelBackgroundColor=none;rounded=0;html=1;whiteSpace=wrap;fontStyle=1;fontColor=#0a0a0a;" parent="RrnTrXlartnsTWybDFfY-13" vertex="1">
                    <mxGeometry x="6" y="7" width="39" height="18" as="geometry"/>
                </mxCell>
                <mxCell id="RrnTrXlartnsTWybDFfY-16" style="vsdxID=10124;fillColor=#57a300;gradientColor=none;shape=stencil(lVfRctsgEPwavTJwSAKe0/Q/Mo1Ta+raGcdpk7+PPcjouBWgvEl4j7u9Wxarsw9v+6fXXUf67XI+/dn9n54v+87+6Iim4353ni7Xp84+dvbh5XTe/T6f3o/P8f316Ya8Pf09/bvt8BHjBn0LIf0ZX+Pbz4j89X6OUBN/7K3yM9pwuP6g+Gp9AswrXhk3Yyxg5hXjla2lZRHzynXb3uapWW33YkY15qkTVysQhcTDqChPzPacs4wmYQiLswDayJlFGOgkQXmUj6PANxvuYTpulEFVMNQr46uikbNLAcvsRtWLHho1CN0w0MYesoh5xQxKS90I1RhSPdXbuEBKuhGj43veZ2fvQkqJWW0WQBspswiDnSRRHuFECpRhylX1ADpXkFm0PYvdzoMqscopJXhipHNCDtUj+HijXC2jzjMGo7zQzZCnNFqcPYNHXlfN1ThQqxb2SiTPCS/MAmgjWRZhsIEE5RGMochZTjaXTVMIDd14p4aq9wQw0RSRiDl5EH2vglCPk+ew1VInj6HDGytI93aD8tTq6AIq6chK0nzf+zR7eVs6vLUYaCNtFmGwmQQFEk6lSByG3dAS4HMx+eVPxTYT8iRnij7kQEwrVuS+ryaQ04ohsfpKnuTxr1fdk4JwXnCktFAxpAWzVUVa2O+KHQXhv2hGSLZuRk1BNPTTNCM/wuFAN/IDHA60Iwba2FIWUTYkVmDZkbCtTUcKWhJfcaQAd9uKI4Vv320B7rYVR2IFlh0JiTccqa2Q68PyWfYyHQ7xq47/Lj/jrkvxE9A+fgE=);strokeColor=none;strokeWidth=17;spacingTop=-3;spacingBottom=-3;spacingLeft=-3;spacingRight=-3;points=[];labelBackgroundColor=none;rounded=0;html=1;whiteSpace=wrap;fontStyle=1;fontColor=#0a0a0a;" parent="RrnTrXlartnsTWybDFfY-13" vertex="1">
                    <mxGeometry width="51" height="31" as="geometry"/>
                </mxCell>
                <UserObject label="&lt;div style=&quot;font-size: 1px&quot;&gt;&lt;/div&gt;" tags="Background" id="RrnTrXlartnsTWybDFfY-17">
                    <mxCell style="verticalAlign=middle;align=center;overflow=width;vsdxID=10149;fillColor=#feffff;gradientColor=none;shape=stencil(nZBLDoAgDERP0z3SIyjew0SURgSD+Lu9kMZoXLhwN9O+tukAlrNpJg1SzDH4QW/URgNYgZTkjA4UkwJUgGXng+6DX1zLfmoymdXo17xh5zmRJ6Q42BWCfc2oJfdAr+Yv+AP9Cb7OJ3H/2JG1HNGz/84klThPVCc=);dashed=1;dashPattern=1.00 2.00;strokeColor=#6b859a;points=[[1,0.5,0],[0.5,0,0],[0.5,0.5,0],[0.5,0.5,0]];labelBackgroundColor=none;rounded=0;html=1;whiteSpace=wrap;fontStyle=1;fontColor=#0a0a0a;" parent="1" vertex="1">
                        <mxGeometry x="751" y="1059" width="180" height="120" as="geometry"/>
                    </mxCell>
                </UserObject>
                <UserObject label="&lt;div style=&quot;font-size: 1px&quot;&gt;&lt;/div&gt;" tags="Background" id="RrnTrXlartnsTWybDFfY-18">
                    <mxCell style="verticalAlign=middle;align=center;overflow=width;vsdxID=10150;fillColor=#feffff;gradientColor=none;shape=stencil(nZBLDoAgDERP0z3SIyjew0SURgSD+Lu9kMZoXLhwN9O+tukAlrNpJg1SzDH4QW/URgNYgZTkjA4UkwJUgGXng+6DX1zLfmoymdXo17xh5zmRJ6Q42BWCfc2oJfdAr+Yv+AP9Cb7OJ3H/2JG1HNGz/84klThPVCc=);dashed=1;dashPattern=1.00 2.00;strokeColor=#6b859a;points=[[1,0.5,0],[0.5,0,0],[0.5,0.5,0],[0.5,0.5,0]];labelBackgroundColor=none;rounded=0;html=1;whiteSpace=wrap;fontStyle=1;fontColor=#0a0a0a;" parent="1" vertex="1">
                        <mxGeometry x="771" y="1079" width="180" height="120" as="geometry"/>
                    </mxCell>
                </UserObject>
                <UserObject label="&lt;div style=&quot;font-size: 1px&quot;&gt;&lt;p style=&quot;text-align:right;margin-left:0;margin-right:0;margin-top:0px;margin-bottom:0px;text-indent:0;vertical-align:bottom;direction:ltr;&quot;&gt;&lt;font style=&quot;font-size: 14.11px; font-family: &amp;quot;Segoe UI Semibold&amp;quot;; direction: ltr; letter-spacing: 0px; line-height: 120%; opacity: 1;&quot;&gt;&lt;font style=&quot;font-weight: 400; letter-spacing: 0px; font-size: 14.11px; direction: ltr; line-height: 16.932px; opacity: 1;&quot;&gt;&lt;b&gt;Application Platform&lt;/b&gt;&lt;/font&gt;&lt;font style=&quot;font-weight: 400; letter-spacing: 0px; font-size: 14.11px; direction: ltr; line-height: 16.932px; opacity: 1;&quot;&gt;&lt;b&gt;&lt;br&gt;Landing Zone vNets&lt;/b&gt;&lt;/font&gt;&lt;br&gt;&lt;/font&gt;&lt;/p&gt;&lt;/div&gt;" tags="Background" id="RrnTrXlartnsTWybDFfY-19">
                    <mxCell style="verticalAlign=bottom;align=right;overflow=width;vsdxID=10151;fillColor=#feffff;gradientColor=none;shape=stencil(nZBLDoAgDERP0z3SIyjew0SURgSD+Lu9kMZoXLhwN9O+tukAlrNpJg1SzDH4QW/URgNYgZTkjA4UkwJUgGXng+6DX1zLfmoymdXo17xh5zmRJ6Q42BWCfc2oJfdAr+Yv+AP9Cb7OJ3H/2JG1HNGz/84klThPVCc=);dashed=1;dashPattern=1.00 2.00;strokeColor=#6b859a;points=[[1,0.5,0],[0.5,0,0],[0.5,0.5,0],[0.5,0.5,0]];labelBackgroundColor=none;rounded=0;html=1;whiteSpace=wrap;fontStyle=1;fontColor=#0a0a0a;" parent="1" vertex="1">
                        <mxGeometry x="791" y="1099" width="178" height="120" as="geometry"/>
                    </mxCell>
                </UserObject>
                <UserObject label="" tags="Background" id="RrnTrXlartnsTWybDFfY-20">
                    <mxCell style="vsdxID=10153;fillColor=none;gradientColor=none;strokeColor=none;spacingTop=-3;spacingBottom=-3;spacingLeft=-3;spacingRight=-3;points=[];labelBackgroundColor=none;rounded=0;html=1;whiteSpace=wrap;fontStyle=1;fontColor=#0a0a0a;" parent="1" vertex="1">
                        <mxGeometry x="801" y="1195" width="26" height="15" as="geometry"/>
                    </mxCell>
                </UserObject>
                <mxCell id="RrnTrXlartnsTWybDFfY-21" style="vsdxID=10154;fillColor=#3999c6;gradientColor=none;shape=stencil(lZRNcsIwDIVPk63Glvy7pnAPpoSSKSVMCC3cvk5tguW0KeyMeM/6FD+7osVptz7WFYpT37Xv9Vez6XcVvVSIzWFXd00fVhUtK1ps265+69rzYRN/H9eDclh9tJ/DDpfo8wacH1worrGiEZT8qayi4fXcRYeMAilEMqSCFmDSHhdM23ogl1SppCx4SiqaNk8lZQBZ931zyHCdBM9xadz2V4NU4CUzSLA4O54Ex+cTfDYLSvPRBB9LAWk+VdmTM2b6BxEBFUekkelGGc4EOeX4ZWdA5z+mVaCJkU6Oq0S1FkzBmgcBpyqchoqm7emPsHJgAskP3yMIO8dbRNsT2CLagnOGDGvNObOut6A7QPcMZqkvMe9neS1v5Y0z5FgWVzDcSmM4q6Sx9CCsEyCR0Zr/8ppbZOkZgXMVTlU0qmwR2qCiGeAHnrinDWFxf1G3zX4fH+T8//IFDqX4etPyGw==);strokeColor=none;spacingTop=-3;spacingBottom=-3;spacingLeft=-3;spacingRight=-3;points=[];labelBackgroundColor=none;rounded=0;html=1;whiteSpace=wrap;fontStyle=1;fontColor=#0a0a0a;" parent="RrnTrXlartnsTWybDFfY-20" vertex="1">
                    <mxGeometry x="18" width="8" height="15" as="geometry"/>
                </mxCell>
                <mxCell id="RrnTrXlartnsTWybDFfY-22" style="vsdxID=10155;fillColor=#3999c6;gradientColor=none;shape=stencil(lZTRdoMgDIafxtscSAThuuveo2e10zNXe6zd2rcfHqgS2Ox6h/EP+RJ+KGhzbnanukBxHof+o/5u92NT0EuB2B6bemhHtypoW9Dm0A/1+9Bfjnv/fdpNymn12X9NO1x9HoGUUxKKmw8ohNJHXr3+7TL4BOkFIsjDpxKgrQ9dMShAYxCFSFmBpSCirHCIlBqQVe7aY0QqDQiOSvOuvyYYBcKyBAkVrrVmDCDvTvDOLIJSvDXB27IKtOJ9pVU5ZZzwP0proNIck6BUCakFMpx0Hu8a7PpI3R4VP4Ps0FJax5bAxmbATIS5rSgvTn+YNZmtBsMd4A5QVGu4UiT+tgRV4u9Fg3Oduy3m0UalaT43NE/BpgmZExa2W8p/h3WeNsltdN7QmuMaDVQ+heuuoyaGqx/ONkqRac4y3UiFuYpmlUjMoNcv2uOX7lm9WyzP6qHtOv8qx//TZ9iF/BNO2x8=);strokeColor=none;spacingTop=-3;spacingBottom=-3;spacingLeft=-3;spacingRight=-3;points=[];labelBackgroundColor=none;rounded=0;html=1;whiteSpace=wrap;fontStyle=1;fontColor=#0a0a0a;" parent="RrnTrXlartnsTWybDFfY-20" vertex="1">
                    <mxGeometry width="8" height="15" as="geometry"/>
                </mxCell>
                <mxCell id="RrnTrXlartnsTWybDFfY-23" style="vsdxID=10156;fillColor=#7fba00;gradientColor=none;shape=stencil(jZLREoIgEEW/hlcGFxV8NvsPJzWZTB3Usr9PZmkUKuttd7nL4Q6X8HSo874kwIZRd5fyroqxJvxAAFRbl1qNS0V4Rnhadbo8625qC+z73ChNde1u5oYZ9wLGzA6wB/YRtkfUniaN4sBX24GQVCQ4msGOYhoKqwJvbeaWEqwa7mq+kGFzq/+YF5m5VBFREbtc5jL3zXpWIaQQukBgNEpc6G+ju0zJqJQu1zO5fgG8v4v7mo9GG9X+nYClWKNTqabB5G3P/agtI4wpz54=);strokeColor=none;spacingTop=-3;spacingBottom=-3;spacingLeft=-3;spacingRight=-3;points=[];labelBackgroundColor=none;rounded=0;html=1;whiteSpace=wrap;fontStyle=1;fontColor=#0a0a0a;" parent="RrnTrXlartnsTWybDFfY-20" vertex="1">
                    <mxGeometry x="6" y="5" width="3" height="3" as="geometry"/>
                </mxCell>
                <mxCell id="RrnTrXlartnsTWybDFfY-24" style="vsdxID=10157;fillColor=#7fba00;gradientColor=none;shape=stencil(jZLRDoIwDEW/Zq/LaIHJM+p/EBmyiEAGKP69kM7ApqJvbXe7s5tdhmlXZq1iILreNBd113lfMtwzAF2Xyuh+qhgeGKZFY9TZNEOdU99ms3Kurs1tvmGkvUCIeQfEg/qI2iNpT4MhceCr7UDuuExoNIIdxTyUVgXe2oiWEiwadDVfyLC61X/Miyxcqoy4jF2ucJnbZj2rEHIIXSAgj9CF/ja6yZQJDwOX65lcvgDe34W+5qPRStd/J2AqlugUuqooeetzP2rTiGKKhyc=);strokeColor=none;spacingTop=-3;spacingBottom=-3;spacingLeft=-3;spacingRight=-3;points=[];labelBackgroundColor=none;rounded=0;html=1;whiteSpace=wrap;fontStyle=1;fontColor=#0a0a0a;" parent="RrnTrXlartnsTWybDFfY-20" vertex="1">
                    <mxGeometry x="11" y="5" width="3" height="3" as="geometry"/>
                </mxCell>
                <mxCell id="RrnTrXlartnsTWybDFfY-25" style="vsdxID=10158;fillColor=#7fba00;gradientColor=none;shape=stencil(vVHLDsIgEPwajiQI6RfU+h8bu22JCGRB2/69kG1iazx58DazM/vIjjBtmiCi0CplCjecbZ8nYc5Ca+snJJsLEqYTph0C4Ujh4XvmEaqzont41gkL96naodXKrGF6YSfQtUi0OXXDVlqPfJNP6usotUhYbJIUMmQb/GGrAxpRljVycDBuc1hKM2LclX8/7H9nFfB+82Cd45T2+mcspcSRmu4F);strokeColor=none;spacingTop=-3;spacingBottom=-3;spacingLeft=-3;spacingRight=-3;points=[];labelBackgroundColor=none;rounded=0;html=1;whiteSpace=wrap;fontStyle=1;fontColor=#0a0a0a;" parent="RrnTrXlartnsTWybDFfY-20" vertex="1">
                    <mxGeometry x="17" y="5" width="3" height="3" as="geometry"/>
                </mxCell>
                <UserObject label="" tags="Background" id="RrnTrXlartnsTWybDFfY-26">
                    <mxCell style="vsdxID=10310;fillColor=none;gradientColor=none;points=[];labelBackgroundColor=none;rounded=0;strokeColor=none;html=1;whiteSpace=wrap;fontStyle=1;fontColor=#0a0a0a;" parent="1" vertex="1">
                        <mxGeometry x="414" y="860" width="44" height="95" as="geometry"/>
                    </mxCell>
                </UserObject>
                <mxCell id="RrnTrXlartnsTWybDFfY-27" style="vsdxID=10311;fillColor=none;gradientColor=none;strokeColor=none;points=[[0.12,0.51,0],[0.5,0.18,0],[0.89,0.51,0],[0.5,0.73,0],[0.5,1.69,0]];labelBackgroundColor=none;rounded=0;html=1;whiteSpace=wrap;fontStyle=1;fontColor=#0a0a0a;" parent="RrnTrXlartnsTWybDFfY-26" vertex="1">
                    <mxGeometry width="44" height="44" as="geometry"/>
                </mxCell>
                <mxCell id="RrnTrXlartnsTWybDFfY-28" style="vsdxID=10312;fillColor=#44546a;gradientColor=none;shape=stencil(lZfbcpswEIafhtsdSavjZSdN3yOTOLWnrp0hTuO8fSVEEDoiuNAgs4v2//ezgAEf3o9Pb4eBkffbeP1z+Dy93I4D/hwYO12Oh/F0s2cDPg748HodD7/H68flxc/fnlykO/t7/efucPd5RgA1LouRL/8LmWa/fPD5dFkFc9C0Hvv8Mfo7U3+RARWoufQjmxPpOpPcWTT9mqcSOCXfx5x5xzh0nlIOiKEM8iOrmkQlawFSt8omcaEGQeilFqriussa54tWAhCS52LmJi4JTSV5s6KMXItRsBRHBSc01lYrkMU3XwQ5L0yI57GeEI5FqwuCQkqxmbmgkEAbpLC2+pi57/LX5mKGd1c3ol7E/zMqAHUUrJqdowwE14oq40Ydi1ZR2xLVlAAT0royjcn/igLhod9p/4DJ2ACROpD3o7DYfA01GJEtxlr65ouYtGZtHkYhjco02EU0I8KNSWXJ7sMIiBCbeFaWgavMnZ6VV6OhQ3XTSppYi4m6gaoN9xavMd3WIy4b0akFaHeGKjdNuhHtDhGOHXhPmTtbVV6th++ywgrfa/t6+eYUmDaKo3AjbwPO3UMsC+4B3GWana6VV+sBvCyqh/CChRuEbzEbE27LFrwRnXogNCgSAFgell2Qi+mptmTvgHzK3Nmu8mo9kFdFVjhfm9jLubSvBHI5VJtzKUHmwT2cu0y107jyaj2cl0X1cF6wcIPzLXJjzjWH5TW2h3NNQflnuBulMUM/5spAeAVQZujH3GXu3ZXKq/VgXtNYoXxtYS/lWgGfdz0UaW0J5NqACrEkfa1tYj7l7jSutl4P6EVdPZwXTNzgfItcexI+gl9P57P/hl5fTz+a7U/+gxsf/wM=);strokeColor=none;points=[[0.12,0.51,0],[0.5,0.18,0],[0.89,0.51,0],[0.5,0.73,0],[0.5,1.69,0]];labelBackgroundColor=none;rounded=0;html=1;whiteSpace=wrap;fontStyle=1;fontColor=#0a0a0a;" parent="RrnTrXlartnsTWybDFfY-27" vertex="1">
                    <mxGeometry x="5" y="20" width="32" height="10" as="geometry"/>
                </mxCell>
                <mxCell id="RrnTrXlartnsTWybDFfY-29" style="vsdxID=10313;fillColor=#44546a;gradientColor=none;shape=stencil(UzV2Ls5ILEhVNTIoLinKz04tz0wpyVA1dlE1MsrMy0gtyiwBslSNXVWNndPyi1LTi/JL81Ig/IJEkEoQKze/DGRCBUSfhaGeiSVIl5FBJUTEAMxzgyjOycxDUmxooWdKrFoDFIWGBviMNSBBMQEHAxkIr6Zl5uRAQgpZHj1ogEKQYDV2BQA=);strokeColor=none;points=[[0.12,0.51,0],[0.5,0.18,0],[0.89,0.51,0],[0.5,0.73,0],[0.5,1.69,0]];labelBackgroundColor=none;rounded=0;html=1;whiteSpace=wrap;fontStyle=1;fontColor=#0a0a0a;" parent="RrnTrXlartnsTWybDFfY-27" vertex="1">
                    <mxGeometry x="5" y="9" width="32" height="7" as="geometry"/>
                </mxCell>
                <mxCell id="RrnTrXlartnsTWybDFfY-30" style="vsdxID=10314;fillColor=#44546a;gradientColor=none;shape=stencil(lZLNDoMgEISfhutm2VWUs23fw0SspFYM2r+3r5RDq4nG3pbhGzJhR3AxNGVvBOEwencxD1uNjeCDILJdY7wdp0nwUXBRO2/O3t26Kp77MpBhurp7eOEZfTlClgUX4SsqnICSH+UUDa3tNg1agUzXDRJxhmcKNO3HcR0lBtR7YYY8mbFSA/E6r1Jg/Y9hHjvf/kWZwiINbmTfsaRp+K64tm0bG/J7v6zEJMU68fEN);strokeColor=none;points=[[0.12,0.51,0],[0.5,0.18,0],[0.89,0.51,0],[0.5,0.73,0],[0.5,1.69,0]];labelBackgroundColor=none;rounded=0;html=1;whiteSpace=wrap;fontStyle=1;fontColor=#0a0a0a;" parent="RrnTrXlartnsTWybDFfY-27" vertex="1">
                    <mxGeometry x="36" width="7" height="10" as="geometry"/>
                </mxCell>
                <mxCell id="RrnTrXlartnsTWybDFfY-31" style="vsdxID=10315;fillColor=#44546a;gradientColor=none;shape=stencil(jZLbDoIwDIafZrdLXUXmNeJ7kDBkERkZ4OHt3WwMjsiyux6+v/nXlWExttWgmIBxsuaqHrqeWoYnJoTuW2X15CKGJcOiMVZdrJn7mvKh8qSPbubuJzxJJ4HnuVcJeFHlkHE8fipnEnS6jwqQy2yb3wEEtMMhMn6Nf/O/8DIrCXdG9wHt3yK3+WUTiYKV9fgiXTt0E3Ge8EsuWP640V1HJ/LbX9+EK9E9YfkG);strokeColor=none;points=[[0.12,0.51,0],[0.5,0.18,0],[0.89,0.51,0],[0.5,0.73,0],[0.5,1.69,0]];labelBackgroundColor=none;rounded=0;html=1;whiteSpace=wrap;fontStyle=1;fontColor=#0a0a0a;" parent="RrnTrXlartnsTWybDFfY-27" vertex="1">
                    <mxGeometry x="36" y="34" width="7" height="10" as="geometry"/>
                </mxCell>
                <mxCell id="RrnTrXlartnsTWybDFfY-32" value="&lt;div style=&quot;font-size: 1px&quot;&gt;&lt;font style=&quot;font-size: 14.11px; font-family: &amp;quot;Segoe UI Semibold&amp;quot;; direction: ltr; letter-spacing: 0px; line-height: 120%; opacity: 1;&quot;&gt;&lt;span&gt;  &lt;br&gt;&lt;/span&gt;&lt;/font&gt;&lt;/div&gt;" style="verticalAlign=middle;align=center;overflow=width;vsdxID=10316;fillColor=#44546a;gradientColor=none;shape=stencil(lZLLDoMgEEW/hi2BGUt1be1/mIiV1IpB+vr7OmVhaYOxu2G4Z3LnwbCcunrUDMTknT3ru2l8x/DAAMzQaWf8HDGsGJatdfrk7HVownusSUnRxd6owiNwsuCQEQXiGTKYcSXfmWMAejOsAoXicpcGRCTeK17AVrFIC5c6G8TkUEVi6gLTAM0A/gGkiJ3n60PMf+uLFf8bljQHy4pb0/fhQj7/v09iToVzwuoF);strokeColor=none;points=[[0.12,0.51,0],[0.5,0.18,0],[0.89,0.51,0],[0.5,0.73,0],[0.5,1.69,0]];labelBackgroundColor=none;rounded=0;html=1;whiteSpace=wrap;fontStyle=1;fontColor=#0a0a0a;" parent="RrnTrXlartnsTWybDFfY-27" vertex="1">
                    <mxGeometry width="7" height="10" as="geometry"/>
                </mxCell>
                <mxCell id="RrnTrXlartnsTWybDFfY-33" style="vsdxID=10317;fillColor=#44546a;gradientColor=none;shape=stencil(lZLLDoMgEEW/hu0EGUVYW/sfJmIltWJQ+/j7QkkftpHY3XA59zJhhmAxttWgCKPjZM1RXXQ9tQR3hDHdt8rqyVUES4JFY6w6WDP3dTgPlSd9dTJnn3ANvkQCS72L0VtQeAYoH8o+GDrdRw0IIlvn6YJ1MI2EL+GE0nU05yDZdlxySPgCFxRysW7AFDj7x/B8/tVO/B/FT36k+w1TcsV7xo3uurAin/ffO+GksE9Y3gE=);strokeColor=none;points=[[0.12,0.51,0],[0.5,0.18,0],[0.89,0.51,0],[0.5,0.73,0],[0.5,1.69,0]];labelBackgroundColor=none;rounded=0;html=1;whiteSpace=wrap;fontStyle=1;fontColor=#0a0a0a;" parent="RrnTrXlartnsTWybDFfY-27" vertex="1">
                    <mxGeometry y="34" width="7" height="10" as="geometry"/>
                </mxCell>
                <mxCell id="RrnTrXlartnsTWybDFfY-34" value="&lt;div style=&quot;font-size: 1px&quot;&gt;&lt;/div&gt;" style="text;vsdxID=10311;fillColor=none;gradientColor=none;strokeColor=none;points=[[0.12,0.51,0],[0.5,0.18,0],[0.89,0.51,0],[0.5,0.73,0],[0.5,1.69,0]];labelBackgroundColor=none;rounded=0;html=1;whiteSpace=wrap;verticalAlign=middle;align=center;overflow=width;;html=1;fontStyle=1;fontColor=#0a0a0a;" parent="RrnTrXlartnsTWybDFfY-27" vertex="1">
                    <mxGeometry x="-18.22" y="-31.53" width="80.84" height="45.72" as="geometry"/>
                </mxCell>
                <UserObject label="" tags="Background" id="RrnTrXlartnsTWybDFfY-254">
                    <mxCell style="vsdxID=10648;edgeStyle=none;startArrow=block;endArrow=block;startSize=3;endSize=3;strokeWidth=17;strokeColor=#44546a;spacingTop=0;spacingBottom=0;spacingLeft=0;spacingRight=0;verticalAlign=middle;html=1;labelBackgroundColor=#f2f2f2;rounded=0;fontStyle=1;fontColor=#0a0a0a;" parent="RrnTrXlartnsTWybDFfY-27" edge="1">
                        <mxGeometry relative="1" as="geometry">
                            <Array as="points"/>
                            <mxPoint x="-258" y="-20" as="sourcePoint"/>
                            <mxPoint x="132" y="-20" as="targetPoint"/>
                        </mxGeometry>
                    </mxCell>
                </UserObject>
                <mxCell id="RrnTrXlartnsTWybDFfY-35" style="vsdxID=10318;fillColor=none;gradientColor=none;strokeColor=none;points=[[0.12,0.51,0],[0.5,0.18,0],[0.89,0.51,0],[0.5,0.73,0],[0.5,1.69,0]];labelBackgroundColor=none;rounded=0;html=1;whiteSpace=wrap;fontStyle=1;fontColor=#0a0a0a;" parent="RrnTrXlartnsTWybDFfY-26" vertex="1">
                    <mxGeometry y="51" width="44" height="44" as="geometry"/>
                </mxCell>
                <mxCell id="RrnTrXlartnsTWybDFfY-36" style="vsdxID=10319;fillColor=#44546a;gradientColor=none;shape=stencil(lZfbcpswEIafhtsdSavjZSdN3yOTOLWnrp0hTuO8fSVEEDoiuNAgs4v2//ezgAEf3o9Pb4eBkffbeP1z+Dy93I4D/hwYO12Oh/F0s2cDPg748HodD7/H68flxc/fnlykO/t7/efucPd5RgA1LouRL/8LmWa/fPD5dFkFc9C0Hvv8Mfo7U3+RARWoufQjmxPpOpPcWTT9mqcSOCXfx5x5xzh0nlIOiKEM8iOrmkQlawFSt8omcaEGQeilFqriussa54tWAhCS52LmJi4JTSV5s6KMXItRsBRHBSc01lYrkMU3XwQ5L0yI57GeEI5FqwuCQkqxmbmgkEAbpLC2+pi57/LX5mKGd1c3ol7E/zMqAHUUrJqdowwE14oq40Ydi1ZR2xLVlAAT0royjcn/igLhod9p/4DJ2ACROpD3o7DYfA01GJEtxlr65ouYtGZtHkYhjco02EU0I8KNSWXJ7sMIiBCbeFaWgavMnZ6VV6OhQ3XTSppYi4m6gaoN9xavMd3WIy4b0akFaHeGKjdNuhHtDhGOHXhPmTtbVV6th++ywgrfa/t6+eYUmDaKo3AjbwPO3UMsC+4B3GWana6VV+sBvCyqh/CChRuEbzEbE27LFrwRnXogNCgSAFgell2Qi+mptmTvgHzK3Nmu8mo9kFdFVjhfm9jLubSvBHI5VJtzKUHmwT2cu0y107jyaj2cl0X1cF6wcIPzLXJjzjWH5TW2h3NNQflnuBulMUM/5spAeAVQZujH3GXu3ZXKq/VgXtNYoXxtYS/lWgGfdz0UaW0J5NqACrEkfa1tYj7l7jSutl4P6EVdPZwXTNzgfItcexI+gl9P57P/hl5fTz+a7U/+gxsf/wM=);strokeColor=none;points=[[0.12,0.51,0],[0.5,0.18,0],[0.89,0.51,0],[0.5,0.73,0],[0.5,1.69,0]];labelBackgroundColor=none;rounded=0;html=1;whiteSpace=wrap;fontStyle=1;fontColor=#0a0a0a;" parent="RrnTrXlartnsTWybDFfY-35" vertex="1">
                    <mxGeometry x="5" y="20" width="32" height="10" as="geometry"/>
                </mxCell>
                <mxCell id="RrnTrXlartnsTWybDFfY-37" style="vsdxID=10320;fillColor=#44546a;gradientColor=none;shape=stencil(UzV2Ls5ILEhVNTIoLinKz04tz0wpyVA1dlE1MsrMy0gtyiwBslSNXVWNndPyi1LTi/JL81Ig/IJEkEoQKze/DGRCBUSfhaGeiSVIl5FBJUTEAMxzgyjOycxDUmxooWdKrFoDFIWGBviMNSBBMQEHAxkIr6Zl5uRAQgpZHj1ogEKQYDV2BQA=);strokeColor=none;points=[[0.12,0.51,0],[0.5,0.18,0],[0.89,0.51,0],[0.5,0.73,0],[0.5,1.69,0]];labelBackgroundColor=none;rounded=0;html=1;whiteSpace=wrap;fontStyle=1;fontColor=#0a0a0a;" parent="RrnTrXlartnsTWybDFfY-35" vertex="1">
                    <mxGeometry x="5" y="9" width="32" height="7" as="geometry"/>
                </mxCell>
                <mxCell id="RrnTrXlartnsTWybDFfY-38" style="vsdxID=10321;fillColor=#44546a;gradientColor=none;shape=stencil(lZLNDoMgEISfhutm2VWUs23fw0SspFYM2r+3r5RDq4nG3pbhGzJhR3AxNGVvBOEwencxD1uNjeCDILJdY7wdp0nwUXBRO2/O3t26Kp77MpBhurp7eOEZfTlClgUX4SsqnICSH+UUDa3tNg1agUzXDRJxhmcKNO3HcR0lBtR7YYY8mbFSA/E6r1Jg/Y9hHjvf/kWZwiINbmTfsaRp+K64tm0bG/J7v6zEJMU68fEN);strokeColor=none;points=[[0.12,0.51,0],[0.5,0.18,0],[0.89,0.51,0],[0.5,0.73,0],[0.5,1.69,0]];labelBackgroundColor=none;rounded=0;html=1;whiteSpace=wrap;fontStyle=1;fontColor=#0a0a0a;" parent="RrnTrXlartnsTWybDFfY-35" vertex="1">
                    <mxGeometry x="36" width="7" height="10" as="geometry"/>
                </mxCell>
                <mxCell id="RrnTrXlartnsTWybDFfY-39" style="vsdxID=10322;fillColor=#44546a;gradientColor=none;shape=stencil(jZLbDoIwDIafZrdLXUXmNeJ7kDBkERkZ4OHt3WwMjsiyux6+v/nXlWExttWgmIBxsuaqHrqeWoYnJoTuW2X15CKGJcOiMVZdrJn7mvKh8qSPbubuJzxJJ4HnuVcJeFHlkHE8fipnEnS6jwqQy2yb3wEEtMMhMn6Nf/O/8DIrCXdG9wHt3yK3+WUTiYKV9fgiXTt0E3Ge8EsuWP640V1HJ/LbX9+EK9E9YfkG);strokeColor=none;points=[[0.12,0.51,0],[0.5,0.18,0],[0.89,0.51,0],[0.5,0.73,0],[0.5,1.69,0]];labelBackgroundColor=none;rounded=0;html=1;whiteSpace=wrap;fontStyle=1;fontColor=#0a0a0a;" parent="RrnTrXlartnsTWybDFfY-35" vertex="1">
                    <mxGeometry x="36" y="34" width="7" height="10" as="geometry"/>
                </mxCell>
                <mxCell id="RrnTrXlartnsTWybDFfY-40" value="&lt;div style=&quot;font-size: 1px&quot;&gt;&lt;font style=&quot;font-size: 14.11px; font-family: &amp;quot;Segoe UI Semibold&amp;quot;; direction: ltr; letter-spacing: 0px; line-height: 120%; opacity: 1;&quot;&gt;&lt;span&gt;  &lt;br&gt;&lt;/span&gt;&lt;/font&gt;&lt;/div&gt;" style="verticalAlign=middle;align=center;overflow=width;vsdxID=10323;fillColor=#44546a;gradientColor=none;shape=stencil(lZLLDoMgEEW/hi2BGUt1be1/mIiV1IpB+vr7OmVhaYOxu2G4Z3LnwbCcunrUDMTknT3ru2l8x/DAAMzQaWf8HDGsGJatdfrk7HVownusSUnRxd6owiNwsuCQEQXiGTKYcSXfmWMAejOsAoXicpcGRCTeK17AVrFIC5c6G8TkUEVi6gLTAM0A/gGkiJ3n60PMf+uLFf8bljQHy4pb0/fhQj7/v09iToVzwuoF);strokeColor=none;points=[[0.12,0.51,0],[0.5,0.18,0],[0.89,0.51,0],[0.5,0.73,0],[0.5,1.69,0]];labelBackgroundColor=none;rounded=0;html=1;whiteSpace=wrap;fontStyle=1;fontColor=#0a0a0a;" parent="RrnTrXlartnsTWybDFfY-35" vertex="1">
                    <mxGeometry width="7" height="10" as="geometry"/>
                </mxCell>
                <mxCell id="RrnTrXlartnsTWybDFfY-41" style="vsdxID=10324;fillColor=#44546a;gradientColor=none;shape=stencil(lZLLDoMgEEW/hu0EGUVYW/sfJmIltWJQ+/j7QkkftpHY3XA59zJhhmAxttWgCKPjZM1RXXQ9tQR3hDHdt8rqyVUES4JFY6w6WDP3dTgPlSd9dTJnn3ANvkQCS72L0VtQeAYoH8o+GDrdRw0IIlvn6YJ1MI2EL+GE0nU05yDZdlxySPgCFxRysW7AFDj7x/B8/tVO/B/FT36k+w1TcsV7xo3uurAin/ffO+GksE9Y3gE=);strokeColor=none;points=[[0.12,0.51,0],[0.5,0.18,0],[0.89,0.51,0],[0.5,0.73,0],[0.5,1.69,0]];labelBackgroundColor=none;rounded=0;html=1;whiteSpace=wrap;fontStyle=1;fontColor=#0a0a0a;" parent="RrnTrXlartnsTWybDFfY-35" vertex="1">
                    <mxGeometry y="34" width="7" height="10" as="geometry"/>
                </mxCell>
                <mxCell id="RrnTrXlartnsTWybDFfY-42" value="&lt;div style=&quot;font-size: 1px&quot;&gt;&lt;/div&gt;" style="text;vsdxID=10318;fillColor=none;gradientColor=none;strokeColor=none;points=[[0.12,0.51,0],[0.5,0.18,0],[0.89,0.51,0],[0.5,0.73,0],[0.5,1.69,0]];labelBackgroundColor=none;rounded=0;html=1;whiteSpace=wrap;verticalAlign=middle;align=center;overflow=width;;html=1;fontStyle=1;fontColor=#0a0a0a;" parent="RrnTrXlartnsTWybDFfY-35" vertex="1">
                    <mxGeometry x="-18.22" y="-31.53" width="80.84" height="45.72" as="geometry"/>
                </mxCell>
                <UserObject label="&lt;div style=&quot;font-size: 1px&quot;&gt;&lt;font style=&quot;font-size: 14.11px; font-family: &amp;quot;Segoe UI Semibold&amp;quot;; direction: ltr; letter-spacing: 0px; line-height: 120%; opacity: 1;&quot;&gt;&lt;span&gt;Microsoft &lt;/span&gt;&lt;/font&gt;&lt;font style=&quot;font-size: 14.11px; font-family: &amp;quot;Segoe UI Semibold&amp;quot;; direction: ltr; letter-spacing: 0px; line-height: 120%; opacity: 1;&quot;&gt;&lt;span&gt;&lt;br&gt;E&lt;/span&gt;&lt;/font&gt;&lt;font style=&quot;font-size: 14.11px; font-family: &amp;quot;Segoe UI Semibold&amp;quot;; direction: ltr; letter-spacing: 0px; line-height: 120%; opacity: 1;&quot;&gt;&lt;span&gt;dge &lt;/span&gt;&lt;/font&gt;&lt;font style=&quot;font-size: 14.11px; font-family: &amp;quot;Segoe UI Semibold&amp;quot;; direction: ltr; letter-spacing: 0px; line-height: 120%; opacity: 1;&quot;&gt;&lt;span&gt;R&lt;/span&gt;&lt;/font&gt;&lt;font style=&quot;font-size: 14.11px; font-family: &amp;quot;Segoe UI Semibold&amp;quot;; direction: ltr; letter-spacing: 0px; line-height: 120%; opacity: 1;&quot;&gt;&lt;span&gt;outers&lt;br&gt;&lt;/span&gt;&lt;/font&gt;&lt;/div&gt;" tags="Connector" id="RrnTrXlartnsTWybDFfY-43">
                    <mxCell style="verticalAlign=middle;align=center;overflow=width;vsdxID=10325;fillColor=none;gradientColor=none;shape=stencil(nZBLDoAgDERP0z3SIyjew0SURgSD+Lu9kMZoXLhwN9O+tukAlrNpJg1SzDH4QW/URgNYgZTkjA4UkwJUgGXng+6DX1zLfmoymdXo17xh5zmRJ6Q42BWCfc2oJfdAr+Yv+AP9Cb7OJ3H/2JG1HNGz/84klThPVCc=);strokeColor=none;points=[[0.47,0,0],[0.5,0,0],[1,0.46,0],[1,0.43,0]];labelBackgroundColor=none;rounded=0;html=1;whiteSpace=wrap;fontStyle=1;fontColor=#0a0a0a;" parent="1" vertex="1">
                        <mxGeometry x="391" y="959" width="91" height="37" as="geometry"/>
                    </mxCell>
                </UserObject>
                <UserObject label="" tags="Background" id="RrnTrXlartnsTWybDFfY-44">
                    <mxCell style="vsdxID=10327;fillColor=none;gradientColor=none;points=[];labelBackgroundColor=none;rounded=0;strokeColor=none;html=1;whiteSpace=wrap;fontStyle=1;fontColor=#0a0a0a;" parent="1" vertex="1">
                        <mxGeometry x="256" y="860" width="44" height="95" as="geometry"/>
                    </mxCell>
                </UserObject>
                <mxCell id="RrnTrXlartnsTWybDFfY-45" style="vsdxID=10328;fillColor=none;gradientColor=none;strokeColor=none;points=[[0.12,0.51,0],[0.5,0.18,0],[0.89,0.51,0],[0.5,0.73,0],[0.5,1.69,0]];labelBackgroundColor=none;rounded=0;html=1;whiteSpace=wrap;fontStyle=1;fontColor=#0a0a0a;" parent="RrnTrXlartnsTWybDFfY-44" vertex="1">
                    <mxGeometry width="44" height="44" as="geometry"/>
                </mxCell>
                <mxCell id="RrnTrXlartnsTWybDFfY-46" style="vsdxID=10329;fillColor=#44546a;gradientColor=none;shape=stencil(lZfbcpswEIafhtsdSavjZSdN3yOTOLWnrp0hTuO8fSVEEDoiuNAgs4v2//ezgAEf3o9Pb4eBkffbeP1z+Dy93I4D/hwYO12Oh/F0s2cDPg748HodD7/H68flxc/fnlykO/t7/efucPd5RgA1LouRL/8LmWa/fPD5dFkFc9C0Hvv8Mfo7U3+RARWoufQjmxPpOpPcWTT9mqcSOCXfx5x5xzh0nlIOiKEM8iOrmkQlawFSt8omcaEGQeilFqriussa54tWAhCS52LmJi4JTSV5s6KMXItRsBRHBSc01lYrkMU3XwQ5L0yI57GeEI5FqwuCQkqxmbmgkEAbpLC2+pi57/LX5mKGd1c3ol7E/zMqAHUUrJqdowwE14oq40Ydi1ZR2xLVlAAT0royjcn/igLhod9p/4DJ2ACROpD3o7DYfA01GJEtxlr65ouYtGZtHkYhjco02EU0I8KNSWXJ7sMIiBCbeFaWgavMnZ6VV6OhQ3XTSppYi4m6gaoN9xavMd3WIy4b0akFaHeGKjdNuhHtDhGOHXhPmTtbVV6th++ywgrfa/t6+eYUmDaKo3AjbwPO3UMsC+4B3GWana6VV+sBvCyqh/CChRuEbzEbE27LFrwRnXogNCgSAFgell2Qi+mptmTvgHzK3Nmu8mo9kFdFVjhfm9jLubSvBHI5VJtzKUHmwT2cu0y107jyaj2cl0X1cF6wcIPzLXJjzjWH5TW2h3NNQflnuBulMUM/5spAeAVQZujH3GXu3ZXKq/VgXtNYoXxtYS/lWgGfdz0UaW0J5NqACrEkfa1tYj7l7jSutl4P6EVdPZwXTNzgfItcexI+gl9P57P/hl5fTz+a7U/+gxsf/wM=);strokeColor=none;spacingTop=-3;spacingBottom=-3;spacingLeft=-3;spacingRight=-3;points=[[0.12,0.51,0],[0.5,0.18,0],[0.89,0.51,0],[0.5,0.73,0],[0.5,1.69,0]];labelBackgroundColor=none;rounded=0;html=1;whiteSpace=wrap;fontStyle=1;fontColor=#0a0a0a;" parent="RrnTrXlartnsTWybDFfY-45" vertex="1">
                    <mxGeometry x="5" y="20" width="32" height="10" as="geometry"/>
                </mxCell>
                <mxCell id="RrnTrXlartnsTWybDFfY-47" style="vsdxID=10330;fillColor=#44546a;gradientColor=none;shape=stencil(UzV2Ls5ILEhVNTIoLinKz04tz0wpyVA1dlE1MsrMy0gtyiwBslSNXVWNndPyi1LTi/JL81Ig/IJEkEoQKze/DGRCBUSfhaGeiSVIl5FBJUTEAMxzgyjOycxDUmxooWdKrFoDFIWGBviMNSBBMQEHAxkIr6Zl5uRAQgpZHj1ogEKQYDV2BQA=);strokeColor=none;spacingTop=-3;spacingBottom=-3;spacingLeft=-3;spacingRight=-3;points=[[0.12,0.51,0],[0.5,0.18,0],[0.89,0.51,0],[0.5,0.73,0],[0.5,1.69,0]];labelBackgroundColor=none;rounded=0;html=1;whiteSpace=wrap;fontStyle=1;fontColor=#0a0a0a;" parent="RrnTrXlartnsTWybDFfY-45" vertex="1">
                    <mxGeometry x="5" y="9" width="32" height="7" as="geometry"/>
                </mxCell>
                <mxCell id="RrnTrXlartnsTWybDFfY-48" style="vsdxID=10331;fillColor=#44546a;gradientColor=none;shape=stencil(lZLNDoMgEISfhutm2VWUs23fw0SspFYM2r+3r5RDq4nG3pbhGzJhR3AxNGVvBOEwencxD1uNjeCDILJdY7wdp0nwUXBRO2/O3t26Kp77MpBhurp7eOEZfTlClgUX4SsqnICSH+UUDa3tNg1agUzXDRJxhmcKNO3HcR0lBtR7YYY8mbFSA/E6r1Jg/Y9hHjvf/kWZwiINbmTfsaRp+K64tm0bG/J7v6zEJMU68fEN);strokeColor=none;spacingTop=-3;spacingBottom=-3;spacingLeft=-3;spacingRight=-3;points=[[0.12,0.51,0],[0.5,0.18,0],[0.89,0.51,0],[0.5,0.73,0],[0.5,1.69,0]];labelBackgroundColor=none;rounded=0;html=1;whiteSpace=wrap;fontStyle=1;fontColor=#0a0a0a;" parent="RrnTrXlartnsTWybDFfY-45" vertex="1">
                    <mxGeometry x="36" width="7" height="10" as="geometry"/>
                </mxCell>
                <mxCell id="RrnTrXlartnsTWybDFfY-49" style="vsdxID=10332;fillColor=#44546a;gradientColor=none;shape=stencil(jZLbDoIwDIafZrdLXUXmNeJ7kDBkERkZ4OHt3WwMjsiyux6+v/nXlWExttWgmIBxsuaqHrqeWoYnJoTuW2X15CKGJcOiMVZdrJn7mvKh8qSPbubuJzxJJ4HnuVcJeFHlkHE8fipnEnS6jwqQy2yb3wEEtMMhMn6Nf/O/8DIrCXdG9wHt3yK3+WUTiYKV9fgiXTt0E3Ge8EsuWP640V1HJ/LbX9+EK9E9YfkG);strokeColor=none;spacingTop=-3;spacingBottom=-3;spacingLeft=-3;spacingRight=-3;points=[[0.12,0.51,0],[0.5,0.18,0],[0.89,0.51,0],[0.5,0.73,0],[0.5,1.69,0]];labelBackgroundColor=none;rounded=0;html=1;whiteSpace=wrap;fontStyle=1;fontColor=#0a0a0a;" parent="RrnTrXlartnsTWybDFfY-45" vertex="1">
                    <mxGeometry x="36" y="34" width="7" height="10" as="geometry"/>
                </mxCell>
                <mxCell id="RrnTrXlartnsTWybDFfY-50" value="&lt;div style=&quot;font-size: 1px&quot;&gt;&lt;font style=&quot;font-size: 14.11px; font-family: &amp;quot;Segoe UI Semibold&amp;quot;; direction: ltr; letter-spacing: 0px; line-height: 120%; opacity: 1;&quot;&gt;  &lt;br&gt;&lt;/font&gt;&lt;/div&gt;" style="verticalAlign=top;align=center;overflow=width;vsdxID=10333;fillColor=#44546a;gradientColor=none;shape=stencil(lZLLDoMgEEW/hi2BGUt1be1/mIiV1IpB+vr7OmVhaYOxu2G4Z3LnwbCcunrUDMTknT3ru2l8x/DAAMzQaWf8HDGsGJatdfrk7HVownusSUnRxd6owiNwsuCQEQXiGTKYcSXfmWMAejOsAoXicpcGRCTeK17AVrFIC5c6G8TkUEVi6gLTAM0A/gGkiJ3n60PMf+uLFf8bljQHy4pb0/fhQj7/v09iToVzwuoF);strokeColor=none;spacingTop=-3;spacingBottom=-3;spacingLeft=-3;spacingRight=-3;points=[[0.12,0.51,0],[0.5,0.18,0],[0.89,0.51,0],[0.5,0.73,0],[0.5,1.69,0]];labelBackgroundColor=none;rounded=0;html=1;whiteSpace=wrap;fontStyle=1;fontColor=#0a0a0a;" parent="RrnTrXlartnsTWybDFfY-45" vertex="1">
                    <mxGeometry width="7" height="10" as="geometry"/>
                </mxCell>
                <mxCell id="RrnTrXlartnsTWybDFfY-51" style="vsdxID=10334;fillColor=#44546a;gradientColor=none;shape=stencil(lZLLDoMgEEW/hu0EGUVYW/sfJmIltWJQ+/j7QkkftpHY3XA59zJhhmAxttWgCKPjZM1RXXQ9tQR3hDHdt8rqyVUES4JFY6w6WDP3dTgPlSd9dTJnn3ANvkQCS72L0VtQeAYoH8o+GDrdRw0IIlvn6YJ1MI2EL+GE0nU05yDZdlxySPgCFxRysW7AFDj7x/B8/tVO/B/FT36k+w1TcsV7xo3uurAin/ffO+GksE9Y3gE=);strokeColor=none;spacingTop=-3;spacingBottom=-3;spacingLeft=-3;spacingRight=-3;points=[[0.12,0.51,0],[0.5,0.18,0],[0.89,0.51,0],[0.5,0.73,0],[0.5,1.69,0]];labelBackgroundColor=none;rounded=0;html=1;whiteSpace=wrap;fontStyle=1;fontColor=#0a0a0a;" parent="RrnTrXlartnsTWybDFfY-45" vertex="1">
                    <mxGeometry y="34" width="7" height="10" as="geometry"/>
                </mxCell>
                <mxCell id="RrnTrXlartnsTWybDFfY-52" value="&lt;div style=&quot;font-size: 1px&quot;&gt;&lt;/div&gt;" style="text;vsdxID=10328;fillColor=none;gradientColor=none;strokeColor=none;points=[[0.12,0.51,0],[0.5,0.18,0],[0.89,0.51,0],[0.5,0.73,0],[0.5,1.69,0]];labelBackgroundColor=none;rounded=0;html=1;whiteSpace=wrap;verticalAlign=top;align=center;overflow=width;;html=1;fontStyle=1;fontColor=#0a0a0a;" parent="RrnTrXlartnsTWybDFfY-45" vertex="1">
                    <mxGeometry x="-18.22" y="-31.53" width="80.84" height="45.72" as="geometry"/>
                </mxCell>
                <mxCell id="RrnTrXlartnsTWybDFfY-53" style="vsdxID=10335;fillColor=none;gradientColor=none;strokeColor=none;points=[[0.12,0.51,0],[0.5,0.18,0],[0.89,0.51,0],[0.5,0.73,0],[0.5,1.69,0]];labelBackgroundColor=none;rounded=0;html=1;whiteSpace=wrap;fontStyle=1;fontColor=#0a0a0a;" parent="RrnTrXlartnsTWybDFfY-44" vertex="1">
                    <mxGeometry y="51" width="44" height="44" as="geometry"/>
                </mxCell>
                <mxCell id="RrnTrXlartnsTWybDFfY-54" style="vsdxID=10336;fillColor=#44546a;gradientColor=none;shape=stencil(lZfbcpswEIafhtsdSavjZSdN3yOTOLWnrp0hTuO8fSVEEDoiuNAgs4v2//ezgAEf3o9Pb4eBkffbeP1z+Dy93I4D/hwYO12Oh/F0s2cDPg748HodD7/H68flxc/fnlykO/t7/efucPd5RgA1LouRL/8LmWa/fPD5dFkFc9C0Hvv8Mfo7U3+RARWoufQjmxPpOpPcWTT9mqcSOCXfx5x5xzh0nlIOiKEM8iOrmkQlawFSt8omcaEGQeilFqriussa54tWAhCS52LmJi4JTSV5s6KMXItRsBRHBSc01lYrkMU3XwQ5L0yI57GeEI5FqwuCQkqxmbmgkEAbpLC2+pi57/LX5mKGd1c3ol7E/zMqAHUUrJqdowwE14oq40Ydi1ZR2xLVlAAT0royjcn/igLhod9p/4DJ2ACROpD3o7DYfA01GJEtxlr65ouYtGZtHkYhjco02EU0I8KNSWXJ7sMIiBCbeFaWgavMnZ6VV6OhQ3XTSppYi4m6gaoN9xavMd3WIy4b0akFaHeGKjdNuhHtDhGOHXhPmTtbVV6th++ywgrfa/t6+eYUmDaKo3AjbwPO3UMsC+4B3GWana6VV+sBvCyqh/CChRuEbzEbE27LFrwRnXogNCgSAFgell2Qi+mptmTvgHzK3Nmu8mo9kFdFVjhfm9jLubSvBHI5VJtzKUHmwT2cu0y107jyaj2cl0X1cF6wcIPzLXJjzjWH5TW2h3NNQflnuBulMUM/5spAeAVQZujH3GXu3ZXKq/VgXtNYoXxtYS/lWgGfdz0UaW0J5NqACrEkfa1tYj7l7jSutl4P6EVdPZwXTNzgfItcexI+gl9P57P/hl5fTz+a7U/+gxsf/wM=);strokeColor=none;spacingTop=-3;spacingBottom=-3;spacingLeft=-3;spacingRight=-3;points=[[0.12,0.51,0],[0.5,0.18,0],[0.89,0.51,0],[0.5,0.73,0],[0.5,1.69,0]];labelBackgroundColor=none;rounded=0;html=1;whiteSpace=wrap;fontStyle=1;fontColor=#0a0a0a;" parent="RrnTrXlartnsTWybDFfY-53" vertex="1">
                    <mxGeometry x="5" y="20" width="32" height="10" as="geometry"/>
                </mxCell>
                <mxCell id="RrnTrXlartnsTWybDFfY-55" style="vsdxID=10337;fillColor=#44546a;gradientColor=none;shape=stencil(UzV2Ls5ILEhVNTIoLinKz04tz0wpyVA1dlE1MsrMy0gtyiwBslSNXVWNndPyi1LTi/JL81Ig/IJEkEoQKze/DGRCBUSfhaGeiSVIl5FBJUTEAMxzgyjOycxDUmxooWdKrFoDFIWGBviMNSBBMQEHAxkIr6Zl5uRAQgpZHj1ogEKQYDV2BQA=);strokeColor=none;spacingTop=-3;spacingBottom=-3;spacingLeft=-3;spacingRight=-3;points=[[0.12,0.51,0],[0.5,0.18,0],[0.89,0.51,0],[0.5,0.73,0],[0.5,1.69,0]];labelBackgroundColor=none;rounded=0;html=1;whiteSpace=wrap;fontStyle=1;fontColor=#0a0a0a;" parent="RrnTrXlartnsTWybDFfY-53" vertex="1">
                    <mxGeometry x="5" y="9" width="32" height="7" as="geometry"/>
                </mxCell>
                <mxCell id="RrnTrXlartnsTWybDFfY-56" style="vsdxID=10338;fillColor=#44546a;gradientColor=none;shape=stencil(lZLNDoMgEISfhutm2VWUs23fw0SspFYM2r+3r5RDq4nG3pbhGzJhR3AxNGVvBOEwencxD1uNjeCDILJdY7wdp0nwUXBRO2/O3t26Kp77MpBhurp7eOEZfTlClgUX4SsqnICSH+UUDa3tNg1agUzXDRJxhmcKNO3HcR0lBtR7YYY8mbFSA/E6r1Jg/Y9hHjvf/kWZwiINbmTfsaRp+K64tm0bG/J7v6zEJMU68fEN);strokeColor=none;spacingTop=-3;spacingBottom=-3;spacingLeft=-3;spacingRight=-3;points=[[0.12,0.51,0],[0.5,0.18,0],[0.89,0.51,0],[0.5,0.73,0],[0.5,1.69,0]];labelBackgroundColor=none;rounded=0;html=1;whiteSpace=wrap;fontStyle=1;fontColor=#0a0a0a;" parent="RrnTrXlartnsTWybDFfY-53" vertex="1">
                    <mxGeometry x="36" width="7" height="10" as="geometry"/>
                </mxCell>
                <mxCell id="RrnTrXlartnsTWybDFfY-57" style="vsdxID=10339;fillColor=#44546a;gradientColor=none;shape=stencil(jZLbDoIwDIafZrdLXUXmNeJ7kDBkERkZ4OHt3WwMjsiyux6+v/nXlWExttWgmIBxsuaqHrqeWoYnJoTuW2X15CKGJcOiMVZdrJn7mvKh8qSPbubuJzxJJ4HnuVcJeFHlkHE8fipnEnS6jwqQy2yb3wEEtMMhMn6Nf/O/8DIrCXdG9wHt3yK3+WUTiYKV9fgiXTt0E3Ge8EsuWP640V1HJ/LbX9+EK9E9YfkG);strokeColor=none;spacingTop=-3;spacingBottom=-3;spacingLeft=-3;spacingRight=-3;points=[[0.12,0.51,0],[0.5,0.18,0],[0.89,0.51,0],[0.5,0.73,0],[0.5,1.69,0]];labelBackgroundColor=none;rounded=0;html=1;whiteSpace=wrap;fontStyle=1;fontColor=#0a0a0a;" parent="RrnTrXlartnsTWybDFfY-53" vertex="1">
                    <mxGeometry x="36" y="34" width="7" height="10" as="geometry"/>
                </mxCell>
                <mxCell id="RrnTrXlartnsTWybDFfY-58" value="&lt;div style=&quot;font-size: 1px&quot;&gt;&lt;font style=&quot;font-size: 14.11px; font-family: &amp;quot;Segoe UI Semibold&amp;quot;; direction: ltr; letter-spacing: 0px; line-height: 120%; opacity: 1;&quot;&gt;  &lt;br&gt;&lt;/font&gt;&lt;/div&gt;" style="verticalAlign=top;align=center;overflow=width;vsdxID=10340;fillColor=#44546a;gradientColor=none;shape=stencil(lZLLDoMgEEW/hi2BGUt1be1/mIiV1IpB+vr7OmVhaYOxu2G4Z3LnwbCcunrUDMTknT3ru2l8x/DAAMzQaWf8HDGsGJatdfrk7HVownusSUnRxd6owiNwsuCQEQXiGTKYcSXfmWMAejOsAoXicpcGRCTeK17AVrFIC5c6G8TkUEVi6gLTAM0A/gGkiJ3n60PMf+uLFf8bljQHy4pb0/fhQj7/v09iToVzwuoF);strokeColor=none;spacingTop=-3;spacingBottom=-3;spacingLeft=-3;spacingRight=-3;points=[[0.12,0.51,0],[0.5,0.18,0],[0.89,0.51,0],[0.5,0.73,0],[0.5,1.69,0]];labelBackgroundColor=none;rounded=0;html=1;whiteSpace=wrap;fontStyle=1;fontColor=#0a0a0a;" parent="RrnTrXlartnsTWybDFfY-53" vertex="1">
                    <mxGeometry width="7" height="10" as="geometry"/>
                </mxCell>
                <mxCell id="RrnTrXlartnsTWybDFfY-59" style="vsdxID=10341;fillColor=#44546a;gradientColor=none;shape=stencil(lZLLDoMgEEW/hu0EGUVYW/sfJmIltWJQ+/j7QkkftpHY3XA59zJhhmAxttWgCKPjZM1RXXQ9tQR3hDHdt8rqyVUES4JFY6w6WDP3dTgPlSd9dTJnn3ANvkQCS72L0VtQeAYoH8o+GDrdRw0IIlvn6YJ1MI2EL+GE0nU05yDZdlxySPgCFxRysW7AFDj7x/B8/tVO/B/FT36k+w1TcsV7xo3uurAin/ffO+GksE9Y3gE=);strokeColor=none;spacingTop=-3;spacingBottom=-3;spacingLeft=-3;spacingRight=-3;points=[[0.12,0.51,0],[0.5,0.18,0],[0.89,0.51,0],[0.5,0.73,0],[0.5,1.69,0]];labelBackgroundColor=none;rounded=0;html=1;whiteSpace=wrap;fontStyle=1;fontColor=#0a0a0a;" parent="RrnTrXlartnsTWybDFfY-53" vertex="1">
                    <mxGeometry y="34" width="7" height="10" as="geometry"/>
                </mxCell>
                <mxCell id="RrnTrXlartnsTWybDFfY-60" value="&lt;div style=&quot;font-size: 1px&quot;&gt;&lt;/div&gt;" style="text;vsdxID=10335;fillColor=none;gradientColor=none;strokeColor=none;points=[[0.12,0.51,0],[0.5,0.18,0],[0.89,0.51,0],[0.5,0.73,0],[0.5,1.69,0]];labelBackgroundColor=none;rounded=0;html=1;whiteSpace=wrap;verticalAlign=top;align=center;overflow=width;;html=1;fontStyle=1;fontColor=#0a0a0a;" parent="RrnTrXlartnsTWybDFfY-53" vertex="1">
                    <mxGeometry x="-18.22" y="-31.53" width="80.84" height="45.72" as="geometry"/>
                </mxCell>
                <UserObject label="&lt;div style=&quot;font-size: 1px&quot;&gt;&lt;font style=&quot;font-size: 14.11px; font-family: &amp;quot;Segoe UI Semibold&amp;quot;; direction: ltr; letter-spacing: 0px; line-height: 120%; opacity: 1;&quot;&gt;&lt;span&gt;Local Edge&lt;/span&gt;&lt;/font&gt;&lt;font style=&quot;font-size: 14.11px; font-family: &amp;quot;Segoe UI Semibold&amp;quot;; direction: ltr; letter-spacing: 0px; line-height: 120%; opacity: 1;&quot;&gt;&lt;span&gt; Routers&lt;br&gt;&lt;/span&gt;&lt;/font&gt;&lt;/div&gt;" tags="Connector" id="RrnTrXlartnsTWybDFfY-61">
                    <mxCell style="verticalAlign=middle;align=center;overflow=width;vsdxID=10342;fillColor=none;gradientColor=none;shape=stencil(nZBLDoAgDERP0z3SIyjew0SURgSD+Lu9kMZoXLhwN9O+tukAlrNpJg1SzDH4QW/URgNYgZTkjA4UkwJUgGXng+6DX1zLfmoymdXo17xh5zmRJ6Q42BWCfc2oJfdAr+Yv+AP9Cb7OJ3H/2JG1HNGz/84klThPVCc=);strokeColor=none;points=[[0.47,0,0],[0.5,0,0],[1,0.46,0],[1,0.43,0]];labelBackgroundColor=none;rounded=0;html=1;whiteSpace=wrap;fontStyle=1;fontColor=#0a0a0a;" parent="1" vertex="1">
                        <mxGeometry x="243" y="961" width="73" height="37" as="geometry"/>
                    </mxCell>
                </UserObject>
                <UserObject label="&lt;div style=&quot;font-size: 1px&quot;&gt;&lt;font style=&quot;font-size: 14.11px; font-family: &amp;quot;Segoe UI Semibold&amp;quot;; direction: ltr; letter-spacing: 0px; line-height: 120%; opacity: 1;&quot;&gt;&lt;span&gt;ExpressRoute Circuit&lt;/span&gt;&lt;/font&gt;&lt;font style=&quot;font-size: 14.11px; font-family: &amp;quot;Segoe UI Semibold&amp;quot;; direction: ltr; letter-spacing: 0px; line-height: 120%; opacity: 1;&quot;&gt;&lt;br&gt;&lt;/font&gt;&lt;/div&gt;" tags="Connector" id="RrnTrXlartnsTWybDFfY-62">
                    <mxCell style="verticalAlign=top;align=center;overflow=width;vsdxID=10346;fillColor=none;gradientColor=none;shape=stencil(nZBLDoAgDERP0z3SIyjew0SURgSD+Lu9kMZoXLhwN9O+tukAlrNpJg1SzDH4QW/URgNYgZTkjA4UkwJUgGXng+6DX1zLfmoymdXo17xh5zmRJ6Q42BWCfc2oJfdAr+Yv+AP9Cb7OJ3H/2JG1HNGz/84klThPVCc=);strokeColor=none;points=[[0.47,0,0],[0.5,0,0],[1,0.46,0],[1,0.43,0]];labelBackgroundColor=none;rounded=0;html=1;whiteSpace=wrap;fontStyle=1;fontColor=#0a0a0a;" parent="1" vertex="1">
                        <mxGeometry x="303" y="926" width="103" height="20" as="geometry"/>
                    </mxCell>
                </UserObject>
                <UserObject label="&lt;div style=&quot;font-size: 1px&quot;&gt;&lt;p style=&quot;text-align:left;margin-left:0;margin-right:0;margin-top:0px;margin-bottom:0px;text-indent:0;vertical-align:bottom;direction:ltr;&quot;&gt;&lt;font style=&quot;font-size: 14.11px; font-family: &amp;quot;Segoe UI Semibold&amp;quot;; direction: ltr; letter-spacing: 0px; line-height: 120%; opacity: 1;&quot;&gt;&lt;span&gt;AzureBastionSubnet&lt;br&gt;&lt;/span&gt;&lt;/font&gt;&lt;/p&gt;&lt;/div&gt;" tags="Background" id="RrnTrXlartnsTWybDFfY-63">
                    <mxCell style="verticalAlign=bottom;align=left;overflow=width;vsdxID=10413;fillColor=#f2f2f2;gradientColor=none;shape=stencil(nZBLDoAgDERP0z3SIyjew0SURgSD+Lu9kMZoXLhwN9O+tukAlrNpJg1SzDH4QW/URgNYgZTkjA4UkwJUgGXng+6DX1zLfmoymdXo17xh5zmRJ6Q42BWCfc2oJfdAr+Yv+AP9Cb7OJ3H/2JG1HNGz/84klThPVCc=);dashed=1;dashPattern=1.00 2.00;strokeColor=#6b859a;points=[[1,0.5,0],[0.5,0,0],[0.5,0.5,0],[0.5,0.5,0]];labelBackgroundColor=none;rounded=0;html=1;whiteSpace=wrap;fontStyle=1;fontColor=#0a0a0a;" parent="1" vertex="1">
                        <mxGeometry x="907" y="619" width="144" height="120" as="geometry"/>
                    </mxCell>
                </UserObject>
                <UserObject label="&lt;div style=&quot;font-size: 1px&quot;&gt;&lt;p style=&quot;text-align:right;margin-left:0;margin-right:0;margin-top:0px;margin-bottom:0px;text-indent:0;vertical-align:middle;direction:ltr;&quot;&gt;&lt;font style=&quot;font-size: 14.11px; font-family: &amp;quot;Segoe UI Semibold&amp;quot;; direction: ltr; letter-spacing: 0px; line-height: 120%; opacity: 1;&quot;&gt;&lt;span&gt;Bastion&lt;/span&gt;&lt;/font&gt;&lt;font style=&quot;font-size: 14.11px; font-family: &amp;quot;Segoe UI Semibold&amp;quot;; direction: ltr; letter-spacing: 0px; line-height: 120%; opacity: 1;&quot;&gt;&lt;br&gt;&lt;/font&gt;&lt;/p&gt;&lt;/div&gt;" tags="Background" id="RrnTrXlartnsTWybDFfY-64">
                    <mxCell style="verticalAlign=middle;align=right;overflow=width;vsdxID=10414;fillColor=#b1dafb;gradientColor=none;shape=stencil(nZBLDoAgDERP0z3SIyjew0SURgSD+Lu9kMZoXLhwN9O+tukAlrNpJg1SzDH4QW/URgNYgZTkjA4UkwJUgGXng+6DX1zLfmoymdXo17xh5zmRJ6Q42BWCfc2oJfdAr+Yv+AP9Cb7OJ3H/2JG1HNGz/84klThPVCc=);strokeColor=#6b859a;points=[[1,0.5,0],[0.5,0,0],[0.5,0.5,0],[0.5,0.5,0]];labelBackgroundColor=none;rounded=0;html=1;whiteSpace=wrap;fontStyle=1;fontColor=#0a0a0a;" parent="1" vertex="1">
                        <mxGeometry x="931" y="639" width="100" height="40" as="geometry"/>
                    </mxCell>
                </UserObject>
                <UserObject label="&lt;div style=&quot;font-size: 1px&quot;&gt;&lt;/div&gt;" tags="Background" id="RrnTrXlartnsTWybDFfY-65">
                    <mxCell style="verticalAlign=middle;align=center;overflow=width;vsdxID=10415;fillColor=#ffffff;gradientColor=none;shape=stencil(nZBLDoAgDERP0z3SIyjew0SURgSD+Lu9kMZoXLhwN9O+tukAlrNpJg1SzDH4QW/URgNYgZTkjA4UkwJUgGXng+6DX1zLfmoymdXo17xh5zmRJ6Q42BWCfc2oJfdAr+Yv+AP9Cb7OJ3H/2JG1HNGz/84klThPVCc=);strokeColor=#6b859a;points=[[1,0.5,0],[0.5,0,0],[0.5,0.5,0],[0.5,0.5,0]];labelBackgroundColor=none;rounded=0;html=1;whiteSpace=wrap;fontStyle=1;fontColor=#0a0a0a;" parent="1" vertex="1">
                        <mxGeometry x="931" y="679" width="100" height="28" as="geometry"/>
                    </mxCell>
                </UserObject>
                <UserObject label="" tags="Background" id="RrnTrXlartnsTWybDFfY-66">
                    <mxCell style="vsdxID=10422;fillColor=none;gradientColor=none;strokeColor=none;spacingTop=-3;spacingBottom=-3;spacingLeft=-3;spacingRight=-3;points=[];labelBackgroundColor=none;rounded=0;html=1;whiteSpace=wrap;fontStyle=1;fontColor=#0a0a0a;" parent="1" vertex="1">
                        <mxGeometry x="946" y="648" width="21" height="21" as="geometry"/>
                    </mxCell>
                </UserObject>
                <mxCell id="RrnTrXlartnsTWybDFfY-67" style="vsdxID=10423;fillColor=none;gradientColor=none;strokeColor=none;spacingTop=-3;spacingBottom=-3;spacingLeft=-3;spacingRight=-3;points=[];labelBackgroundColor=none;rounded=0;html=1;whiteSpace=wrap;fontStyle=1;fontColor=#0a0a0a;" parent="RrnTrXlartnsTWybDFfY-66" vertex="1">
                    <mxGeometry width="21" height="21" as="geometry"/>
                </mxCell>
                <mxCell id="RrnTrXlartnsTWybDFfY-68" style="vsdxID=10424;fillColor=#0072c6;gradientColor=none;shape=stencil(lZdNctswDIVP4y2GJPi7Ttt7ZBqn8TSNM07SJrcvVEkg+WRJzc6mCX8E9fAAHfjm5eH2+Xhw5uX1cv55/HO6e3048JeDc6enh+Pl9CqfDvz1wDf358vxx+X89nQ3fn++HXYOn36dfw//8D7GeU/MQ5QzH+NKkhX7b+XbGPD97TJG2HEDW/J2CpmWMpP149K7G5esoTQtfUxLJVJM0y6eAimFadO0UjI5v4WPZGNPt8b0bEdcAF1o+N6iLdkC6EQxbKFNzy2Bcu7JBrBODztjHYUMWDMfdwXrySa476KPYCa3T2VaSpJi7ulcKMUeHwP5Dv94euoFEkAghsL2eSMl1x84OX3Q84Fb5TmUnh643cUrAl0ceE/RUAJclTpdiaUSNzNsQizG1BIoqo85Q16WgE1k+wSZqbgtvJVnAhXIhgpo0UaCKnAq8EqXcoMykArzaRNfKOYe74L+jRYhU47AZ9XSe4UZD/xAcVNf4hqOgZ8ogwEFTzn1/CAwKAhZylAQYc+BZEMOPT9qDVd+1sue+VFkA/kHubjU86Oeco3vVUTK12dW+azJKn/5/IPYNODVKtfwUv9AX9qRLwTJi22AA/tcZcy6KW3m3sZYjKm516wcZlXxhSzg5YJ81wHAWvad4tMBvReJjnJvXl4ra+VGxOUDqCE0LjPln3PVWXXbAG4rrchANaQ4B67wpcc50EMS6XPPl95vHPCbXU0HRkWk+e/X+GXWleKXfVlHBIXLjBAW8LyQ4yZZrhnQcZm5XLMFH5QWVXr2ILwezTiM9MoSHUUQiurg/23LL+e2VoEOJVjP2+ziFaHCgfeVDaXAWrEf2hcn+1wbDZsQizFVio4MeJPVjlvVEGqTmXvl3g3L7IqTcWM7tRIyVIJOYC094v2S3bTl4sljV1wMXVLgGXI3Pbk1Cp2U0+Y0lLVh12uvjb62owjt6ErewS7HkT0DkJZQ4Nbl2g1cu+ximI95OZ1f4fOeAUvMIv2lA11px6yZteOAgdtnba5r/GaEsBoToSEPsw/akA7yW+OQ+Apv+0oTYzGm8pvMHGZW+WnRgDjPE+J1X9m3iU8HyIf6vnx/enwcX7fb3/H9WpbGd3P++hc=);strokeColor=none;strokeWidth=17;spacingTop=-3;spacingBottom=-3;spacingLeft=-3;spacingRight=-3;points=[];labelBackgroundColor=none;rounded=0;html=1;whiteSpace=wrap;fontStyle=1;fontColor=#0a0a0a;" parent="RrnTrXlartnsTWybDFfY-67" vertex="1">
                    <mxGeometry width="21" height="21" as="geometry"/>
                </mxCell>
                <UserObject label="" tags="Background" id="RrnTrXlartnsTWybDFfY-83">
                    <mxCell style="vsdxID=10445;fillColor=none;gradientColor=none;strokeColor=none;spacingTop=-3;spacingBottom=-3;spacingLeft=-3;spacingRight=-3;points=[[0.5,1.31,0],[0.5,0,0],[0,0.5,0],[1,0.5,0]];labelBackgroundColor=none;rounded=0;html=1;whiteSpace=wrap;fontStyle=1;fontColor=#0a0a0a;" parent="1" vertex="1">
                        <mxGeometry x="947" y="470" width="48" height="48" as="geometry"/>
                    </mxCell>
                </UserObject>
                <mxCell id="RrnTrXlartnsTWybDFfY-84" style="vsdxID=10446;fillColor=#6bb9f2;gradientColor=#6bb9f2;shape=stencil(vZXbboMwDEC/hkesOOGW5677j2gNEI1BFdhK/35BYevMbVK7IfGQ+MpJHDsQh7ZUZx1w1na2edUXc+rKQDwFnJu61NZ0bhWIYyAOeWN1YZv3+uT3ZzVYDqu35mOI0Hs/ZGzw4ezq9zGHYeu+Z29emXrDHCEj1sq+OKXtv7Xoze11KhlNZAYoScgxQR+q3rShbTrVmaYmukrZQocuV5hXqiCq9qL1eSZeZIlSSJdS34sSJRCTcAJwL5aEgaAsmIDMNhwQBFKHFCQ+dADzmJxBlP7pGeA6EoM4ItkzBB5tEs2ACM88oLgh//uVugucvAwpv05zjYfPgDghwgzSZCXmDkiphFjQJ+J+6KGayzjgcsQdKs7VA+M0u4Rko31K9yhpuxVjz7iXf71/71Givw0Pt7gNntxUlZ9bP/XTQeVEfsiJ4yc=);strokeColor=none;spacingTop=-3;spacingBottom=-3;spacingLeft=-3;spacingRight=-3;points=[[0.5,1.31,0],[0.5,0,0],[0,0.5,0],[1,0.5,0]];labelBackgroundColor=none;rounded=0;html=1;whiteSpace=wrap;fontStyle=1;fontColor=#0a0a0a;" parent="RrnTrXlartnsTWybDFfY-83" vertex="1">
                    <mxGeometry x="14" width="34" height="34" as="geometry"/>
                </mxCell>
                <mxCell id="RrnTrXlartnsTWybDFfY-85" style="vsdxID=10447;fillColor=#B3B3B3;gradientColor=none;shape=stencil(vZbbcsIgEIafJpfZ4RjItbXvwVRUpmnikLSaty8pVoNIRq3NHdll+fmWsGxGF+1W7XRGUNvZ5l3vzarbZvQlI8TUW21N50YZXWZ0sW6s3tjms175750aZg6jj+ZrWOHg46QEgYcognpv4QRY+WN59QGVqScDJAMuxgHKvjmvPQZQ4MzPt/2vpfACpzU5YBGuKYEUxzm5Opg2t02nOtPU3o+8r1J2o3Onl68rtQlc7V7r3ciM00iYgcQJ+RQSjZBkgIQxEJlI0xxIkTzmwOidSCJEitLkVASbC4kjQCIhfxUJQ3nx4xFAJEBy/zoKkUoQ5KlEaIIoUj9tMAXEIyAaAkVJQnPRnO95f2XuDTUhvEAoWGtUMv4dJFQuC6D4TyRRYjCa7VDc7llxVfzRWn3afJSfGXAuxaO36u4KUEpAYYLcFWLPrdNT54Og4An5R5GmnvQZkG7oKNzg3I+sTVX5dmbsv+xfnMn3PnT5DQ==);strokeColor=none;spacingTop=-3;spacingBottom=-3;spacingLeft=-3;spacingRight=-3;points=[[0.5,1.31,0],[0.5,0,0],[0,0.5,0],[1,0.5,0]];labelBackgroundColor=none;rounded=0;html=1;whiteSpace=wrap;fontStyle=1;fontColor=#0a0a0a;" parent="RrnTrXlartnsTWybDFfY-83" vertex="1">
                    <mxGeometry y="9" width="40" height="39" as="geometry"/>
                </mxCell>
                <mxCell id="RrnTrXlartnsTWybDFfY-86" value="&lt;div style=&quot;font-size: 1px&quot;&gt;&lt;/div&gt;" style="text;vsdxID=10445;fillColor=none;gradientColor=none;strokeColor=none;spacingTop=-3;spacingBottom=-3;spacingLeft=-3;spacingRight=-3;points=[[0.5,1.31,0],[0.5,0,0],[0,0.5,0],[1,0.5,0]];labelBackgroundColor=none;rounded=0;html=1;whiteSpace=wrap;verticalAlign=middle;align=center;overflow=width;;html=1;fontStyle=1;fontColor=#0a0a0a;" parent="RrnTrXlartnsTWybDFfY-83" vertex="1">
                    <mxGeometry x="-24.38" y="48" width="97.54" height="16.93" as="geometry"/>
                </mxCell>
                <UserObject label="&lt;div style=&quot;font-size: 1px&quot;&gt;&lt;font style=&quot;font-size: 14.11px; font-family: &amp;quot;Segoe UI Semibold&amp;quot;; direction: ltr; letter-spacing: 0px; line-height: 120%; opacity: 1;&quot;&gt;&lt;span&gt;Azure Portal&lt;br&gt;&lt;/span&gt;&lt;/font&gt;&lt;/div&gt;" tags="Background" id="RrnTrXlartnsTWybDFfY-87">
                    <mxCell style="verticalAlign=middle;align=center;overflow=width;vsdxID=10450;fillColor=none;gradientColor=none;shape=stencil(nZBLDoAgDERP0z3SIyjew0SURgSD+Lu9kMZoXLhwN9O+tukAlrNpJg1SzDH4QW/URgNYgZTkjA4UkwJUgGXng+6DX1zLfmoymdXo17xh5zmRJ6Q42BWCfc2oJfdAr+Yv+AP9Cb7OJ3H/2JG1HNGz/84klThPVCc=);strokeColor=none;points=[];labelBackgroundColor=none;rounded=0;html=1;whiteSpace=wrap;fontStyle=1;fontColor=#0a0a0a;" parent="1" vertex="1">
                        <mxGeometry x="917" y="459" width="94" height="16" as="geometry"/>
                    </mxCell>
                </UserObject>
                <UserObject label="" tags="Background" id="RrnTrXlartnsTWybDFfY-88">
                    <mxCell style="vsdxID=10480;fillColor=none;gradientColor=none;strokeColor=none;spacingTop=-3;spacingBottom=-3;spacingLeft=-3;spacingRight=-3;points=[];labelBackgroundColor=none;rounded=0;html=1;whiteSpace=wrap;fontStyle=1;fontColor=#0a0a0a;" parent="1" vertex="1">
                        <mxGeometry x="731" y="448" width="122" height="71" as="geometry"/>
                    </mxCell>
                </UserObject>
                <mxCell id="RrnTrXlartnsTWybDFfY-89" style="vsdxID=10481;rotation=270;fillColor=#B3B3B3;gradientColor=none;shape=stencil(vVPbDoIwDP2aPUIGgyjPqP+xyIDFyUg3Bf/e4YaC05hgwlsvp2tPu4NIrmraMhRjpUGeWMcLXSOyQ3HMm5oB18ZCZI9IXkpgFchLU1i/pQNysM7yOrzQ2zo8VMT4Zr0Mh1H0iBwsmMLRZMGBkyTEG1sAY0W4zWzExzhIhF2TPqA9VwFITTWXzWwAQaFigWkXlIJWs5TqGGu9sBtQ8GbCJk3DjHxsvpjPc3pvRSvw8ZqP0y2m429oteP4P+PP03zZzQpUfqjGGC+9lVwIK9dp/l2fJmS1TfZ3);strokeColor=none;strokeWidth=48;spacingTop=-3;spacingBottom=-3;spacingLeft=-3;spacingRight=-3;points=[];labelBackgroundColor=none;rounded=0;html=1;whiteSpace=wrap;fontStyle=1;fontColor=#0a0a0a;" parent="RrnTrXlartnsTWybDFfY-88" vertex="1">
                    <mxGeometry x="25" y="11" width="8" height="35" as="geometry"/>
                </mxCell>
                <mxCell id="RrnTrXlartnsTWybDFfY-90" style="vsdxID=10482;rotation=270;fillColor=#a3a3a3;gradientColor=none;shape=stencil(vVPbDoIwDP2aPUIGgyjPqP+xyIDFyUg3Bf/e4YaC05hgwlsvp2tPu4NIrmraMhRjpUGeWMcLXSOyQ3HMm5oB18ZCZI9IXkpgFchLU1i/pQNysM7yOrzQ2zo8VMT4Zr0Mh1H0iBwsmMLRZMGBkyTEG1sAY0W4zWzExzhIhF2TPqA9VwFITTWXzWwAQaFigWkXlIJWs5TqGGu9sBtQ8GbCJk3DjHxsvpjPc3pvRSvw8ZqP0y2m429oteP4P+PP03zZzQpUfqjGGC+9lVwIK9dp/l2fJmS1TfZ3);strokeColor=none;strokeWidth=48;spacingTop=-3;spacingBottom=-3;spacingLeft=-3;spacingRight=-3;points=[];labelBackgroundColor=none;rounded=0;html=1;whiteSpace=wrap;fontStyle=1;fontColor=#0a0a0a;" parent="RrnTrXlartnsTWybDFfY-88" vertex="1">
                    <mxGeometry x="13" y="27" width="8" height="35" as="geometry"/>
                </mxCell>
                <mxCell id="RrnTrXlartnsTWybDFfY-91" style="vsdxID=10483;rotation=270;fillColor=#7a7a7a;gradientColor=none;shape=stencil(vVPbDoIwDP2aPUIGgyjPqP+xyIDFyUg3Bf/e4YaC05hgwlsvp2tPu4NIrmraMhRjpUGeWMcLXSOyQ3HMm5oB18ZCZI9IXkpgFchLU1i/pQNysM7yOrzQ2zo8VMT4Zr0Mh1H0iBwsmMLRZMGBkyTEG1sAY0W4zWzExzhIhF2TPqA9VwFITTWXzWwAQaFigWkXlIJWs5TqGGu9sBtQ8GbCJk3DjHxsvpjPc3pvRSvw8ZqP0y2m429oteP4P+PP03zZzQpUfqjGGC+9lVwIK9dp/l2fJmS1TfZ3);strokeColor=none;strokeWidth=48;spacingTop=-3;spacingBottom=-3;spacingLeft=-3;spacingRight=-3;points=[];labelBackgroundColor=none;rounded=0;html=1;whiteSpace=wrap;fontStyle=1;fontColor=#0a0a0a;" parent="RrnTrXlartnsTWybDFfY-88" vertex="1">
                    <mxGeometry x="25" y="43" width="8" height="35" as="geometry"/>
                </mxCell>
                <mxCell id="RrnTrXlartnsTWybDFfY-92" style="vsdxID=10484;fillColor=#5ea0ef;gradientColor=none;shape=stencil(vZTNcoQgDMefhqMZICh63m7fg+miMrXioO1u375YGCtqp6d6g3zAL5l/QvAytmrQhNNxcvZV381tagk+Ec5N32pnJn8ieCV4qa3TjbPv/S3cBzVHzqc3+zG/8Ah5jNI5h9PPcC9KKMS35TmEK/fivS6Gcw6yDAkuZiADLIIpBpUURJW8iiVwEWMy9TBj5uykJmP74I8MnXKNzvyPWd2pJnGNd62HnfmY0ZdQbRirhSgG5Qx4njDS0/gqQJnyCd8xkfBxBCETPl6AlKcxSqBs00MJLO3hRjkI7ES8nQxXElt0wFIZLmL/D8LO9Ku5khJyefj5cUEItNjNlUwL+n1WTyjoz0XhDz9LpjZdF3bU2r9dSt4UFhpevwA=);strokeColor=none;strokeWidth=48;spacingTop=-3;spacingBottom=-3;spacingLeft=-3;spacingRight=-3;points=[];labelBackgroundColor=none;rounded=0;html=1;whiteSpace=wrap;fontStyle=1;fontColor=#0a0a0a;" parent="RrnTrXlartnsTWybDFfY-88" vertex="1">
                    <mxGeometry x="24" width="97" height="71" as="geometry"/>
                </mxCell>
                <UserObject label="&lt;div style=&quot;font-size: 1px&quot;&gt;&lt;p style=&quot;text-align:right;margin-left:0;margin-right:0;margin-top:0px;margin-bottom:0px;text-indent:0;vertical-align:bottom;direction:ltr;&quot;&gt;&lt;font style=&quot;font-size: 14.11px; font-family: &amp;quot;Segoe UI Semibold&amp;quot;; direction: ltr; letter-spacing: 0px; line-height: 120%; opacity: 1;&quot;&gt;&lt;span&gt;Internet&lt;/span&gt;&lt;/font&gt;&lt;font style=&quot;font-size: 14.11px; font-family: &amp;quot;Segoe UI Semibold&amp;quot;; direction: ltr; letter-spacing: 0px; line-height: 120%; opacity: 1;&quot;&gt;&lt;br&gt;&lt;/font&gt;&lt;/p&gt;&lt;/div&gt;" tags="Background" id="RrnTrXlartnsTWybDFfY-93">
                    <mxCell style="verticalAlign=bottom;align=right;overflow=width;vsdxID=10485;fillColor=none;gradientColor=none;shape=stencil(nZBLDoAgDERP0z3SIyjew0SURgSD+Lu9kMZoXLhwN9O+tukAlrNpJg1SzDH4QW/URgNYgZTkjA4UkwJUgGXng+6DX1zLfmoymdXo17xh5zmRJ6Q42BWCfc2oJfdAr+Yv+AP9Cb7OJ3H/2JG1HNGz/84klThPVCc=);strokeColor=none;points=[];labelBackgroundColor=none;rounded=0;html=1;whiteSpace=wrap;fontStyle=1;fontColor=#0a0a0a;" parent="1" vertex="1">
                        <mxGeometry x="761" y="479" width="70" height="30" as="geometry"/>
                    </mxCell>
                </UserObject>
                <UserObject label="&lt;div style=&quot;font-size: 1px&quot;&gt;&lt;font style=&quot;font-size: 14.11px; font-family: &amp;quot;Segoe UI Semibold&amp;quot;; direction: ltr; letter-spacing: 0px; line-height: 120%; opacity: 1;&quot;&gt;Virtual&lt;/font&gt;&lt;font style=&quot;font-size: 14.11px; font-family: &amp;quot;Segoe UI Semibold&amp;quot;; direction: ltr; letter-spacing: 0px; line-height: 120%; opacity: 1;&quot;&gt;&lt;br&gt;Network &lt;br&gt;peering&lt;br&gt;&lt;/font&gt;&lt;/div&gt;" tags="Background" id="RrnTrXlartnsTWybDFfY-94">
                    <mxCell style="verticalAlign=middle;align=center;overflow=width;vsdxID=10488;fillColor=none;gradientColor=none;shape=stencil(nZBLDoAgDERP0z3SIyjew0SURgSD+Lu9kMZoXLhwN9O+tukAlrNpJg1SzDH4QW/URgNYgZTkjA4UkwJUgGXng+6DX1zLfmoymdXo17xh5zmRJ6Q42BWCfc2oJfdAr+Yv+AP9Cb7OJ3H/2JG1HNGz/84klThPVCc=);strokeColor=none;points=[];labelBackgroundColor=none;rounded=0;html=1;whiteSpace=wrap;fontStyle=1;fontColor=#0a0a0a;" parent="1" vertex="1">
                        <mxGeometry x="1071" y="598" width="100" height="53" as="geometry"/>
                    </mxCell>
                </UserObject>
                <UserObject label="" tags="Background" id="RrnTrXlartnsTWybDFfY-95">
                    <mxCell style="vsdxID=10489;fillColor=none;gradientColor=none;strokeColor=none;spacingTop=-3;spacingBottom=-3;spacingLeft=-3;spacingRight=-3;points=[];labelBackgroundColor=none;rounded=0;html=1;whiteSpace=wrap;fontStyle=1;fontColor=#0a0a0a;" parent="1" vertex="1">
                        <mxGeometry x="1107" y="580" width="26" height="15" as="geometry"/>
                    </mxCell>
                </UserObject>
                <mxCell id="RrnTrXlartnsTWybDFfY-96" style="vsdxID=10490;fillColor=#3999c6;gradientColor=none;shape=stencil(lZRNcsIwDIVPk63Glvy7pnAPpoSSKSVMCC3cvk5tguW0KeyMeM/6FD+7osVptz7WFYpT37Xv9Vez6XcVvVSIzWFXd00fVhUtK1ps265+69rzYRN/H9eDclh9tJ/DDpfo8wacH1worrGiEZT8qayi4fXcRYeMAilEMqSCFmDSHhdM23ogl1SppCx4SiqaNk8lZQBZ931zyHCdBM9xadz2V4NU4CUzSLA4O54Ex+cTfDYLSvPRBB9LAWk+VdmTM2b6BxEBFUekkelGGc4EOeX4ZWdA5z+mVaCJkU6Oq0S1FkzBmgcBpyqchoqm7emPsHJgAskP3yMIO8dbRNsT2CLagnOGDGvNObOut6A7QPcMZqkvMe9neS1v5Y0z5FgWVzDcSmM4q6Sx9CCsEyCR0Zr/8ppbZOkZgXMVTlU0qmwR2qCiGeAHnrinDWFxf1G3zX4fH+T8//IFDqX4etPyGw==);strokeColor=none;spacingTop=-3;spacingBottom=-3;spacingLeft=-3;spacingRight=-3;points=[];labelBackgroundColor=none;rounded=0;html=1;whiteSpace=wrap;fontStyle=1;fontColor=#0a0a0a;" parent="RrnTrXlartnsTWybDFfY-95" vertex="1">
                    <mxGeometry x="18" width="8" height="15" as="geometry"/>
                </mxCell>
                <mxCell id="RrnTrXlartnsTWybDFfY-97" style="vsdxID=10491;fillColor=#3999c6;gradientColor=none;shape=stencil(lZTRdoMgDIafxtscSAThuuveo2e10zNXe6zd2rcfHqgS2Ox6h/EP+RJ+KGhzbnanukBxHof+o/5u92NT0EuB2B6bemhHtypoW9Dm0A/1+9Bfjnv/fdpNymn12X9NO1x9HoGUUxKKmw8ohNJHXr3+7TL4BOkFIsjDpxKgrQ9dMShAYxCFSFmBpSCirHCIlBqQVe7aY0QqDQiOSvOuvyYYBcKyBAkVrrVmDCDvTvDOLIJSvDXB27IKtOJ9pVU5ZZzwP0proNIck6BUCakFMpx0Hu8a7PpI3R4VP4Ps0FJax5bAxmbATIS5rSgvTn+YNZmtBsMd4A5QVGu4UiT+tgRV4u9Fg3Oduy3m0UalaT43NE/BpgmZExa2W8p/h3WeNsltdN7QmuMaDVQ+heuuoyaGqx/ONkqRac4y3UiFuYpmlUjMoNcv2uOX7lm9WyzP6qHtOv8qx//TZ9iF/BNO2x8=);strokeColor=none;spacingTop=-3;spacingBottom=-3;spacingLeft=-3;spacingRight=-3;points=[];labelBackgroundColor=none;rounded=0;html=1;whiteSpace=wrap;fontStyle=1;fontColor=#0a0a0a;" parent="RrnTrXlartnsTWybDFfY-95" vertex="1">
                    <mxGeometry width="8" height="15" as="geometry"/>
                </mxCell>
                <mxCell id="RrnTrXlartnsTWybDFfY-98" style="vsdxID=10492;fillColor=#7fba00;gradientColor=none;shape=stencil(jZLREoIgEEW/hlcGFxV8NvsPJzWZTB3Usr9PZmkUKuttd7nL4Q6X8HSo874kwIZRd5fyroqxJvxAAFRbl1qNS0V4Rnhadbo8625qC+z73ChNde1u5oYZ9wLGzA6wB/YRtkfUniaN4sBX24GQVCQ4msGOYhoKqwJvbeaWEqwa7mq+kGFzq/+YF5m5VBFREbtc5jL3zXpWIaQQukBgNEpc6G+ju0zJqJQu1zO5fgG8v4v7mo9GG9X+nYClWKNTqabB5G3P/agtI4wpz54=);strokeColor=none;spacingTop=-3;spacingBottom=-3;spacingLeft=-3;spacingRight=-3;points=[];labelBackgroundColor=none;rounded=0;html=1;whiteSpace=wrap;fontStyle=1;fontColor=#0a0a0a;" parent="RrnTrXlartnsTWybDFfY-95" vertex="1">
                    <mxGeometry x="6" y="5" width="3" height="3" as="geometry"/>
                </mxCell>
                <mxCell id="RrnTrXlartnsTWybDFfY-99" style="vsdxID=10493;fillColor=#7fba00;gradientColor=none;shape=stencil(jZLRDoIwDEW/Zq/LaIHJM+p/EBmyiEAGKP69kM7ApqJvbXe7s5tdhmlXZq1iILreNBd113lfMtwzAF2Xyuh+qhgeGKZFY9TZNEOdU99ms3Kurs1tvmGkvUCIeQfEg/qI2iNpT4MhceCr7UDuuExoNIIdxTyUVgXe2oiWEiwadDVfyLC61X/Miyxcqoy4jF2ucJnbZj2rEHIIXSAgj9CF/ja6yZQJDwOX65lcvgDe34W+5qPRStd/J2AqlugUuqooeetzP2rTiGKKhyc=);strokeColor=none;spacingTop=-3;spacingBottom=-3;spacingLeft=-3;spacingRight=-3;points=[];labelBackgroundColor=none;rounded=0;html=1;whiteSpace=wrap;fontStyle=1;fontColor=#0a0a0a;" parent="RrnTrXlartnsTWybDFfY-95" vertex="1">
                    <mxGeometry x="11" y="5" width="3" height="3" as="geometry"/>
                </mxCell>
                <mxCell id="RrnTrXlartnsTWybDFfY-100" style="vsdxID=10494;fillColor=#7fba00;gradientColor=none;shape=stencil(vVHLDsIgEPwajiQI6RfU+h8bu22JCGRB2/69kG1iazx58DazM/vIjjBtmiCi0CplCjecbZ8nYc5Ca+snJJsLEqYTph0C4Ujh4XvmEaqzont41gkL96naodXKrGF6YSfQtUi0OXXDVlqPfJNP6usotUhYbJIUMmQb/GGrAxpRljVycDBuc1hKM2LclX8/7H9nFfB+82Cd45T2+mcspcSRmu4F);strokeColor=none;spacingTop=-3;spacingBottom=-3;spacingLeft=-3;spacingRight=-3;points=[];labelBackgroundColor=none;rounded=0;html=1;whiteSpace=wrap;fontStyle=1;fontColor=#0a0a0a;" parent="RrnTrXlartnsTWybDFfY-95" vertex="1">
                    <mxGeometry x="17" y="5" width="3" height="3" as="geometry"/>
                </mxCell>
                <UserObject label="&lt;div style=&quot;font-size: 1px&quot;&gt;&lt;font style=&quot;font-size: 14.11px; font-family: &amp;quot;Segoe UI Semibold&amp;quot;; direction: ltr; letter-spacing: 0px; line-height: 120%; opacity: 1;&quot;&gt;Virtual&lt;/font&gt;&lt;font style=&quot;font-size: 14.11px; font-family: &amp;quot;Segoe UI Semibold&amp;quot;; direction: ltr; letter-spacing: 0px; line-height: 120%; opacity: 1;&quot;&gt;&lt;br&gt;Network &lt;br&gt;peering&lt;br&gt;&lt;/font&gt;&lt;/div&gt;" tags="Background" id="RrnTrXlartnsTWybDFfY-101">
                    <mxCell style="verticalAlign=middle;align=center;overflow=width;vsdxID=10502;fillColor=none;gradientColor=none;shape=stencil(nZBLDoAgDERP0z3SIyjew0SURgSD+Lu9kMZoXLhwN9O+tukAlrNpJg1SzDH4QW/URgNYgZTkjA4UkwJUgGXng+6DX1zLfmoymdXo17xh5zmRJ6Q42BWCfc2oJfdAr+Yv+AP9Cb7OJ3H/2JG1HNGz/84klThPVCc=);strokeColor=none;points=[];labelBackgroundColor=none;rounded=0;html=1;whiteSpace=wrap;fontStyle=1;fontColor=#0a0a0a;" parent="1" vertex="1">
                        <mxGeometry x="1071" y="841" width="100" height="55" as="geometry"/>
                    </mxCell>
                </UserObject>
                <UserObject label="&lt;div style=&quot;font-size: 1px&quot;&gt;&lt;p style=&quot;text-align:left;margin-left:0;margin-right:0;margin-top:0px;margin-bottom:0px;text-indent:0;vertical-align:bottom;direction:ltr;&quot;&gt;&lt;font style=&quot;font-size: 14.11px; font-family: &amp;quot;Segoe UI Semibold&amp;quot;; direction: ltr; letter-spacing: 0px; line-height: 120%; opacity: 1;&quot;&gt;&lt;span&gt;Platform Management vNet&lt;br&gt;&lt;/span&gt;&lt;/font&gt;&lt;/p&gt;&lt;/div&gt;" tags="Background" id="RrnTrXlartnsTWybDFfY-102">
                    <mxCell style="verticalAlign=bottom;align=left;overflow=width;vsdxID=10524;fillColor=#ffffff;gradientColor=none;shape=stencil(nZBLDoAgDERP0z3SIyjew0SURgSD+Lu9kMZoXLhwN9O+tukAlrNpJg1SzDH4QW/URgNYgZTkjA4UkwJUgGXng+6DX1zLfmoymdXo17xh5zmRJ6Q42BWCfc2oJfdAr+Yv+AP9Cb7OJ3H/2JG1HNGz/84klThPVCc=);dashed=1;dashPattern=1.00 2.00;strokeColor=#6b859a;points=[[1,0.5,0],[0.5,0,0],[0.5,0.5,0],[0.5,0.5,0]];labelBackgroundColor=none;rounded=0;html=1;whiteSpace=wrap;fontStyle=1;fontColor=#0a0a0a;" parent="1" vertex="1">
                        <mxGeometry x="1171" y="559" width="200" height="200" as="geometry"/>
                    </mxCell>
                </UserObject>
                <UserObject label="&lt;div style=&quot;font-size: 1px&quot;&gt;&lt;p style=&quot;text-align:left;margin-left:0;margin-right:0;margin-top:0px;margin-bottom:0px;text-indent:0;vertical-align:bottom;direction:ltr;&quot;&gt;&lt;font style=&quot;font-size: 14.11px; font-family: &amp;quot;Segoe UI Semibold&amp;quot;; direction: ltr; letter-spacing: 0px; line-height: 120%; opacity: 1;&quot;&gt;&lt;span&gt;Management&lt;br&gt;&lt;/span&gt;&lt;/font&gt;&lt;/p&gt;&lt;/div&gt;" tags="Background" id="RrnTrXlartnsTWybDFfY-103">
                    <mxCell style="verticalAlign=bottom;align=left;overflow=width;vsdxID=10525;fillColor=#f2f2f2;gradientColor=none;shape=stencil(nZBLDoAgDERP0z3SIyjew0SURgSD+Lu9kMZoXLhwN9O+tukAlrNpJg1SzDH4QW/URgNYgZTkjA4UkwJUgGXng+6DX1zLfmoymdXo17xh5zmRJ6Q42BWCfc2oJfdAr+Yv+AP9Cb7OJ3H/2JG1HNGz/84klThPVCc=);dashed=1;dashPattern=1.00 2.00;strokeColor=#6b859a;points=[[1,0.5,0],[0.5,0,0],[0.5,0.5,0],[0.5,0.5,0]];labelBackgroundColor=none;rounded=0;html=1;whiteSpace=wrap;fontStyle=1;fontColor=#0a0a0a;" parent="1" vertex="1">
                        <mxGeometry x="1191" y="579" width="160" height="140" as="geometry"/>
                    </mxCell>
                </UserObject>
                <UserObject label="" tags="Background" id="RrnTrXlartnsTWybDFfY-104">
                    <mxCell style="vsdxID=10538;fillColor=none;gradientColor=none;strokeColor=none;spacingTop=-3;spacingBottom=-3;spacingLeft=-3;spacingRight=-3;points=[];labelBackgroundColor=none;rounded=0;html=1;whiteSpace=wrap;fontStyle=1;fontColor=#0a0a0a;" parent="1" vertex="1">
                        <mxGeometry x="1198" y="587" width="26" height="26" as="geometry"/>
                    </mxCell>
                </UserObject>
                <mxCell id="RrnTrXlartnsTWybDFfY-105" style="vsdxID=10539;fillColor=#59b4d9;gradientColor=none;shape=stencil(jZLdDoIwDIWfZrdktCLeI74HkSGLCGSAwtu7pRjo8O+uPTvt1y4VmHRl1ioBsutNc1UPnfelwKMA0HWpjO5tJDAVmBSNURfTDHVOeZs5p4tuzd11GKkulNLVgJwojyg9kfc8GDKHvnsW4jg47EgaYSNN4JWNyChyQm74gAUIwj0HLy1nhuTI9WDIHfjPpjKIYk5cDfFiWilGzv2x6Ffm+udC3s7/yAm2Q6HvebuoDZZbKHRV0Smt3/3bsRLdHaZP);strokeColor=none;spacingTop=-3;spacingBottom=-3;spacingLeft=-3;spacingRight=-3;points=[];labelBackgroundColor=none;rounded=0;html=1;whiteSpace=wrap;fontStyle=1;fontColor=#0a0a0a;" parent="RrnTrXlartnsTWybDFfY-104" vertex="1">
                    <mxGeometry x="13" y="3" width="9" height="9" as="geometry"/>
                </mxCell>
                <mxCell id="RrnTrXlartnsTWybDFfY-106" style="vsdxID=10540;fillColor=#59b4d9;gradientColor=none;shape=stencil(nZHNDsIgEISfZq9ku1C151rfo0mpEBEain9vL0iM1cRqepvd/WYPM8DrUbWDBMIxeHeQF90FBXwLRNoq6XWICngDvO6dl3vvTrbL89AmMqmjO6cP1+xbIytWyUV4yxt8TLsMG20nsKjYRrzBAlkpvhuoYiX9+x2XgQXOoM/jIngG/RFbFK/Ae21M7mt6/ywornK5vLkD);strokeColor=none;spacingTop=-3;spacingBottom=-3;spacingLeft=-3;spacingRight=-3;points=[];labelBackgroundColor=none;rounded=0;html=1;whiteSpace=wrap;fontStyle=1;fontColor=#0a0a0a;" parent="RrnTrXlartnsTWybDFfY-104" vertex="1">
                    <mxGeometry x="9" y="14" width="16" height="11" as="geometry"/>
                </mxCell>
                <mxCell id="RrnTrXlartnsTWybDFfY-107" style="vsdxID=10541;fillColor=#FFFFFF;gradientColor=none;fillOpacity=20;strokeOpacity=20;shape=stencil(fVJdD4IwDPw1e226Vhg8K/4PoyCLCGTi178X0hGpMbz1rtfdbZ3h7a0+9KUhvA2hu5RPfxpqwztD5Nu6DH4YK8OF4W3VhfIcunt7EtwfJuVUXbvHdMJL5nCaIHwLSgTuRXm8B5FarY3QOSAn1IuE4hSsjapI5TlsOKo4DuaQRuodKYvKufHtIuPcnFNacGsxc4aEdFTUMTMHuNExUUfMEJJUR1x9muXF/3ui9iMCm2pP1H56F2PxXWHlm0Z+wLL/u/KRku/CxQc=);strokeColor=none;spacingTop=-3;spacingBottom=-3;spacingLeft=-3;spacingRight=-3;points=[];labelBackgroundColor=none;rounded=0;html=1;whiteSpace=wrap;fontStyle=1;fontColor=#0a0a0a;" parent="RrnTrXlartnsTWybDFfY-104" vertex="1">
                    <mxGeometry x="13" y="3" width="5" height="9" as="geometry"/>
                </mxCell>
                <mxCell id="RrnTrXlartnsTWybDFfY-108" style="vsdxID=10542;fillColor=#FFFFFF;gradientColor=none;fillOpacity=20;strokeOpacity=20;shape=stencil(nZHdCsIwDIWfJrclbXDufs73GKyzxdqOrk59e1vDcAj+4N1JzpdAToCayXSjBoVTiuGoL7ZPBmgHSllvdLQpK6AWqBlC1IcYzr7neuwKWdQpzGXDleeqjUAqUwpv3MFHtWfYWb+C8T9Q4ge0rsRW/o4v5gKTFFi/x7+cl8UzmME6x7mu/dcgc4ufQO0d);strokeColor=none;spacingTop=-3;spacingBottom=-3;spacingLeft=-3;spacingRight=-3;points=[];labelBackgroundColor=none;rounded=0;html=1;whiteSpace=wrap;fontStyle=1;fontColor=#0a0a0a;" parent="RrnTrXlartnsTWybDFfY-104" vertex="1">
                    <mxGeometry x="9" y="14" width="7" height="11" as="geometry"/>
                </mxCell>
                <mxCell id="RrnTrXlartnsTWybDFfY-109" style="vsdxID=10543;fillColor=#a0a1a2;gradientColor=none;shape=stencil(nZLRDoMgDEW/pq8EaDTu2bn/MBEHGQODzG1/PxhZpi5q3NttOW1KewHLXtadAE577+xF3FXjJeAROFdGCqd8UIAVYNlaJ87O3kyT4q6OZFRXO8QOj1THi1jC6TOFOSPs8M6cEq2VGdEZJ9mEZ5Qu07iLphM029N3hf2ZeIWd7QILQvNl+vOZP/GNTW/dJYjvSVuldXLE+H1ugZBK9sHqBQ==);strokeColor=none;spacingTop=-3;spacingBottom=-3;spacingLeft=-3;spacingRight=-3;points=[];labelBackgroundColor=none;rounded=0;html=1;whiteSpace=wrap;fontStyle=1;fontColor=#0a0a0a;" parent="RrnTrXlartnsTWybDFfY-104" vertex="1">
                    <mxGeometry y="5" width="10" height="6" as="geometry"/>
                </mxCell>
                <mxCell id="RrnTrXlartnsTWybDFfY-110" style="vsdxID=10544;fillColor=#a0a1a2;gradientColor=none;shape=stencil(UzV2Ls5ILEhVNTIoLinKz04tz0wpyVA1dlE1MsrMy0gtyiwBslSNXVWNndPyi1LTi/JL81Ig/IJEkEoQKze/DGRCBUSfoYEBSI+RQSWED+G5QZTmZObhUQrjY1VMtlISHICiFMhA+DEtMycHEkTI8uhhAhSChKexKwA=);strokeColor=none;spacingTop=-3;spacingBottom=-3;spacingLeft=-3;spacingRight=-3;points=[];labelBackgroundColor=none;rounded=0;html=1;whiteSpace=wrap;fontStyle=1;fontColor=#0a0a0a;" parent="RrnTrXlartnsTWybDFfY-104" vertex="1">
                    <mxGeometry x="8" width="1" height="9" as="geometry"/>
                </mxCell>
                <UserObject label="&lt;div style=&quot;font-size: 1px&quot;&gt;&lt;p style=&quot;text-align:left;margin-left:0;margin-right:0;margin-top:0px;margin-bottom:0px;text-indent:0;vertical-align:bottom;direction:ltr;&quot;&gt;&lt;font style=&quot;font-size: 14.11px; font-family: &amp;quot;Segoe UI Semibold&amp;quot;; direction: ltr; letter-spacing: 0px; line-height: 120%; opacity: 1;&quot;&gt;&lt;span&gt;Platform Identity vNet&lt;br&gt;&lt;/span&gt;&lt;/font&gt;&lt;/p&gt;&lt;/div&gt;" tags="Background" id="RrnTrXlartnsTWybDFfY-111">
                    <mxCell style="verticalAlign=bottom;align=left;overflow=width;vsdxID=10553;fillColor=#ffffff;gradientColor=none;shape=stencil(nZBLDoAgDERP0z3SIyjew0SURgSD+Lu9kMZoXLhwN9O+tukAlrNpJg1SzDH4QW/URgNYgZTkjA4UkwJUgGXng+6DX1zLfmoymdXo17xh5zmRJ6Q42BWCfc2oJfdAr+Yv+AP9Cb7OJ3H/2JG1HNGz/84klThPVCc=);dashed=1;dashPattern=1.00 2.00;strokeColor=#6b859a;points=[[1,0.5,0],[0.5,0,0],[0.5,0.5,0],[0.5,0.5,0]];labelBackgroundColor=none;rounded=0;html=1;whiteSpace=wrap;fontStyle=1;fontColor=#0a0a0a;" parent="1" vertex="1">
                        <mxGeometry x="1171" y="819" width="200" height="200" as="geometry"/>
                    </mxCell>
                </UserObject>
                <UserObject label="&lt;div style=&quot;font-size: 1px&quot;&gt;&lt;p style=&quot;text-align:left;margin-left:0;margin-right:0;margin-top:0px;margin-bottom:0px;text-indent:0;vertical-align:bottom;direction:ltr;&quot;&gt;&lt;font style=&quot;font-size: 14.11px; font-family: &amp;quot;Segoe UI Semibold&amp;quot;; direction: ltr; letter-spacing: 0px; line-height: 120%; opacity: 1;&quot;&gt;&lt;span&gt;ADDS&lt;br&gt;&lt;/span&gt;&lt;/font&gt;&lt;/p&gt;&lt;/div&gt;" tags="Background" id="RrnTrXlartnsTWybDFfY-112">
                    <mxCell style="verticalAlign=bottom;align=left;overflow=width;vsdxID=10554;fillColor=#f2f2f2;gradientColor=none;shape=stencil(nZBLDoAgDERP0z3SIyjew0SURgSD+Lu9kMZoXLhwN9O+tukAlrNpJg1SzDH4QW/URgNYgZTkjA4UkwJUgGXng+6DX1zLfmoymdXo17xh5zmRJ6Q42BWCfc2oJfdAr+Yv+AP9Cb7OJ3H/2JG1HNGz/84klThPVCc=);dashed=1;dashPattern=1.00 2.00;strokeColor=#6b859a;points=[[1,0.5,0],[0.5,0,0],[0.5,0.5,0],[0.5,0.5,0]];labelBackgroundColor=none;rounded=0;html=1;whiteSpace=wrap;fontStyle=1;fontColor=#0a0a0a;" parent="1" vertex="1">
                        <mxGeometry x="1191" y="839" width="160" height="140" as="geometry"/>
                    </mxCell>
                </UserObject>
                <UserObject label="" tags="Background" id="RrnTrXlartnsTWybDFfY-113">
                    <mxCell style="vsdxID=10570;fillColor=none;gradientColor=none;strokeColor=none;spacingTop=-3;spacingBottom=-3;spacingLeft=-3;spacingRight=-3;points=[];labelBackgroundColor=none;rounded=0;html=1;whiteSpace=wrap;fontStyle=1;fontColor=#0a0a0a;" parent="1" vertex="1">
                        <mxGeometry x="558" y="805" width="29" height="29" as="geometry"/>
                    </mxCell>
                </UserObject>
                <mxCell id="RrnTrXlartnsTWybDFfY-114" style="vsdxID=10571;fillColor=#59b4d9;gradientColor=none;shape=stencil(jZLdDoIwDIWfZrdktCLeI74HkSGLCGSAwtu7pRjo8O+uPTvt1y4VmHRl1ioBsutNc1UPnfelwKMA0HWpjO5tJDAVmBSNURfTDHVOeZs5p4tuzd11GKkulNLVgJwojyg9kfc8GDKHvnsW4jg47EgaYSNN4JWNyChyQm74gAUIwj0HLy1nhuTI9WDIHfjPpjKIYk5cDfFiWilGzv2x6Ffm+udC3s7/yAm2Q6HvebuoDZZbKHRV0Smt3/3bsRLdHaZP);strokeColor=none;spacingTop=-3;spacingBottom=-3;spacingLeft=-3;spacingRight=-3;points=[];labelBackgroundColor=none;rounded=0;html=1;whiteSpace=wrap;fontStyle=1;fontColor=#0a0a0a;" parent="RrnTrXlartnsTWybDFfY-113" vertex="1">
                    <mxGeometry x="15" y="4" width="10" height="10" as="geometry"/>
                </mxCell>
                <mxCell id="RrnTrXlartnsTWybDFfY-115" style="vsdxID=10572;fillColor=#59b4d9;gradientColor=none;shape=stencil(nZHNDsIgEISfZq9ku1C151rfo0mpEBEain9vL0iM1cRqepvd/WYPM8DrUbWDBMIxeHeQF90FBXwLRNoq6XWICngDvO6dl3vvTrbL89AmMqmjO6cP1+xbIytWyUV4yxt8TLsMG20nsKjYRrzBAlkpvhuoYiX9+x2XgQXOoM/jIngG/RFbFK/Ae21M7mt6/ywornK5vLkD);strokeColor=none;spacingTop=-3;spacingBottom=-3;spacingLeft=-3;spacingRight=-3;points=[];labelBackgroundColor=none;rounded=0;html=1;whiteSpace=wrap;fontStyle=1;fontColor=#0a0a0a;" parent="RrnTrXlartnsTWybDFfY-113" vertex="1">
                    <mxGeometry x="10" y="16" width="18" height="13" as="geometry"/>
                </mxCell>
                <mxCell id="RrnTrXlartnsTWybDFfY-116" style="vsdxID=10573;fillColor=#FFFFFF;gradientColor=none;fillOpacity=20;strokeOpacity=20;shape=stencil(fVJdD4IwDPw1e226Vhg8K/4PoyCLCGTi178X0hGpMbz1rtfdbZ3h7a0+9KUhvA2hu5RPfxpqwztD5Nu6DH4YK8OF4W3VhfIcunt7EtwfJuVUXbvHdMJL5nCaIHwLSgTuRXm8B5FarY3QOSAn1IuE4hSsjapI5TlsOKo4DuaQRuodKYvKufHtIuPcnFNacGsxc4aEdFTUMTMHuNExUUfMEJJUR1x9muXF/3ui9iMCm2pP1H56F2PxXWHlm0Z+wLL/u/KRku/CxQc=);strokeColor=none;spacingTop=-3;spacingBottom=-3;spacingLeft=-3;spacingRight=-3;points=[];labelBackgroundColor=none;rounded=0;html=1;whiteSpace=wrap;fontStyle=1;fontColor=#0a0a0a;" parent="RrnTrXlartnsTWybDFfY-113" vertex="1">
                    <mxGeometry x="15" y="4" width="6" height="10" as="geometry"/>
                </mxCell>
                <mxCell id="RrnTrXlartnsTWybDFfY-117" style="vsdxID=10574;fillColor=#FFFFFF;gradientColor=none;fillOpacity=20;strokeOpacity=20;shape=stencil(nZHdCsIwDIWfJrclbXDufs73GKyzxdqOrk59e1vDcAj+4N1JzpdAToCayXSjBoVTiuGoL7ZPBmgHSllvdLQpK6AWqBlC1IcYzr7neuwKWdQpzGXDleeqjUAqUwpv3MFHtWfYWb+C8T9Q4ge0rsRW/o4v5gKTFFi/x7+cl8UzmME6x7mu/dcgc4ufQO0d);strokeColor=none;spacingTop=-3;spacingBottom=-3;spacingLeft=-3;spacingRight=-3;points=[];labelBackgroundColor=none;rounded=0;html=1;whiteSpace=wrap;fontStyle=1;fontColor=#0a0a0a;" parent="RrnTrXlartnsTWybDFfY-113" vertex="1">
                    <mxGeometry x="10" y="16" width="8" height="13" as="geometry"/>
                </mxCell>
                <mxCell id="RrnTrXlartnsTWybDFfY-118" style="vsdxID=10575;fillColor=#a0a1a2;gradientColor=none;shape=stencil(nZLRDoMgDEW/pq8EaDTu2bn/MBEHGQODzG1/PxhZpi5q3NttOW1KewHLXtadAE577+xF3FXjJeAROFdGCqd8UIAVYNlaJ87O3kyT4q6OZFRXO8QOj1THi1jC6TOFOSPs8M6cEq2VGdEZJ9mEZ5Qu07iLphM029N3hf2ZeIWd7QILQvNl+vOZP/GNTW/dJYjvSVuldXLE+H1ugZBK9sHqBQ==);strokeColor=none;spacingTop=-3;spacingBottom=-3;spacingLeft=-3;spacingRight=-3;points=[];labelBackgroundColor=none;rounded=0;html=1;whiteSpace=wrap;fontStyle=1;fontColor=#0a0a0a;" parent="RrnTrXlartnsTWybDFfY-113" vertex="1">
                    <mxGeometry y="6" width="11" height="7" as="geometry"/>
                </mxCell>
                <mxCell id="RrnTrXlartnsTWybDFfY-119" style="vsdxID=10576;fillColor=#a0a1a2;gradientColor=none;shape=stencil(UzV2Ls5ILEhVNTIoLinKz04tz0wpyVA1dlE1MsrMy0gtyiwBslSNXVWNndPyi1LTi/JL81Ig/IJEkEoQKze/DGRCBUSfoYEBSI+RQSWED+G5QZTmZObhUQrjY1VMtlISHICiFMhA+DEtMycHEkTI8uhhAhSChKexKwA=);strokeColor=none;spacingTop=-3;spacingBottom=-3;spacingLeft=-3;spacingRight=-3;points=[];labelBackgroundColor=none;rounded=0;html=1;whiteSpace=wrap;fontStyle=1;fontColor=#0a0a0a;" parent="RrnTrXlartnsTWybDFfY-113" vertex="1">
                    <mxGeometry x="10" width="1" height="10" as="geometry"/>
                </mxCell>
                <UserObject label="&lt;div style=&quot;font-size: 1px&quot;&gt;&lt;p style=&quot;text-align:left;margin-left:0;margin-right:0;margin-top:0px;margin-bottom:0px;text-indent:0;vertical-align:middle;direction:ltr;&quot;&gt;&lt;font style=&quot;font-size: 14.11px; font-family: &amp;quot;Segoe UI Semibold&amp;quot;; direction: ltr; letter-spacing: 0px; line-height: 120%; opacity: 1;&quot;&gt;&lt;span&gt;ER&lt;br&gt;&lt;/span&gt;&lt;/font&gt;&lt;font style=&quot;font-size: 14.11px; font-family: &amp;quot;Segoe UI Semibold&amp;quot;; direction: ltr; letter-spacing: 0px; line-height: 120%; opacity: 1;&quot;&gt;&lt;span&gt;Gateway&lt;/span&gt;&lt;/font&gt;&lt;font style=&quot;font-size: 14.11px; font-family: &amp;quot;Segoe UI Semibold&amp;quot;; direction: ltr; letter-spacing: 0px; line-height: 120%; opacity: 1;&quot;&gt;&lt;br&gt;&lt;/font&gt;&lt;/p&gt;&lt;/div&gt;" tags="Background" id="RrnTrXlartnsTWybDFfY-126">
                    <mxCell style="verticalAlign=middle;align=left;overflow=width;vsdxID=10583;fillColor=#b1dafb;gradientColor=none;shape=stencil(nZBLDoAgDERP0z3SIyjew0SURgSD+Lu9kMZoXLhwN9O+tukAlrNpJg1SzDH4QW/URgNYgZTkjA4UkwJUgGXng+6DX1zLfmoymdXo17xh5zmRJ6Q42BWCfc2oJfdAr+Yv+AP9Cb7OJ3H/2JG1HNGz/84klThPVCc=);strokeColor=#6b859a;points=[[1,0.5,0],[0.5,0,0],[0.5,0.5,0],[0.5,0.5,0]];labelBackgroundColor=none;rounded=0;html=1;whiteSpace=wrap;fontStyle=1;fontColor=#0a0a0a;" parent="1" vertex="1">
                        <mxGeometry x="663" y="887" width="100" height="40" as="geometry"/>
                    </mxCell>
                </UserObject>
                <UserObject label="&lt;div style=&quot;font-size: 1px&quot;&gt;&lt;/div&gt;" tags="Background" id="RrnTrXlartnsTWybDFfY-127">
                    <mxCell style="verticalAlign=middle;align=center;overflow=width;vsdxID=10584;fillColor=#ffffff;gradientColor=none;shape=stencil(nZBLDoAgDERP0z3SIyjew0SURgSD+Lu9kMZoXLhwN9O+tukAlrNpJg1SzDH4QW/URgNYgZTkjA4UkwJUgGXng+6DX1zLfmoymdXo17xh5zmRJ6Q42BWCfc2oJfdAr+Yv+AP9Cb7OJ3H/2JG1HNGz/84klThPVCc=);strokeColor=#6b859a;points=[[1,0.5,0],[0.5,0,0],[0.5,0.5,0],[0.5,0.5,0]];labelBackgroundColor=none;rounded=0;html=1;whiteSpace=wrap;fontStyle=1;fontColor=#0a0a0a;" parent="1" vertex="1">
                        <mxGeometry x="663" y="927" width="100" height="20" as="geometry"/>
                    </mxCell>
                </UserObject>
                <UserObject label="" tags="Background" id="RrnTrXlartnsTWybDFfY-128">
                    <mxCell style="vsdxID=10;fillColor=none;gradientColor=none;image;aspect=fixed;image=data:image/png,iVBORw0KGgoAAAANSUhEUgAAAgAAAAIACAYAAAD0eNT6AAAAAXNSR0IArs4c6QAAAARnQU1BAACxjwv8YQUAAAAJcEhZcwAAHYcAAB2HAY/l8WUAACmVSURBVHhe7d0ve91Ytifg/poDBhS4oMAFDRo0aNCgwQUFGjRo0KCASYGAgICAAgYBBgYBAQYBBgYGBgEBIb5nOXOmUqoV++hIW9p/3ueZl6z7TLWjI+3105a0958eHx8BgMGkRaANX758eby7u///Pnz48Hj9/v2Td1dXj2/fvl0k/hvH/977g2//tz5//nz4E/K/C6hfWgTqcH//tdlG840mfGzMP//8c1XevHnz9HddX18//Z13d3dPf/f03wPUIy0C24k76WOTP961/3xxkTbaVj3NJrx79//Cwf3jp0+fDv/0/HgA20iLQBnR/KIJ9tro55oGg3ikMT1mQBlpEVgupu9vbm6eGtzr12/SBsgfvXr9+vHy8vLpfQaPEaCctAjME3eut7e3T8/An+7sk8bG+eIdg6urq8ePHz96+RBWkhaB5x0bfjQld/fbi1mCeIwiEMD50iLwexp+3QQCmC8tAo9/ijfV4zn0219/TZsO9YqQFl9VPDw8HH7K/PeF0aVFGFW8dBZ3+XFHmTUW2vPLL788zQ7EDM7094aRpUUYSUwbx1vnFxe/pA2Evvz6669PX2d4VMDo0iL0Lu4Go+mP/h3+6L6GgY/WH2BIaRF6FNP7MRXsTp8/OATBCIQxGzQ9b6BXaRF6ES/yxTP9eA6cDvwwEQExFm+K/Qym5xP0JC1C6+JOLhaPyQZ4OFW8DBrvC3hEQI/SIrQoXuqKlfjc7bO2p1mBqyubGNGVtAgtiWf7Ty/0JQM3rC2WevauAD1Ii1C7mJKNqVnf67OXmGmKXQx9Tkir0iLUKqZgvclPbWIGKnZ/nJ6vULO0CLWJKVe77FG740uD0/MXapQWoQYxtRrruXupj9Z4aZAWpEXYUzT++HbfKn30INYUEASoUVqEPWj89EwQoDZpEbYUb/TH29Re7GMEggC1SIuwBY2fkQkC7C0tQmkfPnzQ+OHi4mn1SksNs4e0CKXEBisW74Hfiy9dYlvi6fUCJaVFWFtMdcbe69ngB3wVG1hZUIitpEVYy9Nz/utrb/bDDLGyoCWGKS0twhpiStMiPnCmQ2iOhbCm1xWsJS3CEnHn8tZ0P6wiHgv4WoAS0iKcK+76vd0PKzMbQAFpEeZy1w/lxRc0XhJkLWkR5nDXD9uKF2un1yHMlRbhFPGGv7t+2EfMBng3gCXSIrwkpiG94Q87u7iwgBBnS4vwnHgZKR2MgF3EvgLT6xRekhYhY8of6uWRAHOlRZgy5Q8N8EiAGdIifOvm5iYfbIAqvbu6Oly6+fUMR2kRjq4OA0k2wAB1i8d10+sZvpUWIcSGJNnAArTh9es3NhXiu9IiY4uX/WL98WxAAdry6tUrLweSSouMKwaKeJs4G0iANsVKnXd3lhDm99IiY3p4eLCkL/Tq4uIQAu4Ol3p+/TOetMh44s5f84fOCQF8Iy0ylqdp/1ev8gED6MtTCPA4AAFgeJo/jCdm++KR33Q8YCxpkTHE2/7xmVA2QAB9EwJIi/RP8wd8Iji2tEj/3r59mw4IwFgiBMQNwXSMoH9pkb7FOuHZQACMKRb+mo4T9C8t0q8PHz6kAwAwtl/tHTCctEif4vvf7MIHCLH513TcoF9pkf7E277x/W920QMcxSzhdPygT2mRvsRuYL71B051e3t7GDry8YR+pEX6Ymc/YJaLi8f7e6sF9i4t0g97+gPniIWCrBHQt7RIH66vr9MLG+AUsTW4NQL6lRZp38ePH9MLGmCOWDRsOr7Qh7RI2+LZnTf+gbXEo8TpOEP70iLtimd2v/xiX39gXfFIcTre0La0SLus8Q+UEouJTccc2pUWadP79+/TixZgDTG7GOuKTMce2pQWaY+V/oAt2DOgH2mR9sTnOtnFCrC2m5uPh2EnH4toR1qkLb73BzZ1cWGRoA6kRdpxd3efX6AABcUS49PxiLakRdoQK3TZ5AfYy/X794ehKB+fqF9apA3v3r1LL0qArdg0qF1pkfpZ6heoQcxCTscn2pAWqVt8h2u1P6AWMRs5HaeoX1qkbm9//TW9CAH2cnt7exie8jGLOqVF6nVzc5NefHCqWC76e+LN7uz/D7zk4sIqga1Ji9QpLi6r/fGcaOKxc1u8nR3rtsdnoktf0or/Rvy34r95dXX19L9h4SkyVglsS1qkTnFxZRcdY4k7rWjCsQDUhw8fnpr8XndesRhM/O/HPhRxfno3BY8C2pEWqc/THv/JxUb/Xr9+8/jucOcdy6+2sPpa/I3xlUrMFnikMJ44X6fnBHVKi9QnLqrsYqMvT3f3hzvpr1P4/XxffZwlEAjGEDNT03OA+qRF6uKb/77F8/S4W+6p4T8nHlfEbMbTIy3vtHQpHgXFSqXT3566pEXq4rlqf+IuP+6SbKjy+Kd4ZhyPOJznfYlQO/2tqUtapB4xbZpdXLQlpvZjsZSYzXFn9H0PDw9PYSCOV3YcaYgdA6uXFqmDz/7aF8+87Z1+njhu3hlom88C65YWqUPcCWUXFXWLqez4RM/dzzriOJoVaJfNguqVFtlfTIVmFxP1irudmOKf/pasx6xAe3wWWK+0yP6s99+GuCuNT/YsgbqtCMgWxmqHYFyntMi+4q3o7CKiIhcXT43fC337EgTaEI/Fpr8d+0uL7Ms66xU7NP74vMkdf11iDYVYHjn9zahCBObp78a+0iL7iW/Ds4uHnWn8TYgg4B2BSh2uIddPXdIi+7EYSn00/vbEYzQzafWxOFBd0iL7sNd/XaKB+ISpbfE5ZvbbspOLi8PPkv9WbC8tsg8b/tQjGsf096FNd3d3lhmuiI2C6pEW2Z43/+vgrr9P8bVGLMWc/eZsyxcB9UiLbM+nTPtz19+/mA2wouD+4oZn+tuwvbTItqz6ty93/WOJFzottLWv+FJj+ruwvbTItqz5vx+blYzLTpv7ihuf6W/CttIi24m7kXgzNrtAKMsnScQSta6/fVxeXh5+gvx3YRtpke3E6ljZxUFZ8cnl9LdgTPH4x3sBO7Aw0O7SItvxedL27M/PVExHCwHbMwu3r7TINiz8sz3Nn+8RArbnk8B9pUW2YeGfbWn+vEQI2J6FgfaTFinPwj/bMshwqlgrIDuHKCNuhKa/AdtIi5Rn4Z/txApw0+MPz7Er57YsDLSPtEhZnz59Si8C1mfBEc4Vn6ll5xTrsx7HPtIiZfn0bxvxgpHPjFjCezrbca1uLy1Sln3KtxHPcqfHHuaI2TovBW7D2hzbS4uUE4uOZCc/64rllafHHs5xd3e4Zq0WWNzbt28Phzv/DSgjLVJO7DiXnfysJ2ZYpscdlvBS4DY8BthWWqScV69epSc+67GzHyXYQbA8jwG2lRYpw/R/eT75o5S4O/U+QFkeA2wrLVKGbX8Ls7kIhT3tHpide6zGNbydtEgZNv4pK/Z3nx5zWJv1AcryGGA7aZH1Pb1JnJzsrMOmImwl7lCF+XI8BthOWmR9pv/LspQoW7KXR1keA2wjLbI+dwzlWO6XPcQLp9n5yHIeA2wjLbIuu4uVFVu4To85lOargHI8BthGWmRd7hTK8dkfe7JAUDkeA5SXFlmXu4RyYq326fGGLXm8V4bHAOWlRdZj+r8cW4hSAy8EluExQHlpkfVcefu/mPi0cnq8YQ+2DS7g4uJwaPPjzTrSIusxMJQRx3V6rGEvlvkuQ8gvKy2yji9fvqQnNcvFkqzT4w17ikdS2bnK+azuWVZaZB2eDZZh1T9qFJ+jZucr5/OeT1lpkXV4/l9GfHo1PdZQA7MA64ovqKbHmPWkRdYRb7FmJzUL2PGPitnzY30W+ionLbKOaFbZCc35YlZlepyhJl78XZf1AMpJiyznTqAMC/9Qu5ubj+m5y3ms9llOWmS56/fv05OZ8716/fpwaPPjDTWxOuB6Xr16dTik+XFmmbTIcp7/r88nQbTi+vo6PYc5j5m/MtIiy3n+vz6DAK2IF1WNAeuJT6qnx5jl0iLLeP6/Pnv+05rLy8v0XGY+L/+WkRZZxhah6zP9T2tsBLYeS3+XkRZZxmIg6/PtPy2yFfh6Ymn16fFlmbTIMi76ddkWlFbFJ2zZOc18NgZaX1rkfNYDX5+FQGiVxwDr8RhwfWmR88UuddnJy/lM/9MyM4LriJcqp8eWZdIi5/P977pM/9M6jwHW4Uug9aVFzucFwHWZ9qN1HgOswzbg60uLnC+Wq81OXs5jJzB64DHAOnwJsK60yPmyk5bz2AucXlgUaB1uCNaVFjnP/b0VANcUj1OmxxhaZHGwdcRL1tNjy/nSIueJz9Wyk5bzxLaq02MMLfJ58Dq8E7SutMh5Yr3q7KTlPDb/oSc2B1runT0BVpUWOY/nfOuxBzi9sUX4cj4LXlda5DzxnWp20jJffDs9Pb7Qsuv379NzndO5MVhXWuQ88Z1qdtIyn/2/6U2c09m5zjzT48r50iLnyU5WzuN7X3oT53R2rjOPd4PWkxaZL07K7GRlvlhMaXp8oQexr312znM6s4PrSYvMF1tVZicr89n0g155UXi5WFNhelw5T1pkvvhmPTtZmc+3vvTKZmHLxefW0+PKedIi80XTyk5W5ovNU6bHF3pgsbDl3lohdDVpkfksArSez58/Hw5pfpyhZR4VLmdb4PWkReaz5/c6bPlJzyLcZuc9p7MWwHrSIvPFtFR2sjKP6T16Z0ngZewSup60yHyW+VyHF3zoXXzmmp37nG56TDlPWmS+mJbKTlTmsd0nvYttrrNzn9N5T2gdaZH5YloqO1GZJ7ZNnR5b6IkXhpezGuA60iLzZScpM11cHA5lfnyhFzYFWu7+/v5wKPPjy+nSIvN4s3cdlgBmBNYCWC4+p5weV+ZLi8xjH4B1+AKAEVg1dLk4htPjynxpkXkEgHXEWgrTYwu9EQCWEwDWkRaZRwBYRzwbnR5b6I3VAJcTANaRFpnHBb0OFzUjMF4sZ6xYR1pkHhf0OrzYwwjiDfbs/Od0AsA60iLzCADr8G0vI/DIcLn4kmJ6XJkvLTKPALCO6XGFHgkAy3lfaB1pkXkEgOXsAsgoBIDlBIB1pEXmub29TU9STmePb0YhACwnAKwjLTJPvJCSnaSc7vLy8nAo8+MLPREAlhMA1pEWmUcAWM4iQIxCAFhOAFhHWmQeAWA5AYBRCADLCQDrSIvMIwAsd319fTiU+fGFnggAywkA60iLzCMALOeCZhQCwHLGi3WkReYRAJZzQTMKAWA548U60iLzCADLWdmLUQgAywkA60iLzCMALBfHcHpcoUcCwHICwDrSIvMIAMsJAIxCAFhOAFhHWmQeAWC5u7u7w6HMjy/0RABYTgBYR1pkHgFgOVsBMwoBYDkBYB1pkXkEgOUEAEYhACwnAKwjLTKPALCcAMAoBIDlBIB1pEXmEQCWEwAYhQCwnACwjrTIPALAcgIAoxAAlhMA1pEWmUcAWE4AYBQCwHICwDrSIvMIAMsJAIxCAFhOAFhHWmQeAWA5AYBRCADLCQDrSIvMIwAsJwAwCgFgOQFgHWmReQSA5QQARiEALCcArCMtMo8AsJwAwCgEgOUEgHWkRea5PgSAf/7ymgXe3dw9fnj4DN27vn14/OniFQtcXgsAa0iLI7v//OXpIr28+/T4+uPD488f7h//eX33+Pd3t49//vUjwNn+6+3Hx//z5oZCfjwc3xirQ4zbr24eHt8eAleM6XefvhyG+HzcH1VaHMXDly+P1/efn06SOFn+cplftABL/fdB1rTY1p8P4/y/398/BYPbwUNBWuxZNPy4q3dHD2zph6QZsb8f3t48/s/V3eObjw+PMQM87Rk9S4s9iZ/z6u7T438Oic8dPrCHmJrOmg/1+evl7VMYiBnib3tJj9JiDyLJ/XLzoOkDuzL1366YKb68/XRoKXmfaV1abFk804m7/exCBNhaTDFnzYV2RIjrMQikxRbFG57xIl92AQLs4ceDrKHQpt6CQFpsSbyzEVP92cUHsKf/mzQR2hdfEtw8fD60oLwvtSIttuLXQxL7m7f5gQqZ+u/fxc3949Orgkl/akFarF0ccM/5gVp58W8c8VvHQkPf9qhWpMWaxdv98c1mdtEB1MDU/3hiYaFpv6pdWqxVpKz4RjO74ABqYLnfccXM9LRv1Swt1ijW5s8uNoBamPon1g74uqBg3stqkhZro/kDLTD1T4iZ6hZeDkyLNdH8gRaY+udb8a5a7SEgLdYiNu7JLjSAmpj6JxO7Dk77Wk3SYg3ibX8v/AEtsNMf3xO7z077Wy3S4t5i2uQfV5o/UD87/fGS9/d1rhOQFvdmkR+gBTH178U/XhIhscbthdPinmJ53+xCA6iN5X45VbwUOO13e0uLe4mEZG1/oAV2+mOu2lYLTIt7iZclsgsNoDam/pkrHgXU9GlgWtxDbK2YXWQAtTH1z7lq+iogLe7BBj9AC3zzzxIxc1TLC4FpcWsW/AFaYeqfpWqZBUiLW3P3D7TAcr+soZZZgLS4Jc/+gRaY+mdNFzf7zwKkxS3FWsnZxQZQE1P/rKmGLwLS4lZivf/sQgPK+ce728efPHabxXK/lLD3ugBpcStvPj6kFxtQRjT/h0PwPvw/IeBEpv4pJRa+m/bFLaXFrfx0bQCCrRyb//H6EwJOY6c/StrzZcC0uAXT/7CdafM/EgKeZ+qf0i5vP/3hutxKWtyC6X/Yxvea/5EQkLPTH1vYc5OgtLiFf5r+h+Jeav5HQsAfWe6XLUTIfLpCk+uytLRYWvxj/3KZX3TAOk5t/kdCwG/s9MeWPjx8PlyC+XVZUlosLf6x2UUHrGNu8z8SAr4y9c+WXt3s8zlgWiwt/rHZRQcsd27zPxo9BFjul639/XDNTq/DLaTF0qz9D2Usbf5Ho4YA3/yzh5hxml6DW0iLpXn+D+tbq/kfjRgCTP2zl9tP6127p0qLJd0d/pHZhQecb+3mfzRSCDD1z572WA8gLZZk739YV6nmfzRCCDD1z9722B0wLZZkASBYT+nmf9R7CLDcL3uLpfGn111pabGk/9j+F1axVfM/6jUEWO6XGvz1cvsvAdJiSVYAhOW2bv5HvYUAU//UYo8vAdJiSXYAhGX2av5HPYUAy/1Sk6erOrnmSkmLJcWCB9mFCLxs7+Z/1EMIMPVPbWKX3Om1VlJaLOlvAgCcpZbmf9R6CPDNP7XpPgBkFyLwvNqa/1GrIcDUPzXaelOgtFhSdjEC31dr8z9qLQR48Y9adR0AYnojuyCBXO3N/6ilEGDqn1pd3W27GmBaLEUAgNO10vyPWggBlvulZlsvB5wWS4npjeyiBH6vteZ/VHMIMPVP7d7ePhwuo/zaKiEtliIAwMtabf5HtYYAU//U7tVNxwHg8u5TemECX7Xe/I9qCwGm/mmBAACD6qX5H9USAkz90woBAAbUW/M/qiEE2OmPVggAMJhem//RniHAcr+0RACAgfTe/I/2CAGm/mmNAACDGKX5H20dAiz3S2sEABjAaM3/aKsQ8ONBNsBCzQQA6Nyozf9oixDgm39aJABAx0Zv/kclQ4Cpf1olAECnNP/fKxECvPhHywQA6JDmn1s7BJj6p2UCAHRG83/eWiHAcr+0TgCAjmj+p1kaAkz90wMBADqh+c+zJASY+qcHAgB0QPM/zzkhwNQ/vRAAoHGa/zJzQoCpf3oiAEDDNP91nBoC7PRHTwQAaJTmv66XQoCd/uiNAAAN0vzL+F4IiKl/L/7RGwEAGqP5l5WFAMv90iMBABqi+W/j2xBgpz96JQBAIzT/bR1DgKl/eiUAQAM0/33EIf/r5W06eELrBAConOa/LyGAXgkAUDHNvw5CAD0SAKBSmn9dhAB6IwBAhTT/OgkB9EQAgMpo/nUTAuiFAAAV0fzbIATQAwEAKqH5t0UIoHUCAFRA82+TEEDLBADYmebfNiGAVgkAsCPNvw9CAC0SAGAnmn9fhABaIwDATi4+3D++/fhQrff3nw+XUX5t7SH+nuzvXOLNQQyCa/n58JtmAy3UKM7Z6XVWUlosRQCA80VAmV5Te4q/J/s7l7DTHyMTAIBU7wHgv97a55+xCQBAqucA8N8H2YAIIxEAgFTPAcDUPwgAwHf0GgBM/cNXAgCQ6jEAmPqH3wgAQKrHAPBDMgjCqAQAINVbAPjR1D/8jgAApHoKAKb+4Y8EACDVUwD44W0+AMLIBAAg1UsAMPUPOQEASPUSAHzzDzkBAEj1EABM/cP3CQBAqvUA4MU/eJ4AQJNiL/3YzjX7v7GO1gOAqf/5oiEITuMQAGhSBID4jYWAcloOAJb7ne/YDASAcQgANOkYAIIQUEarAUADm+/bRuD4jUMAoEnfBoAgBKyv1QBg6n+eaRMQAMYhANCkaQAIQsC6WgwApv7nyRqAADAOAYAmZQEgCAHraS0AaFzzfG/wdxzHIQDQpO8FgCAErKO1AGCnv9M9N/ALAOMQAGjScwEgCAHLtRQALPd7upcGfQFgHAIATXopAAQhYJlWAoCGdbpTBnzHcxwCAE06JQAEIeB8rQQAy/2e5tTBXgAYhwBAk04NAEEIOE8LAeDHg2xg4/fmDPQCwDgEAJo0JwAEIWC+FgKAb/5fNneQFwDGIQDQpLkBIAgB89QeAEz9v+ycAV4AGIcAQJPOCQBBCDhdzQFAk3rZuYO7YzsOAYAmnRsAghBwmpoDgKn/5y0Z2AWAcQgANGlJAAhCwMtqDQCW+33e0kFdABiHAECTlgaAIAQ8r8YAoDk9b40B3TEehwBAk9YIAEEI+L4aA4Cp/+9bazAXAMYhANCktQJAEAJytQWAnw9/TzaIse5ALgCMQwCgSWsGgCAE/FFtAeDf7+/SQWx0aw/iAsA4BACatHYACELA79UWAP4lAPxBiQFcABiHAECTSgSAIAT8RgCoW6nBWwAYhwBAk0oFgCAEfCUA1KvkwC0AjEMAoEklA0AQAgSAWpUetAWAcQgANKl0AAijhwABoD5bDNgCwDgEAJq0RQAII4cAAaAuWw3WAsA4BACatFUACKOGAAGgHlsO1ALAOAQAmrRlAAgjhgABoA5bD9ICwDgEAJq0dQAIo4WAn67uHuPfvLUYlDJ/vbxNB7Gexb97eh6WJgCMY+vzKy2WIgD0a48AEKJBZX8P67DT32/2aP5BABiHAECT9goAQQgoQ+P5zV7NP/gdxiEA0KQ9A0AQAtZnp7+v9mz+QQAYhwBAk/YOAEEIWM+Ppv6f7N38gwAwDgGAJtUQAIIQsJyG81UNzT/4PcYhANCkWgJAEAKW+SEZmEZTS/MPAsA4BACaVFMACELAeUz919X8gwAwDgGAJtUWAIIQMN/oL/7V1vyDADAOAYAm1RgAghBwuh/e5oPSKGps/kEAGIcAQJNqDQBBCHjZ6E2m1uYfBIBxCAA0qeYAEISA54089V9z8w8CwDgEgA5EM4yGM5LL20+Hnzj/3WsRf2f2e41u5OV+a2/+4c3hvI2/cyQj7jMR4t8+/f1LSouljBIA/nV9d/jn5seAfQkBvzfy3eXWgy2ns9PkNtJiKQIANRACfjPq1L/mXzcBYBtpsRQBgFoIAeNO/Wv+9RMAtpEWSxEAqMnIIWDUqX/Nvw0CwDbSYikCALUZNQSMuNyv5t8OAWAbabEUAYAajRYCRlzuV/NviwCwjbRYigBArUYJASNO/Wv+7REAtpEWSxEAqNkIIWC05X41/zYJANtIi6UIANSu5xDw40E26PRK82+XALCNtFiKAEALeg0BI33zr/m3TQDYRlosRQCgFb2FgJGm/jX/9gkA20iLpQgAtKSXEDDSi3+afx8EgG2kxVIEAFrTQwgYZepf8++HALCNtFiKAECLWg4Boyz3q/n3RQDYRlosRQCgVS2GgFGm/jX//ggA20iLpQgAtKy1EDDC1L/m3ycBYBtpsRQBgJa1FABGmPrX/PslAGwjLZYiANCqlpq/qX9aJwBsIy2WIgDQotam/kfa6U8I6JMAsI20WIoAQGtaa/52+qMHAsA20mIpAgAtaa35j7jT35EQ0BcBYBtpsRQBgFa01vzDaDv9TQkB/RAAtpEWSxEAaEGLzX+0nf6+RwjogwCwjbRYigBA7Vps/mGknf5eIgS0TwDYRlosRQCgZq02/9Gn/jNCQNsEgG2kxVIEAGrVavMf+cW/lwgB7RIAtpEWSxEAqFGrzT+Y+n+eENAmAWAbabEUAYDatNz8R9npbykhoD0CwDbSYikCADVpufmb+p9HCGiLALCNtFiKAEAtWm7+wdT/fEJAOwSAbaTFUgQAatB68zf1fz4hoA0CwDbSYikCAHtrvfmb+l9OCKifALCNtFiKAMCeWm/+YaSd/koSAuomAGwjLZYySgD46+XtUwgYyc8f7g8/cf6716CH5j/iTn8lCQH1EgC2kRZLGSUAjOgf724PP3H+u++th+YfU/9e/FtfCyHgn4eA/ffD9TWSUcOuAECTag0APTT/YLnfcmoPAd77GIcAQJNqDAC9NH87/ZVXcwgQAMYhANCk2gJAL80/mPrfRq0hQAAYhwBAk2oKAD01f9/8b6vGECAAjEMAoEm1BICemr+Bfx+1hQDnwTgEAJpUQwDoqfkHU//7qSkECADjEABo0t4BoLfmb+p/f7WEAAFgHAIATdozAPTW/A349aghBDgfxiEA0KS9AkBvzT+Y+q/L3iFAABiHAECT9ggAPTZ/y/3Wac8QIACMQwCgSVsHgB6bv4G+bnuFAOfFOAQAmrRlAOix+QfL/dZvjxAgAIxDAKBJWwWAXpv/KVP/sctkDBC1iL8n+zt7F//26XlZkgAwjq3PrbRYigDQry0CQK/NP5zy4l9skTo9JnsadcvWsOVALQCMQwCgSaUDQM/N/9SpfwGgLlsN1gLAOAQAmlQyAPTc/OcM7gJAfbYYsAWAcQgANKlUAOi5+Yc53/wLAHUqPWgLAOMQAGhSiQDQe/Ofu9yvAFCvkgO3ADAOAYAmrR0Aem/+5wzqAkDdSg3eAsA4BACatGYA6L35h3OW+xUA6ldiABcAxiEA0KS1AsAIzf/cnf4EgDasPYgLAOMQAGjSGgFghOa/ZDAXANqx5kAuAIxDAKBJSwPACM0//JBc9KcSANqy1mAuAIxDAKBJSwLAKM1/6U5/AkB71hjQBYBxCAA06dwAMErzX2MQFwDatHRQFwDGIQDQpHMCwCjNP6yx058A0K4lA7sAMA4BgCbNDQAjNf8fD7KLfS4BoG3nDu4CwDgEAJo0JwCM1PzDOd/8ZwSA9p0zwAsA4xAAaNKpAWC05r/G1P+RANCHuYO8ADAOAYAmnRIARmv+aw/cAkA/5gz0AsA4BACa9FIAGK35h7Wm/o8EgL6cOtgLAOMQAGjScwFgxOZ/7nK/zxEA+nPKgC8AjEMAoEnfCwAjNv9SA7YA0KeXBn0BYBwCAE3KAsCIzT+sPfV/JAD067mBXwAYhwBAk6YBYNTmX2Lq/0gA6Nv3Bn8BYBwCAE36NgCM2vxLD9QCQP+yBiAAjEMAoEnHADBq8w9Ldvo7hQAwhmkTEADGIQDQpAgAIzf/pTv9nUIAGMe3jUAAGIcAAI2JAbrUi3/fEgDGcmwGAsA4BABozJrL/T5HABhPNAQBYBwCADRkrZ3+TiEAQN8EAGjIFlP/RwIA9E0AgEZsNfV/JABA3wQAaMAez2UFAOibAAAN2HLq/0gAgL4JAFC5ksv9PkcAgL4JAFCxPT/JEgCgbwIAVGyPqf8jAQD6JgBApfaa+j8SAKBvAgBUqIbV2AQA6JsAABUqvdPfKQQA6JsAAJXZYqe/UwgA0DcBACoSU/97vvj3LQEA+iYAQEW2Xu73OQIA9E0AgB28Plx4bz/+3puDuCBrcXW4fqbX1J7i78n+ztr8/OE+HWyhNnG+Tq+zktJiKQIAtfrp6u7x85fDWZqct7QrftO/Xt6mgy3URgCAnQgBfdH8aY0AADsSAvqg+dMiAQB29rd3t0JAwzR/WiUAwI6Oy/1GAxEC2qP50zIBAHYyXe5XCGiL5k/rBADYSbbcrxDQBs2fHggAsIPnlvsVAuqm+dMLAQA2dspOf0JAnTR/eiIAwMZOXe5XCKiL5k9vBADY0Nyd/oSAOmj+9EgAgA2ds9OfELAvzZ9eCQCwkSU7/QkB+9D86ZkAABs45cW/lwgB29L86Z0AABs4Z+o/IwRsQ/NnBAIAFHZc7nctQkBZmj+jEACgoDWm/jNCQBmaPyMRAKCgtab+M0LAujR/RiMAQCFrT/1nhIB1aP6MSACAAkpN/WeEgGU0f0YlAEAB2U5/JQkB59H8GZkAACubu9zvWoSAeTR/RicAwIq2nPrPCAGn0fxBAIBVLVnudy1CwPM0f/hKAICV/HiQXWR7EAJymj/8RgCAlZT85v8cQsDvaf7wewIArKCGqf+MEPCV5g9/JADAQnu/+PeS0UOA5g85AQAWqm3qPzNqCND84fsEAFhgi+V+1zJaCND84XkCAJyp9qn/zCghQPOHlwkAcKYWpv4zvYcAzR9OIwDAGVqa+s/0GgI0fzidAAAztTj1n+ktBGj+MI8AADNtvdNfSb2EAM0f5us6AFwJAKxsr53+Smo9BGj+cJ6uA8CHh8/pIA7niKn/Vl/8e0mrIUDzh/Nd3n46XEb5tVVCWixFAGBNtS73u5bWQoDmD8sIAHCCmnb6K6mVEKD5w3LRI6fXVklpsZS7T1/SwRzm6nXqP1N7CND8YR1dB4AYw7LBHObofeo/U2sI0PxhPfdfL/L0WishLZb0t3e36aAOp+jlm/9z1BYCNH9YV/cB4H+u7tKBHU4x0tR/ppYQoPnD+qbXWWlpsaR/v79PB3Z4SevL/a5l7xCg+UMZ02uttLRY0i83D+ngDs8Zeeo/s1cI0PyhjD9ffjxcYvl1V0paLMlqgJxj9Kn/zNYhQPOHcn66vjtcZvm1V0paLMmngMzV43K/a9kqBGj+UNbrjZcBDmmxtL9c5gM9TJn6f1npEKD5Q3kxOz699kpLi6XFVEc22MNUTzv9lVQqBGj+sI2HL08XcHodlpIWS4sdj7LBHr5l6n+etUOA5g/biMXNptffFtJiafYE4CU97/RX0lohQPOH7cT6ONNrcAtpsbQYn7wHwHNGXO53LUtDgOYP2/r5w/3h0suvx5LS4hb+5T0AvmOUnf5KOjcEaP6wvXc7vAAY0uIW3t56D4Ccqf91zA0Bmj/s4/bT04WaXpclpcUtxBuPHgMwZbnfdZ0aAjR/2Ee87zS9HreSFrfyH/sC8A3f/JfxUgjQ/GE/0Qen1+RW0uJWfA3At0z9l/O9EKD5w76iD06vy62kxS3ZHphg6r+8aQjQ/GFf8bXT10vyj71xC2lxS14GxNT/do4hQPOH/cX2+NOeuKW0uKUYiLwMODbL/W4rGr/mD/u72XH6P6TFrV188DLgqCz3C4woQvi0F24tLW4tvoHMmgN9M/UPjOrNx+23/51Ki3uwQ+B4LPcLjCi+ePr2hdy9pMU9xLOQrEnQJ1P/wKj2Wvt/Ki3uxbsA4/DNPzCiGPv22Ps/kxb3Eofkb+9u04ZBP0z9A6Oq5e4/pMU9vb/3KKBnXvwDRlXT3X9Ii3uzR0C/TP0Do6rhzf9vpcW9RUKKbySzBkK7LPcLjCoeb0973d7SYg0u7z6lTYQ2mfoHRhUzn3c77fn/nLRYi39aG6Abpv6BUb26qWvq/ygt1uL+85fHv/sqoHmm/oFRRQ/7uuZP3uf2lBZrEssE2yyoXab+gVHF+FfDin/fkxZrc+3TwGbZ6Q8YUTz2jBvYaT+rSVqsUXw+kTUY6mW5X2BUV3efDq0r72e1SIu1ensrBLTC1D8wqsvb+pt/SIs183lgGyz3C4wmpv1buPM/Sou1i3cCvBhYrx8PsosDoFfR/GMp+2m/qllabEFsH+wTwTr55h8YSTzyjJ407VO1S4utiM8r/m3fgKqY+gdG8tP1XdWf+j0nLbbGFwJ18OIfMJLXla7wd6q02KJYZ9nSwfsy9Q+MIB4/17i2/1xpsWXxBmbsupQ1KMqx3C/Qu5jlbOkt/5ekxdbF85jXHx9sKbwRU/9Az2KMi0fNXx/1532nRWmxF/FjxboB/7gSBEoy9Q/06H+u7rq6459Kiz2K7zN//nDv8cDKTP0DPYmZ44ub+8fYjXbaR3qTFnsXGzTE/syR7rKmxmlM/QOtiz1L4nPyd4c7/Ycv/Tf9b6XF0cQCDvGoIN4biC8JgpUGX2anP6AF0eTjzf0QN3+xVv+Hw7jf2zP9udIiANCzxz/9LyirDgax+skvAAAAAElFTkSuQmCC;strokeColor=none;points=[];labelBackgroundColor=none;rounded=0;html=1;whiteSpace=wrap;fontStyle=1;fontColor=#0a0a0a;" parent="1" vertex="1">
                        <mxGeometry x="727" y="894" width="26" height="26" as="geometry"/>
                    </mxCell>
                </UserObject>
                <UserObject label="&lt;div style=&quot;font-size: 1px&quot;&gt;&lt;p style=&quot;text-align:left;margin-left:0;margin-right:0;margin-top:0px;margin-bottom:0px;text-indent:0;vertical-align:middle;direction:ltr;&quot;&gt;&lt;font style=&quot;font-size: 14.11px; font-family: &amp;quot;Segoe UI Semibold&amp;quot;; direction: ltr; letter-spacing: 0px; line-height: 120%; opacity: 1;&quot;&gt;&lt;span&gt;VPN&lt;br&gt;&lt;/span&gt;&lt;/font&gt;&lt;font style=&quot;font-size: 14.11px; font-family: &amp;quot;Segoe UI Semibold&amp;quot;; direction: ltr; letter-spacing: 0px; line-height: 120%; opacity: 1;&quot;&gt;&lt;span&gt;Gateway&lt;/span&gt;&lt;/font&gt;&lt;font style=&quot;font-size: 14.11px; font-family: &amp;quot;Segoe UI Semibold&amp;quot;; direction: ltr; letter-spacing: 0px; line-height: 120%; opacity: 1;&quot;&gt;&lt;br&gt;&lt;/font&gt;&lt;/p&gt;&lt;/div&gt;" tags="Background" id="RrnTrXlartnsTWybDFfY-129">
                    <mxCell style="verticalAlign=middle;align=left;overflow=width;vsdxID=10585;fillColor=#b1dafb;gradientColor=none;shape=stencil(nZBLDoAgDERP0z3SIyjew0SURgSD+Lu9kMZoXLhwN9O+tukAlrNpJg1SzDH4QW/URgNYgZTkjA4UkwJUgGXng+6DX1zLfmoymdXo17xh5zmRJ6Q42BWCfc2oJfdAr+Yv+AP9Cb7OJ3H/2JG1HNGz/84klThPVCc=);strokeColor=#6b859a;points=[[1,0.5,0],[0.5,0,0],[0.5,0.5,0],[0.5,0.5,0]];labelBackgroundColor=none;rounded=0;html=1;whiteSpace=wrap;fontStyle=1;fontColor=#0a0a0a;" parent="1" vertex="1">
                        <mxGeometry x="661" y="809" width="100" height="40" as="geometry"/>
                    </mxCell>
                </UserObject>
                <UserObject label="&lt;div style=&quot;font-size: 1px&quot;&gt;&lt;/div&gt;" tags="Background" id="RrnTrXlartnsTWybDFfY-130">
                    <mxCell style="verticalAlign=middle;align=center;overflow=width;vsdxID=10586;fillColor=#ffffff;gradientColor=none;shape=stencil(nZBLDoAgDERP0z3SIyjew0SURgSD+Lu9kMZoXLhwN9O+tukAlrNpJg1SzDH4QW/URgNYgZTkjA4UkwJUgGXng+6DX1zLfmoymdXo17xh5zmRJ6Q42BWCfc2oJfdAr+Yv+AP9Cb7OJ3H/2JG1HNGz/84klThPVCc=);strokeColor=#6b859a;points=[[1,0.5,0],[0.5,0,0],[0.5,0.5,0],[0.5,0.5,0]];labelBackgroundColor=none;rounded=0;html=1;whiteSpace=wrap;fontStyle=1;fontColor=#0a0a0a;" parent="1" vertex="1">
                        <mxGeometry x="661" y="849" width="100" height="20" as="geometry"/>
                    </mxCell>
                </UserObject>
                <UserObject label="" tags="Background" id="RrnTrXlartnsTWybDFfY-131">
                    <mxCell style="vsdxID=11;fillColor=none;gradientColor=none;image;aspect=fixed;image=data:image/png,iVBORw0KGgoAAAANSUhEUgAAAgAAAAIACAYAAAD0eNT6AAAAAXNSR0IArs4c6QAAAARnQU1BAACxjwv8YQUAAAAJcEhZcwAAHYcAAB2HAY/l8WUAACmVSURBVHhe7d0ve91Ytifg/poDBhS4oMAFDRo0aNCgwQUFGjRo0KCASYGAgICAAgYBBgYBAQYBBgYGBgEBIb5nOXOmUqoV++hIW9p/3ueZl6z7TLWjI+3105a0958eHx8BgMGkRaANX758eby7u///Pnz48Hj9/v2Td1dXj2/fvl0k/hvH/977g2//tz5//nz4E/K/C6hfWgTqcH//tdlG840mfGzMP//8c1XevHnz9HddX18//Z13d3dPf/f03wPUIy0C24k76WOTP961/3xxkTbaVj3NJrx79//Cwf3jp0+fDv/0/HgA20iLQBnR/KIJ9tro55oGg3ikMT1mQBlpEVgupu9vbm6eGtzr12/SBsgfvXr9+vHy8vLpfQaPEaCctAjME3eut7e3T8/An+7sk8bG+eIdg6urq8ePHz96+RBWkhaB5x0bfjQld/fbi1mCeIwiEMD50iLwexp+3QQCmC8tAo9/ijfV4zn0219/TZsO9YqQFl9VPDw8HH7K/PeF0aVFGFW8dBZ3+XFHmTUW2vPLL788zQ7EDM7094aRpUUYSUwbx1vnFxe/pA2Evvz6669PX2d4VMDo0iL0Lu4Go+mP/h3+6L6GgY/WH2BIaRF6FNP7MRXsTp8/OATBCIQxGzQ9b6BXaRF6ES/yxTP9eA6cDvwwEQExFm+K/Qym5xP0JC1C6+JOLhaPyQZ4OFW8DBrvC3hEQI/SIrQoXuqKlfjc7bO2p1mBqyubGNGVtAgtiWf7Ty/0JQM3rC2WevauAD1Ii1C7mJKNqVnf67OXmGmKXQx9Tkir0iLUKqZgvclPbWIGKnZ/nJ6vULO0CLWJKVe77FG740uD0/MXapQWoQYxtRrruXupj9Z4aZAWpEXYUzT++HbfKn30INYUEASoUVqEPWj89EwQoDZpEbYUb/TH29Re7GMEggC1SIuwBY2fkQkC7C0tQmkfPnzQ+OHi4mn1SksNs4e0CKXEBisW74Hfiy9dYlvi6fUCJaVFWFtMdcbe69ngB3wVG1hZUIitpEVYy9Nz/utrb/bDDLGyoCWGKS0twhpiStMiPnCmQ2iOhbCm1xWsJS3CEnHn8tZ0P6wiHgv4WoAS0iKcK+76vd0PKzMbQAFpEeZy1w/lxRc0XhJkLWkR5nDXD9uKF2un1yHMlRbhFPGGv7t+2EfMBng3gCXSIrwkpiG94Q87u7iwgBBnS4vwnHgZKR2MgF3EvgLT6xRekhYhY8of6uWRAHOlRZgy5Q8N8EiAGdIifOvm5iYfbIAqvbu6Oly6+fUMR2kRjq4OA0k2wAB1i8d10+sZvpUWIcSGJNnAArTh9es3NhXiu9IiY4uX/WL98WxAAdry6tUrLweSSouMKwaKeJs4G0iANsVKnXd3lhDm99IiY3p4eLCkL/Tq4uIQAu4Ol3p+/TOetMh44s5f84fOCQF8Iy0ylqdp/1ev8gED6MtTCPA4AAFgeJo/jCdm++KR33Q8YCxpkTHE2/7xmVA2QAB9EwJIi/RP8wd8Iji2tEj/3r59mw4IwFgiBMQNwXSMoH9pkb7FOuHZQACMKRb+mo4T9C8t0q8PHz6kAwAwtl/tHTCctEif4vvf7MIHCLH513TcoF9pkf7E277x/W920QMcxSzhdPygT2mRvsRuYL71B051e3t7GDry8YR+pEX6Ymc/YJaLi8f7e6sF9i4t0g97+gPniIWCrBHQt7RIH66vr9MLG+AUsTW4NQL6lRZp38ePH9MLGmCOWDRsOr7Qh7RI2+LZnTf+gbXEo8TpOEP70iLtimd2v/xiX39gXfFIcTre0La0SLus8Q+UEouJTccc2pUWadP79+/TixZgDTG7GOuKTMce2pQWaY+V/oAt2DOgH2mR9sTnOtnFCrC2m5uPh2EnH4toR1qkLb73BzZ1cWGRoA6kRdpxd3efX6AABcUS49PxiLakRdoQK3TZ5AfYy/X794ehKB+fqF9apA3v3r1LL0qArdg0qF1pkfpZ6heoQcxCTscn2pAWqVt8h2u1P6AWMRs5HaeoX1qkbm9//TW9CAH2cnt7exie8jGLOqVF6nVzc5NefHCqWC76e+LN7uz/D7zk4sIqga1Ji9QpLi6r/fGcaOKxc1u8nR3rtsdnoktf0or/Rvy34r95dXX19L9h4SkyVglsS1qkTnFxZRcdY4k7rWjCsQDUhw8fnpr8XndesRhM/O/HPhRxfno3BY8C2pEWqc/THv/JxUb/Xr9+8/jucOcdy6+2sPpa/I3xlUrMFnikMJ44X6fnBHVKi9QnLqrsYqMvT3f3hzvpr1P4/XxffZwlEAjGEDNT03OA+qRF6uKb/77F8/S4W+6p4T8nHlfEbMbTIy3vtHQpHgXFSqXT3566pEXq4rlqf+IuP+6SbKjy+Kd4ZhyPOJznfYlQO/2tqUtapB4xbZpdXLQlpvZjsZSYzXFn9H0PDw9PYSCOV3YcaYgdA6uXFqmDz/7aF8+87Z1+njhu3hlom88C65YWqUPcCWUXFXWLqez4RM/dzzriOJoVaJfNguqVFtlfTIVmFxP1irudmOKf/pasx6xAe3wWWK+0yP6s99+GuCuNT/YsgbqtCMgWxmqHYFyntMi+4q3o7CKiIhcXT43fC337EgTaEI/Fpr8d+0uL7Ms66xU7NP74vMkdf11iDYVYHjn9zahCBObp78a+0iL7iW/Ds4uHnWn8TYgg4B2BSh2uIddPXdIi+7EYSn00/vbEYzQzafWxOFBd0iL7sNd/XaKB+ISpbfE5ZvbbspOLi8PPkv9WbC8tsg8b/tQjGsf096FNd3d3lhmuiI2C6pEW2Z43/+vgrr9P8bVGLMWc/eZsyxcB9UiLbM+nTPtz19+/mA2wouD+4oZn+tuwvbTItqz6ty93/WOJFzottLWv+FJj+ruwvbTItqz5vx+blYzLTpv7ihuf6W/CttIi24m7kXgzNrtAKMsnScQSta6/fVxeXh5+gvx3YRtpke3E6ljZxUFZ8cnl9LdgTPH4x3sBO7Aw0O7SItvxedL27M/PVExHCwHbMwu3r7TINiz8sz3Nn+8RArbnk8B9pUW2YeGfbWn+vEQI2J6FgfaTFinPwj/bMshwqlgrIDuHKCNuhKa/AdtIi5Rn4Z/txApw0+MPz7Er57YsDLSPtEhZnz59Si8C1mfBEc4Vn6ll5xTrsx7HPtIiZfn0bxvxgpHPjFjCezrbca1uLy1Sln3KtxHPcqfHHuaI2TovBW7D2hzbS4uUE4uOZCc/64rllafHHs5xd3e4Zq0WWNzbt28Phzv/DSgjLVJO7DiXnfysJ2ZYpscdlvBS4DY8BthWWqScV69epSc+67GzHyXYQbA8jwG2lRYpw/R/eT75o5S4O/U+QFkeA2wrLVKGbX8Ls7kIhT3tHpide6zGNbydtEgZNv4pK/Z3nx5zWJv1AcryGGA7aZH1Pb1JnJzsrMOmImwl7lCF+XI8BthOWmR9pv/LspQoW7KXR1keA2wjLbI+dwzlWO6XPcQLp9n5yHIeA2wjLbIuu4uVFVu4To85lOargHI8BthGWmRd7hTK8dkfe7JAUDkeA5SXFlmXu4RyYq326fGGLXm8V4bHAOWlRdZj+r8cW4hSAy8EluExQHlpkfVcefu/mPi0cnq8YQ+2DS7g4uJwaPPjzTrSIusxMJQRx3V6rGEvlvkuQ8gvKy2yji9fvqQnNcvFkqzT4w17ikdS2bnK+azuWVZaZB2eDZZh1T9qFJ+jZucr5/OeT1lpkXV4/l9GfHo1PdZQA7MA64ovqKbHmPWkRdYRb7FmJzUL2PGPitnzY30W+ionLbKOaFbZCc35YlZlepyhJl78XZf1AMpJiyznTqAMC/9Qu5ubj+m5y3ms9llOWmS56/fv05OZ8716/fpwaPPjDTWxOuB6Xr16dTik+XFmmbTIcp7/r88nQbTi+vo6PYc5j5m/MtIiy3n+vz6DAK2IF1WNAeuJT6qnx5jl0iLLeP6/Pnv+05rLy8v0XGY+L/+WkRZZxhah6zP9T2tsBLYeS3+XkRZZxmIg6/PtPy2yFfh6Ymn16fFlmbTIMi76ddkWlFbFJ2zZOc18NgZaX1rkfNYDX5+FQGiVxwDr8RhwfWmR88UuddnJy/lM/9MyM4LriJcqp8eWZdIi5/P977pM/9M6jwHW4Uug9aVFzucFwHWZ9qN1HgOswzbg60uLnC+Wq81OXs5jJzB64DHAOnwJsK60yPmyk5bz2AucXlgUaB1uCNaVFjnP/b0VANcUj1OmxxhaZHGwdcRL1tNjy/nSIueJz9Wyk5bzxLaq02MMLfJ58Dq8E7SutMh5Yr3q7KTlPDb/oSc2B1runT0BVpUWOY/nfOuxBzi9sUX4cj4LXlda5DzxnWp20jJffDs9Pb7Qsuv379NzndO5MVhXWuQ88Z1qdtIyn/2/6U2c09m5zjzT48r50iLnyU5WzuN7X3oT53R2rjOPd4PWkxaZL07K7GRlvlhMaXp8oQexr312znM6s4PrSYvMF1tVZicr89n0g155UXi5WFNhelw5T1pkvvhmPTtZmc+3vvTKZmHLxefW0+PKedIi80XTyk5W5ovNU6bHF3pgsbDl3lohdDVpkfksArSez58/Hw5pfpyhZR4VLmdb4PWkReaz5/c6bPlJzyLcZuc9p7MWwHrSIvPFtFR2sjKP6T16Z0ngZewSup60yHyW+VyHF3zoXXzmmp37nG56TDlPWmS+mJbKTlTmsd0nvYttrrNzn9N5T2gdaZH5YloqO1GZJ7ZNnR5b6IkXhpezGuA60iLzZScpM11cHA5lfnyhFzYFWu7+/v5wKPPjy+nSIvN4s3cdlgBmBNYCWC4+p5weV+ZLi8xjH4B1+AKAEVg1dLk4htPjynxpkXkEgHXEWgrTYwu9EQCWEwDWkRaZRwBYRzwbnR5b6I3VAJcTANaRFpnHBb0OFzUjMF4sZ6xYR1pkHhf0OrzYwwjiDfbs/Od0AsA60iLzCADr8G0vI/DIcLn4kmJ6XJkvLTKPALCO6XGFHgkAy3lfaB1pkXkEgOXsAsgoBIDlBIB1pEXmub29TU9STmePb0YhACwnAKwjLTJPvJCSnaSc7vLy8nAo8+MLPREAlhMA1pEWmUcAWM4iQIxCAFhOAFhHWmQeAWA5AYBRCADLCQDrSIvMIwAsd319fTiU+fGFnggAywkA60iLzCMALOeCZhQCwHLGi3WkReYRAJZzQTMKAWA548U60iLzCADLWdmLUQgAywkA60iLzCMALBfHcHpcoUcCwHICwDrSIvMIAMsJAIxCAFhOAFhHWmQeAWC5u7u7w6HMjy/0RABYTgBYR1pkHgFgOVsBMwoBYDkBYB1pkXkEgOUEAEYhACwnAKwjLTKPALCcAMAoBIDlBIB1pEXmEQCWEwAYhQCwnACwjrTIPALAcgIAoxAAlhMA1pEWmUcAWE4AYBQCwHICwDrSIvMIAMsJAIxCAFhOAFhHWmQeAWA5AYBRCADLCQDrSIvMIwAsJwAwCgFgOQFgHWmReQSA5QQARiEALCcArCMtMo8AsJwAwCgEgOUEgHWkRea5PgSAf/7ymgXe3dw9fnj4DN27vn14/OniFQtcXgsAa0iLI7v//OXpIr28+/T4+uPD488f7h//eX33+Pd3t49//vUjwNn+6+3Hx//z5oZCfjwc3xirQ4zbr24eHt8eAleM6XefvhyG+HzcH1VaHMXDly+P1/efn06SOFn+cplftABL/fdB1rTY1p8P4/y/398/BYPbwUNBWuxZNPy4q3dHD2zph6QZsb8f3t48/s/V3eObjw+PMQM87Rk9S4s9iZ/z6u7T438Oic8dPrCHmJrOmg/1+evl7VMYiBnib3tJj9JiDyLJ/XLzoOkDuzL1366YKb68/XRoKXmfaV1abFk804m7/exCBNhaTDFnzYV2RIjrMQikxRbFG57xIl92AQLs4ceDrKHQpt6CQFpsSbyzEVP92cUHsKf/mzQR2hdfEtw8fD60oLwvtSIttuLXQxL7m7f5gQqZ+u/fxc3949Orgkl/akFarF0ccM/5gVp58W8c8VvHQkPf9qhWpMWaxdv98c1mdtEB1MDU/3hiYaFpv6pdWqxVpKz4RjO74ABqYLnfccXM9LRv1Swt1ijW5s8uNoBamPon1g74uqBg3stqkhZro/kDLTD1T4iZ6hZeDkyLNdH8gRaY+udb8a5a7SEgLdYiNu7JLjSAmpj6JxO7Dk77Wk3SYg3ibX8v/AEtsNMf3xO7z077Wy3S4t5i2uQfV5o/UD87/fGS9/d1rhOQFvdmkR+gBTH178U/XhIhscbthdPinmJ53+xCA6iN5X45VbwUOO13e0uLe4mEZG1/oAV2+mOu2lYLTIt7iZclsgsNoDam/pkrHgXU9GlgWtxDbK2YXWQAtTH1z7lq+iogLe7BBj9AC3zzzxIxc1TLC4FpcWsW/AFaYeqfpWqZBUiLW3P3D7TAcr+soZZZgLS4Jc/+gRaY+mdNFzf7zwKkxS3FWsnZxQZQE1P/rKmGLwLS4lZivf/sQgPK+ce728efPHabxXK/lLD3ugBpcStvPj6kFxtQRjT/h0PwPvw/IeBEpv4pJRa+m/bFLaXFrfx0bQCCrRyb//H6EwJOY6c/StrzZcC0uAXT/7CdafM/EgKeZ+qf0i5vP/3hutxKWtyC6X/Yxvea/5EQkLPTH1vYc5OgtLiFf5r+h+Jeav5HQsAfWe6XLUTIfLpCk+uytLRYWvxj/3KZX3TAOk5t/kdCwG/s9MeWPjx8PlyC+XVZUlosLf6x2UUHrGNu8z8SAr4y9c+WXt3s8zlgWiwt/rHZRQcsd27zPxo9BFjul639/XDNTq/DLaTF0qz9D2Usbf5Ho4YA3/yzh5hxml6DW0iLpXn+D+tbq/kfjRgCTP2zl9tP6127p0qLJd0d/pHZhQecb+3mfzRSCDD1z572WA8gLZZk739YV6nmfzRCCDD1z9722B0wLZZkASBYT+nmf9R7CLDcL3uLpfGn111pabGk/9j+F1axVfM/6jUEWO6XGvz1cvsvAdJiSVYAhOW2bv5HvYUAU//UYo8vAdJiSXYAhGX2av5HPYUAy/1Sk6erOrnmSkmLJcWCB9mFCLxs7+Z/1EMIMPVPbWKX3Om1VlJaLOlvAgCcpZbmf9R6CPDNP7XpPgBkFyLwvNqa/1GrIcDUPzXaelOgtFhSdjEC31dr8z9qLQR48Y9adR0AYnojuyCBXO3N/6ilEGDqn1pd3W27GmBaLEUAgNO10vyPWggBlvulZlsvB5wWS4npjeyiBH6vteZ/VHMIMPVP7d7ePhwuo/zaKiEtliIAwMtabf5HtYYAU//U7tVNxwHg8u5TemECX7Xe/I9qCwGm/mmBAACD6qX5H9USAkz90woBAAbUW/M/qiEE2OmPVggAMJhem//RniHAcr+0RACAgfTe/I/2CAGm/mmNAACDGKX5H20dAiz3S2sEABjAaM3/aKsQ8ONBNsBCzQQA6Nyozf9oixDgm39aJABAx0Zv/kclQ4Cpf1olAECnNP/fKxECvPhHywQA6JDmn1s7BJj6p2UCAHRG83/eWiHAcr+0TgCAjmj+p1kaAkz90wMBADqh+c+zJASY+qcHAgB0QPM/zzkhwNQ/vRAAoHGa/zJzQoCpf3oiAEDDNP91nBoC7PRHTwQAaJTmv66XQoCd/uiNAAAN0vzL+F4IiKl/L/7RGwEAGqP5l5WFAMv90iMBABqi+W/j2xBgpz96JQBAIzT/bR1DgKl/eiUAQAM0/33EIf/r5W06eELrBAConOa/LyGAXgkAUDHNvw5CAD0SAKBSmn9dhAB6IwBAhTT/OgkB9EQAgMpo/nUTAuiFAAAV0fzbIATQAwEAKqH5t0UIoHUCAFRA82+TEEDLBADYmebfNiGAVgkAsCPNvw9CAC0SAGAnmn9fhABaIwDATi4+3D++/fhQrff3nw+XUX5t7SH+nuzvXOLNQQyCa/n58JtmAy3UKM7Z6XVWUlosRQCA80VAmV5Te4q/J/s7l7DTHyMTAIBU7wHgv97a55+xCQBAqucA8N8H2YAIIxEAgFTPAcDUPwgAwHf0GgBM/cNXAgCQ6jEAmPqH3wgAQKrHAPBDMgjCqAQAINVbAPjR1D/8jgAApHoKAKb+4Y8EACDVUwD44W0+AMLIBAAg1UsAMPUPOQEASPUSAHzzDzkBAEj1EABM/cP3CQBAqvUA4MU/eJ4AQJNiL/3YzjX7v7GO1gOAqf/5oiEITuMQAGhSBID4jYWAcloOAJb7ne/YDASAcQgANOkYAIIQUEarAUADm+/bRuD4jUMAoEnfBoAgBKyv1QBg6n+eaRMQAMYhANCkaQAIQsC6WgwApv7nyRqAADAOAYAmZQEgCAHraS0AaFzzfG/wdxzHIQDQpO8FgCAErKO1AGCnv9M9N/ALAOMQAGjScwEgCAHLtRQALPd7upcGfQFgHAIATXopAAQhYJlWAoCGdbpTBnzHcxwCAE06JQAEIeB8rQQAy/2e5tTBXgAYhwBAk04NAEEIOE8LAeDHg2xg4/fmDPQCwDgEAJo0JwAEIWC+FgKAb/5fNneQFwDGIQDQpLkBIAgB89QeAEz9v+ycAV4AGIcAQJPOCQBBCDhdzQFAk3rZuYO7YzsOAYAmnRsAghBwmpoDgKn/5y0Z2AWAcQgANGlJAAhCwMtqDQCW+33e0kFdABiHAECTlgaAIAQ8r8YAoDk9b40B3TEehwBAk9YIAEEI+L4aA4Cp/+9bazAXAMYhANCktQJAEAJytQWAnw9/TzaIse5ALgCMQwCgSWsGgCAE/FFtAeDf7+/SQWx0aw/iAsA4BACatHYACELA79UWAP4lAPxBiQFcABiHAECTSgSAIAT8RgCoW6nBWwAYhwBAk0oFgCAEfCUA1KvkwC0AjEMAoEklA0AQAgSAWpUetAWAcQgANKl0AAijhwABoD5bDNgCwDgEAJq0RQAII4cAAaAuWw3WAsA4BACatFUACKOGAAGgHlsO1ALAOAQAmrRlAAgjhgABoA5bD9ICwDgEAJq0dQAIo4WAn67uHuPfvLUYlDJ/vbxNB7Gexb97eh6WJgCMY+vzKy2WIgD0a48AEKJBZX8P67DT32/2aP5BABiHAECT9goAQQgoQ+P5zV7NP/gdxiEA0KQ9A0AQAtZnp7+v9mz+QQAYhwBAk/YOAEEIWM+Ppv6f7N38gwAwDgGAJtUQAIIQsJyG81UNzT/4PcYhANCkWgJAEAKW+SEZmEZTS/MPAsA4BACaVFMACELAeUz919X8gwAwDgGAJtUWAIIQMN/oL/7V1vyDADAOAYAm1RgAghBwuh/e5oPSKGps/kEAGIcAQJNqDQBBCHjZ6E2m1uYfBIBxCAA0qeYAEISA54089V9z8w8CwDgEgA5EM4yGM5LL20+Hnzj/3WsRf2f2e41u5OV+a2/+4c3hvI2/cyQj7jMR4t8+/f1LSouljBIA/nV9d/jn5seAfQkBvzfy3eXWgy2ns9PkNtJiKQIANRACfjPq1L/mXzcBYBtpsRQBgFoIAeNO/Wv+9RMAtpEWSxEAqMnIIWDUqX/Nvw0CwDbSYikCALUZNQSMuNyv5t8OAWAbabEUAYAajRYCRlzuV/NviwCwjbRYigBArUYJASNO/Wv+7REAtpEWSxEAqNkIIWC05X41/zYJANtIi6UIANSu5xDw40E26PRK82+XALCNtFiKAEALeg0BI33zr/m3TQDYRlosRQCgFb2FgJGm/jX/9gkA20iLpQgAtKSXEDDSi3+afx8EgG2kxVIEAFrTQwgYZepf8++HALCNtFiKAECLWg4Boyz3q/n3RQDYRlosRQCgVS2GgFGm/jX//ggA20iLpQgAtKy1EDDC1L/m3ycBYBtpsRQBgJa1FABGmPrX/PslAGwjLZYiANCqlpq/qX9aJwBsIy2WIgDQotam/kfa6U8I6JMAsI20WIoAQGtaa/52+qMHAsA20mIpAgAtaa35j7jT35EQ0BcBYBtpsRQBgFa01vzDaDv9TQkB/RAAtpEWSxEAaEGLzX+0nf6+RwjogwCwjbRYigBA7Vps/mGknf5eIgS0TwDYRlosRQCgZq02/9Gn/jNCQNsEgG2kxVIEAGrVavMf+cW/lwgB7RIAtpEWSxEAqFGrzT+Y+n+eENAmAWAbabEUAYDatNz8R9npbykhoD0CwDbSYikCADVpufmb+p9HCGiLALCNtFiKAEAtWm7+wdT/fEJAOwSAbaTFUgQAatB68zf1fz4hoA0CwDbSYikCAHtrvfmb+l9OCKifALCNtFiKAMCeWm/+YaSd/koSAuomAGwjLZYySgD46+XtUwgYyc8f7g8/cf6716CH5j/iTn8lCQH1EgC2kRZLGSUAjOgf724PP3H+u++th+YfU/9e/FtfCyHgn4eA/ffD9TWSUcOuAECTag0APTT/YLnfcmoPAd77GIcAQJNqDAC9NH87/ZVXcwgQAMYhANCk2gJAL80/mPrfRq0hQAAYhwBAk2oKAD01f9/8b6vGECAAjEMAoEm1BICemr+Bfx+1hQDnwTgEAJpUQwDoqfkHU//7qSkECADjEABo0t4BoLfmb+p/f7WEAAFgHAIATdozAPTW/A349aghBDgfxiEA0KS9AkBvzT+Y+q/L3iFAABiHAECT9ggAPTZ/y/3Wac8QIACMQwCgSVsHgB6bv4G+bnuFAOfFOAQAmrRlAOix+QfL/dZvjxAgAIxDAKBJWwWAXpv/KVP/sctkDBC1iL8n+zt7F//26XlZkgAwjq3PrbRYigDQry0CQK/NP5zy4l9skTo9JnsadcvWsOVALQCMQwCgSaUDQM/N/9SpfwGgLlsN1gLAOAQAmlQyAPTc/OcM7gJAfbYYsAWAcQgANKlUAOi5+Yc53/wLAHUqPWgLAOMQAGhSiQDQe/Ofu9yvAFCvkgO3ADAOAYAmrR0Aem/+5wzqAkDdSg3eAsA4BACatGYA6L35h3OW+xUA6ldiABcAxiEA0KS1AsAIzf/cnf4EgDasPYgLAOMQAGjSGgFghOa/ZDAXANqx5kAuAIxDAKBJSwPACM0//JBc9KcSANqy1mAuAIxDAKBJSwLAKM1/6U5/AkB71hjQBYBxCAA06dwAMErzX2MQFwDatHRQFwDGIQDQpHMCwCjNP6yx058A0K4lA7sAMA4BgCbNDQAjNf8fD7KLfS4BoG3nDu4CwDgEAJo0JwCM1PzDOd/8ZwSA9p0zwAsA4xAAaNKpAWC05r/G1P+RANCHuYO8ADAOAYAmnRIARmv+aw/cAkA/5gz0AsA4BACa9FIAGK35h7Wm/o8EgL6cOtgLAOMQAGjScwFgxOZ/7nK/zxEA+nPKgC8AjEMAoEnfCwAjNv9SA7YA0KeXBn0BYBwCAE3KAsCIzT+sPfV/JAD067mBXwAYhwBAk6YBYNTmX2Lq/0gA6Nv3Bn8BYBwCAE36NgCM2vxLD9QCQP+yBiAAjEMAoEnHADBq8w9Ldvo7hQAwhmkTEADGIQDQpAgAIzf/pTv9nUIAGMe3jUAAGIcAAI2JAbrUi3/fEgDGcmwGAsA4BABozJrL/T5HABhPNAQBYBwCADRkrZ3+TiEAQN8EAGjIFlP/RwIA9E0AgEZsNfV/JABA3wQAaMAez2UFAOibAAAN2HLq/0gAgL4JAFC5ksv9PkcAgL4JAFCxPT/JEgCgbwIAVGyPqf8jAQD6JgBApfaa+j8SAKBvAgBUqIbV2AQA6JsAABUqvdPfKQQA6JsAAJXZYqe/UwgA0DcBACoSU/97vvj3LQEA+iYAQEW2Xu73OQIA9E0AgB28Plx4bz/+3puDuCBrcXW4fqbX1J7i78n+ztr8/OE+HWyhNnG+Tq+zktJiKQIAtfrp6u7x85fDWZqct7QrftO/Xt6mgy3URgCAnQgBfdH8aY0AADsSAvqg+dMiAQB29rd3t0JAwzR/WiUAwI6Oy/1GAxEC2qP50zIBAHYyXe5XCGiL5k/rBADYSbbcrxDQBs2fHggAsIPnlvsVAuqm+dMLAQA2dspOf0JAnTR/eiIAwMZOXe5XCKiL5k9vBADY0Nyd/oSAOmj+9EgAgA2ds9OfELAvzZ9eCQCwkSU7/QkB+9D86ZkAABs45cW/lwgB29L86Z0AABs4Z+o/IwRsQ/NnBAIAFHZc7nctQkBZmj+jEACgoDWm/jNCQBmaPyMRAKCgtab+M0LAujR/RiMAQCFrT/1nhIB1aP6MSACAAkpN/WeEgGU0f0YlAEAB2U5/JQkB59H8GZkAACubu9zvWoSAeTR/RicAwIq2nPrPCAGn0fxBAIBVLVnudy1CwPM0f/hKAICV/HiQXWR7EAJymj/8RgCAlZT85v8cQsDvaf7wewIArKCGqf+MEPCV5g9/JADAQnu/+PeS0UOA5g85AQAWqm3qPzNqCND84fsEAFhgi+V+1zJaCND84XkCAJyp9qn/zCghQPOHlwkAcKYWpv4zvYcAzR9OIwDAGVqa+s/0GgI0fzidAAAztTj1n+ktBGj+MI8AADNtvdNfSb2EAM0f5us6AFwJAKxsr53+Smo9BGj+cJ6uA8CHh8/pIA7niKn/Vl/8e0mrIUDzh/Nd3n46XEb5tVVCWixFAGBNtS73u5bWQoDmD8sIAHCCmnb6K6mVEKD5w3LRI6fXVklpsZS7T1/SwRzm6nXqP1N7CND8YR1dB4AYw7LBHObofeo/U2sI0PxhPfdfL/L0WishLZb0t3e36aAOp+jlm/9z1BYCNH9YV/cB4H+u7tKBHU4x0tR/ppYQoPnD+qbXWWlpsaR/v79PB3Z4SevL/a5l7xCg+UMZ02uttLRY0i83D+ngDs8Zeeo/s1cI0PyhjD9ffjxcYvl1V0paLMlqgJxj9Kn/zNYhQPOHcn66vjtcZvm1V0paLMmngMzV43K/a9kqBGj+UNbrjZcBDmmxtL9c5gM9TJn6f1npEKD5Q3kxOz699kpLi6XFVEc22MNUTzv9lVQqBGj+sI2HL08XcHodlpIWS4sdj7LBHr5l6n+etUOA5g/biMXNptffFtJiafYE4CU97/RX0lohQPOH7cT6ONNrcAtpsbQYn7wHwHNGXO53LUtDgOYP2/r5w/3h0suvx5LS4hb+5T0AvmOUnf5KOjcEaP6wvXc7vAAY0uIW3t56D4Ccqf91zA0Bmj/s4/bT04WaXpclpcUtxBuPHgMwZbnfdZ0aAjR/2Ee87zS9HreSFrfyH/sC8A3f/JfxUgjQ/GE/0Qen1+RW0uJWfA3At0z9l/O9EKD5w76iD06vy62kxS3ZHphg6r+8aQjQ/GFf8bXT10vyj71xC2lxS14GxNT/do4hQPOH/cX2+NOeuKW0uKUYiLwMODbL/W4rGr/mD/u72XH6P6TFrV188DLgqCz3C4woQvi0F24tLW4tvoHMmgN9M/UPjOrNx+23/51Ki3uwQ+B4LPcLjCi+ePr2hdy9pMU9xLOQrEnQJ1P/wKj2Wvt/Ki3uxbsA4/DNPzCiGPv22Ps/kxb3Eofkb+9u04ZBP0z9A6Oq5e4/pMU9vb/3KKBnXvwDRlXT3X9Ii3uzR0C/TP0Do6rhzf9vpcW9RUKKbySzBkK7LPcLjCoeb0973d7SYg0u7z6lTYQ2mfoHRhUzn3c77fn/nLRYi39aG6Abpv6BUb26qWvq/ygt1uL+85fHv/sqoHmm/oFRRQ/7uuZP3uf2lBZrEssE2yyoXab+gVHF+FfDin/fkxZrc+3TwGbZ6Q8YUTz2jBvYaT+rSVqsUXw+kTUY6mW5X2BUV3efDq0r72e1SIu1ensrBLTC1D8wqsvb+pt/SIs183lgGyz3C4wmpv1buPM/Sou1i3cCvBhYrx8PsosDoFfR/GMp+2m/qllabEFsH+wTwTr55h8YSTzyjJ407VO1S4utiM8r/m3fgKqY+gdG8tP1XdWf+j0nLbbGFwJ18OIfMJLXla7wd6q02KJYZ9nSwfsy9Q+MIB4/17i2/1xpsWXxBmbsupQ1KMqx3C/Qu5jlbOkt/5ekxdbF85jXHx9sKbwRU/9Az2KMi0fNXx/1532nRWmxF/FjxboB/7gSBEoy9Q/06H+u7rq6459Kiz2K7zN//nDv8cDKTP0DPYmZ44ub+8fYjXbaR3qTFnsXGzTE/syR7rKmxmlM/QOtiz1L4nPyd4c7/Ycv/Tf9b6XF0cQCDvGoIN4biC8JgpUGX2anP6AF0eTjzf0QN3+xVv+Hw7jf2zP9udIiANCzxz/9LyirDgax+skvAAAAAElFTkSuQmCC;strokeColor=none;points=[];labelBackgroundColor=none;rounded=0;html=1;whiteSpace=wrap;fontStyle=1;fontColor=#0a0a0a;" parent="1" vertex="1">
                        <mxGeometry x="725" y="816" width="26" height="26" as="geometry"/>
                    </mxCell>
                </UserObject>
                <UserObject label="" tags="Background" id="RrnTrXlartnsTWybDFfY-140">
                    <mxCell style="vsdxID=10616;fillColor=none;gradientColor=none;strokeColor=none;spacingTop=-3;spacingBottom=-3;spacingLeft=-3;spacingRight=-3;points=[];labelBackgroundColor=none;rounded=0;html=1;whiteSpace=wrap;fontStyle=1;fontColor=#0a0a0a;" parent="1" vertex="1">
                        <mxGeometry x="1039" y="604" width="22" height="30" as="geometry"/>
                    </mxCell>
                </UserObject>
                <mxCell id="RrnTrXlartnsTWybDFfY-141" style="vsdxID=10617;fillColor=none;gradientColor=none;strokeColor=none;spacingTop=-3;spacingBottom=-3;spacingLeft=-3;spacingRight=-3;points=[];labelBackgroundColor=none;rounded=0;html=1;whiteSpace=wrap;fontStyle=1;fontColor=#0a0a0a;" parent="RrnTrXlartnsTWybDFfY-140" vertex="1">
                    <mxGeometry width="22" height="30" as="geometry"/>
                </mxCell>
                <mxCell id="RrnTrXlartnsTWybDFfY-142" style="vsdxID=10618;fillColor=#3999c6;gradientColor=none;shape=stencil(jVTLcoMwDPwaXzW2/MLnNPmPTEMKUxoyhLT07wu1GVvqhOZmSSvvWg8Lvbs1x2stUN7GoX+vv9rT2Aj9IhDbS1MP7TifhN4LvTv3Q/029PfLKdrX44JcTh/953LDFPMqC2iXLJTf0aMQJP56DjHh9T7EDBUB1oIKKSW5AriYIidMIJkQyU7mpFlYl+FHhJKySUplNChP2eY3GKSMjDAjEmnXXoqySFISp8HrLYVMoAsQDBMJzlCN3oK3VKNSgFRmJcG7LWa0EBxrBoKqtruh5D/9WAFPdiTfxwlWxkpD8Oy1kpH+KTPtScY/aCFXGQxYw4QWg7Eqy8NbjA+y8Sn3JI8QXRQq94nNmg95L89t18W1LuN8j2dX/AP0/gc=);strokeColor=none;strokeWidth=17;spacingTop=-3;spacingBottom=-3;spacingLeft=-3;spacingRight=-3;points=[];labelBackgroundColor=none;rounded=0;html=1;whiteSpace=wrap;fontStyle=1;fontColor=#0a0a0a;" parent="RrnTrXlartnsTWybDFfY-141" vertex="1">
                    <mxGeometry width="22" height="30" as="geometry"/>
                </mxCell>
                <mxCell id="RrnTrXlartnsTWybDFfY-143" style="vsdxID=10619;fillColor=#59b4d9;gradientColor=none;fillOpacity=40;strokeOpacity=40;shape=stencil(lZLRboMwDEW/Jq+WHYcQnrv2P6qWjmgMqpRu9O8HMqhJVjTtzdwc+14sK97dmuO1VhpvQ+g/6m9/HhrFb0pr3zV18MNUKd4r3l36UL+H/t6d5ft6nMm5+uy/5gmj9JUMZm7S+BDBIFSiHIRvfRfxhJjgZMBVMX66B5lPAlgD5eqwSERQkUijFqlwYIuFWqTFZ+TfBMfEhm/MUzpx9USwJvWkAtilvph6PomX60mXU7r1RzdCYhrQWbBZRjDZWiqGLCExkMlSIm5nZAakJKfDdVcvG/57I3/zU/E8yItvW7nn+D0/4EmS4+f9Dw==);strokeColor=none;strokeWidth=17;spacingTop=-3;spacingBottom=-3;spacingLeft=-3;spacingRight=-3;points=[];labelBackgroundColor=none;rounded=0;html=1;whiteSpace=wrap;fontStyle=1;fontColor=#0a0a0a;" parent="RrnTrXlartnsTWybDFfY-141" vertex="1">
                    <mxGeometry width="19" height="24" as="geometry"/>
                </mxCell>
                <mxCell id="RrnTrXlartnsTWybDFfY-144" style="vsdxID=10620;fillColor=none;gradientColor=none;strokeColor=none;spacingTop=-3;spacingBottom=-3;spacingLeft=-3;spacingRight=-3;points=[];labelBackgroundColor=none;rounded=0;html=1;whiteSpace=wrap;fontStyle=1;fontColor=#0a0a0a;" parent="RrnTrXlartnsTWybDFfY-141" vertex="1">
                    <mxGeometry x="2" y="3" width="17" height="24" as="geometry"/>
                </mxCell>
                <mxCell id="RrnTrXlartnsTWybDFfY-145" style="vsdxID=10621;fillColor=#FFFFFF;gradientColor=none;fillOpacity=30;strokeOpacity=30;shape=stencil(nZLRDoIwDEW/Zq/L1jpwz6j/QWTIIjIyQPHvZdkURtRE39q7096kuwSzrspbRYB1vTVnddNFXxHcEQDdVMrqfqoI7glmpbHqZM3QFL5vc0e66mKubsPo55ibAHZfdgcP1rr5CIKkabKEj4P1a3mMh3bDqRReGsFLkgoZoKAIpDwNEAYfoEmAgpIAlfjNWQBlInbfCopp7M4Zi81fwtN6JlbC2/PM9I+X/A+civlHS13XPhDL93UCJsmnB/cP);strokeColor=none;strokeWidth=17;spacingTop=-3;spacingBottom=-3;spacingLeft=-3;spacingRight=-3;points=[];labelBackgroundColor=none;rounded=0;html=1;whiteSpace=wrap;fontStyle=1;fontColor=#0a0a0a;" parent="RrnTrXlartnsTWybDFfY-144" vertex="1">
                    <mxGeometry y="11" width="8" height="12" as="geometry"/>
                </mxCell>
                <mxCell id="RrnTrXlartnsTWybDFfY-146" style="vsdxID=10622;fillColor=#FFFFFF;gradientColor=none;fillOpacity=70;strokeOpacity=70;shape=stencil(vZNNDoIwEIVP023TdiiBNeI9iBRpREoqKNxemiGBNmokJu7mvX79mZcpgexWF50igt16ay7qocu+JnAgQui2Vlb3c0UgJ5BVxqqzNUNbou4KR7rqau7uhBH3Sea2CDah5Az1EdnTYBHmAc19nI0iMKbFSICmYmEgZBYjBpqI7bWNbjdPXHnUUUKj9D0uf6GD/vewH3PdlWqQaQSUSz9VLqiM/VSDTFfiZSv/S/T7PD1yLtaRrXTT4MRv18MRny38HpA/AQ==);strokeColor=none;strokeWidth=17;spacingTop=-3;spacingBottom=-3;spacingLeft=-3;spacingRight=-3;points=[];labelBackgroundColor=none;rounded=0;html=1;whiteSpace=wrap;fontStyle=1;fontColor=#0a0a0a;" parent="RrnTrXlartnsTWybDFfY-144" vertex="1">
                    <mxGeometry width="17" height="24" as="geometry"/>
                </mxCell>
                <mxCell id="RrnTrXlartnsTWybDFfY-147" style="vsdxID=10623;fillColor=#FFFFFF;gradientColor=none;fillOpacity=30;strokeOpacity=30;shape=stencil(nVLbDoIwDP2avS6jAzaeUf+DyJBFZGSA4t/LLLeZSIxv7ek5W09bwtO2zBpFgLWdNVf10HlXEn4gALouldXdGBF+JDwtjFUXa/o6x7zJHNNFN3N3LwyoixMqY6cC9kQEQhrKN3JCwbm3qAiQEDAKYpLMULJAAyDEJoafDtyveun0X6XrTYPMay5gO9S5+BcZIhrBnm2ZUBb6tlfNYltIKoRvHSLf+3bk/MvM/V5/WNIYrCsudFXhhWzrnycxQnhO/PgC);strokeColor=none;strokeWidth=17;spacingTop=-3;spacingBottom=-3;spacingLeft=-3;spacingRight=-3;points=[];labelBackgroundColor=none;rounded=0;html=1;whiteSpace=wrap;fontStyle=1;fontColor=#0a0a0a;" parent="RrnTrXlartnsTWybDFfY-144" vertex="1">
                    <mxGeometry x="8" width="8" height="11" as="geometry"/>
                </mxCell>
                <UserObject label="" tags="Background" id="RrnTrXlartnsTWybDFfY-148">
                    <mxCell style="vsdxID=10625;fillColor=none;gradientColor=none;strokeColor=none;spacingTop=-3;spacingBottom=-3;spacingLeft=-3;spacingRight=-3;points=[];labelBackgroundColor=none;rounded=0;html=1;whiteSpace=wrap;fontStyle=1;fontColor=#0a0a0a;" parent="1" vertex="1">
                        <mxGeometry x="1341" y="568" width="22" height="30" as="geometry"/>
                    </mxCell>
                </UserObject>
                <mxCell id="RrnTrXlartnsTWybDFfY-149" style="vsdxID=10626;fillColor=none;gradientColor=none;strokeColor=none;spacingTop=-3;spacingBottom=-3;spacingLeft=-3;spacingRight=-3;points=[];labelBackgroundColor=none;rounded=0;html=1;whiteSpace=wrap;fontStyle=1;fontColor=#0a0a0a;" parent="RrnTrXlartnsTWybDFfY-148" vertex="1">
                    <mxGeometry width="22" height="30" as="geometry"/>
                </mxCell>
                <mxCell id="RrnTrXlartnsTWybDFfY-150" style="vsdxID=10627;fillColor=#3999c6;gradientColor=none;shape=stencil(jVTLcoMwDPwaXzW2/MLnNPmPTEMKUxoyhLT07wu1GVvqhOZmSSvvWg8Lvbs1x2stUN7GoX+vv9rT2Aj9IhDbS1MP7TifhN4LvTv3Q/029PfLKdrX44JcTh/953LDFPMqC2iXLJTf0aMQJP56DjHh9T7EDBUB1oIKKSW5AriYIidMIJkQyU7mpFlYl+FHhJKySUplNChP2eY3GKSMjDAjEmnXXoqySFISp8HrLYVMoAsQDBMJzlCN3oK3VKNSgFRmJcG7LWa0EBxrBoKqtruh5D/9WAFPdiTfxwlWxkpD8Oy1kpH+KTPtScY/aCFXGQxYw4QWg7Eqy8NbjA+y8Sn3JI8QXRQq94nNmg95L89t18W1LuN8j2dX/AP0/gc=);strokeColor=none;strokeWidth=17;spacingTop=-3;spacingBottom=-3;spacingLeft=-3;spacingRight=-3;points=[];labelBackgroundColor=none;rounded=0;html=1;whiteSpace=wrap;fontStyle=1;fontColor=#0a0a0a;" parent="RrnTrXlartnsTWybDFfY-149" vertex="1">
                    <mxGeometry width="22" height="30" as="geometry"/>
                </mxCell>
                <mxCell id="RrnTrXlartnsTWybDFfY-151" style="vsdxID=10628;fillColor=#59b4d9;gradientColor=none;fillOpacity=40;strokeOpacity=40;shape=stencil(lZLRboMwDEW/Jq+WHYcQnrv2P6qWjmgMqpRu9O8HMqhJVjTtzdwc+14sK97dmuO1VhpvQ+g/6m9/HhrFb0pr3zV18MNUKd4r3l36UL+H/t6d5ft6nMm5+uy/5gmj9JUMZm7S+BDBIFSiHIRvfRfxhJjgZMBVMX66B5lPAlgD5eqwSERQkUijFqlwYIuFWqTFZ+TfBMfEhm/MUzpx9USwJvWkAtilvph6PomX60mXU7r1RzdCYhrQWbBZRjDZWiqGLCExkMlSIm5nZAakJKfDdVcvG/57I3/zU/E8yItvW7nn+D0/4EmS4+f9Dw==);strokeColor=none;strokeWidth=17;spacingTop=-3;spacingBottom=-3;spacingLeft=-3;spacingRight=-3;points=[];labelBackgroundColor=none;rounded=0;html=1;whiteSpace=wrap;fontStyle=1;fontColor=#0a0a0a;" parent="RrnTrXlartnsTWybDFfY-149" vertex="1">
                    <mxGeometry width="19" height="24" as="geometry"/>
                </mxCell>
                <mxCell id="RrnTrXlartnsTWybDFfY-152" style="vsdxID=10629;fillColor=none;gradientColor=none;strokeColor=none;spacingTop=-3;spacingBottom=-3;spacingLeft=-3;spacingRight=-3;points=[];labelBackgroundColor=none;rounded=0;html=1;whiteSpace=wrap;fontStyle=1;fontColor=#0a0a0a;" parent="RrnTrXlartnsTWybDFfY-149" vertex="1">
                    <mxGeometry x="2" y="3" width="17" height="24" as="geometry"/>
                </mxCell>
                <mxCell id="RrnTrXlartnsTWybDFfY-153" style="vsdxID=10630;fillColor=#FFFFFF;gradientColor=none;fillOpacity=30;strokeOpacity=30;shape=stencil(nZLRDoIwDEW/Zq/L1jpwz6j/QWTIIjIyQPHvZdkURtRE39q7096kuwSzrspbRYB1vTVnddNFXxHcEQDdVMrqfqoI7glmpbHqZM3QFL5vc0e66mKubsPo55ibAHZfdgcP1rr5CIKkabKEj4P1a3mMh3bDqRReGsFLkgoZoKAIpDwNEAYfoEmAgpIAlfjNWQBlInbfCopp7M4Zi81fwtN6JlbC2/PM9I+X/A+civlHS13XPhDL93UCJsmnB/cP);strokeColor=none;strokeWidth=17;spacingTop=-3;spacingBottom=-3;spacingLeft=-3;spacingRight=-3;points=[];labelBackgroundColor=none;rounded=0;html=1;whiteSpace=wrap;fontStyle=1;fontColor=#0a0a0a;" parent="RrnTrXlartnsTWybDFfY-152" vertex="1">
                    <mxGeometry y="11" width="8" height="12" as="geometry"/>
                </mxCell>
                <mxCell id="RrnTrXlartnsTWybDFfY-154" style="vsdxID=10631;fillColor=#FFFFFF;gradientColor=none;fillOpacity=70;strokeOpacity=70;shape=stencil(vZNNDoIwEIVP023TdiiBNeI9iBRpREoqKNxemiGBNmokJu7mvX79mZcpgexWF50igt16ay7qocu+JnAgQui2Vlb3c0UgJ5BVxqqzNUNbou4KR7rqau7uhBH3Sea2CDah5Az1EdnTYBHmAc19nI0iMKbFSICmYmEgZBYjBpqI7bWNbjdPXHnUUUKj9D0uf6GD/vewH3PdlWqQaQSUSz9VLqiM/VSDTFfiZSv/S/T7PD1yLtaRrXTT4MRv18MRny38HpA/AQ==);strokeColor=none;strokeWidth=17;spacingTop=-3;spacingBottom=-3;spacingLeft=-3;spacingRight=-3;points=[];labelBackgroundColor=none;rounded=0;html=1;whiteSpace=wrap;fontStyle=1;fontColor=#0a0a0a;" parent="RrnTrXlartnsTWybDFfY-152" vertex="1">
                    <mxGeometry width="17" height="24" as="geometry"/>
                </mxCell>
                <mxCell id="RrnTrXlartnsTWybDFfY-155" style="vsdxID=10632;fillColor=#FFFFFF;gradientColor=none;fillOpacity=30;strokeOpacity=30;shape=stencil(nVLbDoIwDP2avS6jAzaeUf+DyJBFZGSA4t/LLLeZSIxv7ek5W09bwtO2zBpFgLWdNVf10HlXEn4gALouldXdGBF+JDwtjFUXa/o6x7zJHNNFN3N3LwyoixMqY6cC9kQEQhrKN3JCwbm3qAiQEDAKYpLMULJAAyDEJoafDtyveun0X6XrTYPMay5gO9S5+BcZIhrBnm2ZUBb6tlfNYltIKoRvHSLf+3bk/MvM/V5/WNIYrCsudFXhhWzrnycxQnhO/PgC);strokeColor=none;strokeWidth=17;spacingTop=-3;spacingBottom=-3;spacingLeft=-3;spacingRight=-3;points=[];labelBackgroundColor=none;rounded=0;html=1;whiteSpace=wrap;fontStyle=1;fontColor=#0a0a0a;" parent="RrnTrXlartnsTWybDFfY-152" vertex="1">
                    <mxGeometry x="8" width="8" height="11" as="geometry"/>
                </mxCell>
                <UserObject label="" tags="Background" id="RrnTrXlartnsTWybDFfY-156">
                    <mxCell style="vsdxID=10633;fillColor=none;gradientColor=none;strokeColor=none;spacingTop=-3;spacingBottom=-3;spacingLeft=-3;spacingRight=-3;points=[];labelBackgroundColor=none;rounded=0;html=1;whiteSpace=wrap;fontStyle=1;fontColor=#0a0a0a;" parent="1" vertex="1">
                        <mxGeometry x="1340" y="827" width="22" height="30" as="geometry"/>
                    </mxCell>
                </UserObject>
                <mxCell id="RrnTrXlartnsTWybDFfY-157" style="vsdxID=10634;fillColor=none;gradientColor=none;strokeColor=none;spacingTop=-3;spacingBottom=-3;spacingLeft=-3;spacingRight=-3;points=[];labelBackgroundColor=none;rounded=0;html=1;whiteSpace=wrap;fontStyle=1;fontColor=#0a0a0a;" parent="RrnTrXlartnsTWybDFfY-156" vertex="1">
                    <mxGeometry width="22" height="30" as="geometry"/>
                </mxCell>
                <mxCell id="RrnTrXlartnsTWybDFfY-158" style="vsdxID=10635;fillColor=#3999c6;gradientColor=none;shape=stencil(jVTLcoMwDPwaXzW2/MLnNPmPTEMKUxoyhLT07wu1GVvqhOZmSSvvWg8Lvbs1x2stUN7GoX+vv9rT2Aj9IhDbS1MP7TifhN4LvTv3Q/029PfLKdrX44JcTh/953LDFPMqC2iXLJTf0aMQJP56DjHh9T7EDBUB1oIKKSW5AriYIidMIJkQyU7mpFlYl+FHhJKySUplNChP2eY3GKSMjDAjEmnXXoqySFISp8HrLYVMoAsQDBMJzlCN3oK3VKNSgFRmJcG7LWa0EBxrBoKqtruh5D/9WAFPdiTfxwlWxkpD8Oy1kpH+KTPtScY/aCFXGQxYw4QWg7Eqy8NbjA+y8Sn3JI8QXRQq94nNmg95L89t18W1LuN8j2dX/AP0/gc=);strokeColor=none;strokeWidth=17;spacingTop=-3;spacingBottom=-3;spacingLeft=-3;spacingRight=-3;points=[];labelBackgroundColor=none;rounded=0;html=1;whiteSpace=wrap;fontStyle=1;fontColor=#0a0a0a;" parent="RrnTrXlartnsTWybDFfY-157" vertex="1">
                    <mxGeometry width="22" height="30" as="geometry"/>
                </mxCell>
                <mxCell id="RrnTrXlartnsTWybDFfY-159" style="vsdxID=10636;fillColor=#59b4d9;gradientColor=none;fillOpacity=40;strokeOpacity=40;shape=stencil(lZLRboMwDEW/Jq+WHYcQnrv2P6qWjmgMqpRu9O8HMqhJVjTtzdwc+14sK97dmuO1VhpvQ+g/6m9/HhrFb0pr3zV18MNUKd4r3l36UL+H/t6d5ft6nMm5+uy/5gmj9JUMZm7S+BDBIFSiHIRvfRfxhJjgZMBVMX66B5lPAlgD5eqwSERQkUijFqlwYIuFWqTFZ+TfBMfEhm/MUzpx9USwJvWkAtilvph6PomX60mXU7r1RzdCYhrQWbBZRjDZWiqGLCExkMlSIm5nZAakJKfDdVcvG/57I3/zU/E8yItvW7nn+D0/4EmS4+f9Dw==);strokeColor=none;strokeWidth=17;spacingTop=-3;spacingBottom=-3;spacingLeft=-3;spacingRight=-3;points=[];labelBackgroundColor=none;rounded=0;html=1;whiteSpace=wrap;fontStyle=1;fontColor=#0a0a0a;" parent="RrnTrXlartnsTWybDFfY-157" vertex="1">
                    <mxGeometry width="19" height="24" as="geometry"/>
                </mxCell>
                <mxCell id="RrnTrXlartnsTWybDFfY-160" style="vsdxID=10637;fillColor=none;gradientColor=none;strokeColor=none;spacingTop=-3;spacingBottom=-3;spacingLeft=-3;spacingRight=-3;points=[];labelBackgroundColor=none;rounded=0;html=1;whiteSpace=wrap;fontStyle=1;fontColor=#0a0a0a;" parent="RrnTrXlartnsTWybDFfY-157" vertex="1">
                    <mxGeometry x="2" y="3" width="17" height="24" as="geometry"/>
                </mxCell>
                <mxCell id="RrnTrXlartnsTWybDFfY-161" style="vsdxID=10638;fillColor=#FFFFFF;gradientColor=none;fillOpacity=30;strokeOpacity=30;shape=stencil(nZLRDoIwDEW/Zq/L1jpwz6j/QWTIIjIyQPHvZdkURtRE39q7096kuwSzrspbRYB1vTVnddNFXxHcEQDdVMrqfqoI7glmpbHqZM3QFL5vc0e66mKubsPo55ibAHZfdgcP1rr5CIKkabKEj4P1a3mMh3bDqRReGsFLkgoZoKAIpDwNEAYfoEmAgpIAlfjNWQBlInbfCopp7M4Zi81fwtN6JlbC2/PM9I+X/A+civlHS13XPhDL93UCJsmnB/cP);strokeColor=none;strokeWidth=17;spacingTop=-3;spacingBottom=-3;spacingLeft=-3;spacingRight=-3;points=[];labelBackgroundColor=none;rounded=0;html=1;whiteSpace=wrap;fontStyle=1;fontColor=#0a0a0a;" parent="RrnTrXlartnsTWybDFfY-160" vertex="1">
                    <mxGeometry y="11" width="8" height="12" as="geometry"/>
                </mxCell>
                <mxCell id="RrnTrXlartnsTWybDFfY-162" style="vsdxID=10639;fillColor=#FFFFFF;gradientColor=none;fillOpacity=70;strokeOpacity=70;shape=stencil(vZNNDoIwEIVP023TdiiBNeI9iBRpREoqKNxemiGBNmokJu7mvX79mZcpgexWF50igt16ay7qocu+JnAgQui2Vlb3c0UgJ5BVxqqzNUNbou4KR7rqau7uhBH3Sea2CDah5Az1EdnTYBHmAc19nI0iMKbFSICmYmEgZBYjBpqI7bWNbjdPXHnUUUKj9D0uf6GD/vewH3PdlWqQaQSUSz9VLqiM/VSDTFfiZSv/S/T7PD1yLtaRrXTT4MRv18MRny38HpA/AQ==);strokeColor=none;strokeWidth=17;spacingTop=-3;spacingBottom=-3;spacingLeft=-3;spacingRight=-3;points=[];labelBackgroundColor=none;rounded=0;html=1;whiteSpace=wrap;fontStyle=1;fontColor=#0a0a0a;" parent="RrnTrXlartnsTWybDFfY-160" vertex="1">
                    <mxGeometry width="17" height="24" as="geometry"/>
                </mxCell>
                <mxCell id="RrnTrXlartnsTWybDFfY-163" style="vsdxID=10640;fillColor=#FFFFFF;gradientColor=none;fillOpacity=30;strokeOpacity=30;shape=stencil(nVLbDoIwDP2avS6jAzaeUf+DyJBFZGSA4t/LLLeZSIxv7ek5W09bwtO2zBpFgLWdNVf10HlXEn4gALouldXdGBF+JDwtjFUXa/o6x7zJHNNFN3N3LwyoixMqY6cC9kQEQhrKN3JCwbm3qAiQEDAKYpLMULJAAyDEJoafDtyveun0X6XrTYPMay5gO9S5+BcZIhrBnm2ZUBb6tlfNYltIKoRvHSLf+3bk/MvM/V5/WNIYrCsudFXhhWzrnycxQnhO/PgC);strokeColor=none;strokeWidth=17;spacingTop=-3;spacingBottom=-3;spacingLeft=-3;spacingRight=-3;points=[];labelBackgroundColor=none;rounded=0;html=1;whiteSpace=wrap;fontStyle=1;fontColor=#0a0a0a;" parent="RrnTrXlartnsTWybDFfY-160" vertex="1">
                    <mxGeometry x="8" width="8" height="11" as="geometry"/>
                </mxCell>
                <UserObject label="" tags="Background" id="RrnTrXlartnsTWybDFfY-164">
                    <mxCell style="vsdxID=10641;fillColor=none;gradientColor=none;strokeColor=none;spacingTop=-3;spacingBottom=-3;spacingLeft=-3;spacingRight=-3;points=[];labelBackgroundColor=none;rounded=0;html=1;whiteSpace=wrap;fontStyle=1;fontColor=#0a0a0a;" parent="1" vertex="1">
                        <mxGeometry x="1107" y="818" width="26" height="15" as="geometry"/>
                    </mxCell>
                </UserObject>
                <mxCell id="RrnTrXlartnsTWybDFfY-165" style="vsdxID=10642;fillColor=#3999c6;gradientColor=none;shape=stencil(lZRNcsIwDIVPk63Glvy7pnAPpoSSKSVMCC3cvk5tguW0KeyMeM/6FD+7osVptz7WFYpT37Xv9Vez6XcVvVSIzWFXd00fVhUtK1ps265+69rzYRN/H9eDclh9tJ/DDpfo8wacH1worrGiEZT8qayi4fXcRYeMAilEMqSCFmDSHhdM23ogl1SppCx4SiqaNk8lZQBZ931zyHCdBM9xadz2V4NU4CUzSLA4O54Ex+cTfDYLSvPRBB9LAWk+VdmTM2b6BxEBFUekkelGGc4EOeX4ZWdA5z+mVaCJkU6Oq0S1FkzBmgcBpyqchoqm7emPsHJgAskP3yMIO8dbRNsT2CLagnOGDGvNObOut6A7QPcMZqkvMe9neS1v5Y0z5FgWVzDcSmM4q6Sx9CCsEyCR0Zr/8ppbZOkZgXMVTlU0qmwR2qCiGeAHnrinDWFxf1G3zX4fH+T8//IFDqX4etPyGw==);strokeColor=none;spacingTop=-3;spacingBottom=-3;spacingLeft=-3;spacingRight=-3;points=[];labelBackgroundColor=none;rounded=0;html=1;whiteSpace=wrap;fontStyle=1;fontColor=#0a0a0a;" parent="RrnTrXlartnsTWybDFfY-164" vertex="1">
                    <mxGeometry x="18" width="8" height="15" as="geometry"/>
                </mxCell>
                <mxCell id="RrnTrXlartnsTWybDFfY-166" style="vsdxID=10643;fillColor=#3999c6;gradientColor=none;shape=stencil(lZTRdoMgDIafxtscSAThuuveo2e10zNXe6zd2rcfHqgS2Ox6h/EP+RJ+KGhzbnanukBxHof+o/5u92NT0EuB2B6bemhHtypoW9Dm0A/1+9Bfjnv/fdpNymn12X9NO1x9HoGUUxKKmw8ohNJHXr3+7TL4BOkFIsjDpxKgrQ9dMShAYxCFSFmBpSCirHCIlBqQVe7aY0QqDQiOSvOuvyYYBcKyBAkVrrVmDCDvTvDOLIJSvDXB27IKtOJ9pVU5ZZzwP0proNIck6BUCakFMpx0Hu8a7PpI3R4VP4Ps0FJax5bAxmbATIS5rSgvTn+YNZmtBsMd4A5QVGu4UiT+tgRV4u9Fg3Oduy3m0UalaT43NE/BpgmZExa2W8p/h3WeNsltdN7QmuMaDVQ+heuuoyaGqx/ONkqRac4y3UiFuYpmlUjMoNcv2uOX7lm9WyzP6qHtOv8qx//TZ9iF/BNO2x8=);strokeColor=none;spacingTop=-3;spacingBottom=-3;spacingLeft=-3;spacingRight=-3;points=[];labelBackgroundColor=none;rounded=0;html=1;whiteSpace=wrap;fontStyle=1;fontColor=#0a0a0a;" parent="RrnTrXlartnsTWybDFfY-164" vertex="1">
                    <mxGeometry width="8" height="15" as="geometry"/>
                </mxCell>
                <mxCell id="RrnTrXlartnsTWybDFfY-167" style="vsdxID=10644;fillColor=#7fba00;gradientColor=none;shape=stencil(jZLREoIgEEW/hlcGFxV8NvsPJzWZTB3Usr9PZmkUKuttd7nL4Q6X8HSo874kwIZRd5fyroqxJvxAAFRbl1qNS0V4Rnhadbo8625qC+z73ChNde1u5oYZ9wLGzA6wB/YRtkfUniaN4sBX24GQVCQ4msGOYhoKqwJvbeaWEqwa7mq+kGFzq/+YF5m5VBFREbtc5jL3zXpWIaQQukBgNEpc6G+ju0zJqJQu1zO5fgG8v4v7mo9GG9X+nYClWKNTqabB5G3P/agtI4wpz54=);strokeColor=none;spacingTop=-3;spacingBottom=-3;spacingLeft=-3;spacingRight=-3;points=[];labelBackgroundColor=none;rounded=0;html=1;whiteSpace=wrap;fontStyle=1;fontColor=#0a0a0a;" parent="RrnTrXlartnsTWybDFfY-164" vertex="1">
                    <mxGeometry x="6" y="5" width="3" height="3" as="geometry"/>
                </mxCell>
                <mxCell id="RrnTrXlartnsTWybDFfY-168" style="vsdxID=10645;fillColor=#7fba00;gradientColor=none;shape=stencil(jZLRDoIwDEW/Zq/LaIHJM+p/EBmyiEAGKP69kM7ApqJvbXe7s5tdhmlXZq1iILreNBd113lfMtwzAF2Xyuh+qhgeGKZFY9TZNEOdU99ms3Kurs1tvmGkvUCIeQfEg/qI2iNpT4MhceCr7UDuuExoNIIdxTyUVgXe2oiWEiwadDVfyLC61X/Miyxcqoy4jF2ucJnbZj2rEHIIXSAgj9CF/ja6yZQJDwOX65lcvgDe34W+5qPRStd/J2AqlugUuqooeetzP2rTiGKKhyc=);strokeColor=none;spacingTop=-3;spacingBottom=-3;spacingLeft=-3;spacingRight=-3;points=[];labelBackgroundColor=none;rounded=0;html=1;whiteSpace=wrap;fontStyle=1;fontColor=#0a0a0a;" parent="RrnTrXlartnsTWybDFfY-164" vertex="1">
                    <mxGeometry x="11" y="5" width="3" height="3" as="geometry"/>
                </mxCell>
                <mxCell id="RrnTrXlartnsTWybDFfY-169" style="vsdxID=10646;fillColor=#7fba00;gradientColor=none;shape=stencil(vVHLDsIgEPwajiQI6RfU+h8bu22JCGRB2/69kG1iazx58DazM/vIjjBtmiCi0CplCjecbZ8nYc5Ca+snJJsLEqYTph0C4Ujh4XvmEaqzont41gkL96naodXKrGF6YSfQtUi0OXXDVlqPfJNP6usotUhYbJIUMmQb/GGrAxpRljVycDBuc1hKM2LclX8/7H9nFfB+82Cd45T2+mcspcSRmu4F);strokeColor=none;spacingTop=-3;spacingBottom=-3;spacingLeft=-3;spacingRight=-3;points=[];labelBackgroundColor=none;rounded=0;html=1;whiteSpace=wrap;fontStyle=1;fontColor=#0a0a0a;" parent="RrnTrXlartnsTWybDFfY-164" vertex="1">
                    <mxGeometry x="17" y="5" width="3" height="3" as="geometry"/>
                </mxCell>
                <UserObject label="&lt;div style=&quot;font-size: 1px&quot;&gt;&lt;font style=&quot;font-size: 14.11px; font-family: &amp;quot;Segoe UI Semibold&amp;quot;; direction: ltr; letter-spacing: 0px; line-height: 120%; opacity: 1;&quot;&gt;&lt;span&gt;IPSec Site to Site VPN&lt;br&gt;&lt;/span&gt;&lt;/font&gt;&lt;/div&gt;" tags="Connector" id="RrnTrXlartnsTWybDFfY-170">
                    <mxCell style="verticalAlign=middle;align=center;overflow=width;vsdxID=10649;fillColor=none;gradientColor=none;shape=stencil(nZBLDoAgDERP0z3SIyjew0SURgSD+Lu9kMZoXLhwN9O+tukAlrNpJg1SzDH4QW/URgNYgZTkjA4UkwJUgGXng+6DX1zLfmoymdXo17xh5zmRJ6Q42BWCfc2oJfdAr+Yv+AP9Cb7OJ3H/2JG1HNGz/84klThPVCc=);strokeColor=none;points=[[0.47,0,0],[0.5,0,0],[1,0.46,0],[1,0.43,0]];labelBackgroundColor=none;rounded=0;html=1;whiteSpace=wrap;fontStyle=1;fontColor=#0a0a0a;" parent="1" vertex="1">
                        <mxGeometry x="269" y="811" width="160" height="16" as="geometry"/>
                    </mxCell>
                </UserObject>
                <UserObject label="&lt;div style=&quot;font-size: 1px&quot;&gt;&lt;p style=&quot;text-align:left;margin-left:0;margin-right:0;margin-top:0px;margin-bottom:0px;text-indent:0;vertical-align:bottom;direction:ltr;&quot;&gt;&lt;font style=&quot;font-size: 14.11px; font-family: &amp;quot;Segoe UI Semibold&amp;quot;; direction: ltr; letter-spacing: 0px; line-height: 120%; opacity: 1;&quot;&gt;&lt;span&gt;&lt;br&gt;&lt;br&gt;AzureFirewall&lt;br&gt;&lt;/span&gt;&lt;/font&gt;&lt;/p&gt;&lt;/div&gt;" tags="Background" id="RrnTrXlartnsTWybDFfY-171">
                    <mxCell style="verticalAlign=bottom;align=left;overflow=width;vsdxID=10650;fillColor=#f2f2f2;gradientColor=none;shape=stencil(nZBLDoAgDERP0z3SIyjew0SURgSD+Lu9kMZoXLhwN9O+tukAlrNpJg1SzDH4QW/URgNYgZTkjA4UkwJUgGXng+6DX1zLfmoymdXo17xh5zmRJ6Q42BWCfc2oJfdAr+Yv+AP9Cb7OJ3H/2JG1HNGz/84klThPVCc=);dashed=1;dashPattern=1.00 2.00;strokeColor=#6b859a;points=[[1,0.5,0],[0.5,0,0],[0.5,0.5,0],[0.5,0.5,0]];labelBackgroundColor=none;rounded=0;html=1;whiteSpace=wrap;fontStyle=1;fontColor=#0a0a0a;" parent="1" vertex="1">
                        <mxGeometry x="731" y="619" width="140" height="120" as="geometry"/>
                    </mxCell>
                </UserObject>
                <UserObject label="&lt;div style=&quot;font-size: 1px&quot;&gt;&lt;p style=&quot;text-align:right;margin-left:0;margin-right:0;margin-top:0px;margin-bottom:0px;text-indent:0;vertical-align:middle;direction:ltr;&quot;&gt;&lt;font style=&quot;font-size: 14.11px; font-family: &amp;quot;Segoe UI Semibold&amp;quot;; direction: ltr; letter-spacing: 0px; line-height: 120%; opacity: 1;&quot;&gt;&lt;span&gt;Azure &lt;br&gt;&lt;/span&gt;&lt;/font&gt;&lt;font style=&quot;font-size: 14.11px; font-family: &amp;quot;Segoe UI Semibold&amp;quot;; direction: ltr; letter-spacing: 0px; line-height: 120%; opacity: 1;&quot;&gt;&lt;span&gt;Firewall&lt;br&gt;&lt;/span&gt;&lt;/font&gt;&lt;/p&gt;&lt;/div&gt;" tags="Background" id="RrnTrXlartnsTWybDFfY-172">
                    <mxCell style="verticalAlign=middle;align=right;overflow=width;vsdxID=10651;fillColor=#b1dafb;gradientColor=none;shape=stencil(nZBLDoAgDERP0z3SIyjew0SURgSD+Lu9kMZoXLhwN9O+tukAlrNpJg1SzDH4QW/URgNYgZTkjA4UkwJUgGXng+6DX1zLfmoymdXo17xh5zmRJ6Q42BWCfc2oJfdAr+Yv+AP9Cb7OJ3H/2JG1HNGz/84klThPVCc=);strokeColor=#6b859a;points=[[1,0.5,0],[0.5,0,0],[0.5,0.5,0],[0.5,0.5,0]];labelBackgroundColor=none;rounded=0;html=1;whiteSpace=wrap;fontStyle=1;fontColor=#0a0a0a;" parent="1" vertex="1">
                        <mxGeometry x="751" y="639" width="100" height="40" as="geometry"/>
                    </mxCell>
                </UserObject>
                <UserObject label="&lt;div style=&quot;font-size: 1px&quot;&gt;&lt;/div&gt;" tags="Background" id="RrnTrXlartnsTWybDFfY-173">
                    <mxCell style="verticalAlign=middle;align=center;overflow=width;vsdxID=10652;fillColor=#ffffff;gradientColor=none;shape=stencil(nZBLDoAgDERP0z3SIyjew0SURgSD+Lu9kMZoXLhwN9O+tukAlrNpJg1SzDH4QW/URgNYgZTkjA4UkwJUgGXng+6DX1zLfmoymdXo17xh5zmRJ6Q42BWCfc2oJfdAr+Yv+AP9Cb7OJ3H/2JG1HNGz/84klThPVCc=);strokeColor=#6b859a;points=[[1,0.5,0],[0.5,0,0],[0.5,0.5,0],[0.5,0.5,0]];labelBackgroundColor=none;rounded=0;html=1;whiteSpace=wrap;fontStyle=1;fontColor=#0a0a0a;" parent="1" vertex="1">
                        <mxGeometry x="751" y="679" width="100" height="28" as="geometry"/>
                    </mxCell>
                </UserObject>
                <UserObject label="" tags="Background" id="RrnTrXlartnsTWybDFfY-182">
                    <mxCell style="vsdxID=10671;fillColor=none;gradientColor=none;strokeColor=none;spacingTop=-3;spacingBottom=-3;spacingLeft=-3;spacingRight=-3;points=[];labelBackgroundColor=none;rounded=0;html=1;whiteSpace=wrap;fontStyle=1;fontColor=#0a0a0a;" parent="1" vertex="1">
                        <mxGeometry x="755" y="639" width="36" height="36" as="geometry"/>
                    </mxCell>
                </UserObject>
                <mxCell id="RrnTrXlartnsTWybDFfY-183" style="vsdxID=10672;fillColor=none;gradientColor=none;strokeColor=none;spacingTop=-3;spacingBottom=-3;spacingLeft=-3;spacingRight=-3;points=[];labelBackgroundColor=none;rounded=0;html=1;whiteSpace=wrap;fontStyle=1;fontColor=#0a0a0a;" parent="RrnTrXlartnsTWybDFfY-182" vertex="1">
                    <mxGeometry width="36" height="36" as="geometry"/>
                </mxCell>
                <mxCell id="RrnTrXlartnsTWybDFfY-184" style="vsdxID=10673;fillColor=#59b4d9;gradientColor=none;shape=stencil(hZRNcoMwDIVPw1ZjSzaW12lyj0xDClMKGULa5PaF2vxYbejOfujxybLkjHbX8ngpMlTXvmvfi6/q1JcZvWSIVVMWXdUPq4z2Ge3ObVe8de2tOYX95ThGjquP9nP8wz34kID16EL1CAohUP6jHILh9dYFh46WHJSLlihpAo9BumP8DQPZGBUlFSMobC0BcYygdcQTbu5nyMRVKZMJUKdM7cBwyl1H0Zws0xZ77YmS0WDEmRnB5ynfEORe8BGc4BsL3m7xPc7HmPkO0KZ8rVRKtwwCvoREwSEwbqEXx1QLBy7leg1Iou5K3DaryfUQqURuXTXrvrRgp1L+Gf4rTQ2W0kSXHNIGnHJkA8alWYri5DYm/QSq5iuYb4UBRVfo4eSckmmYF9GV60GculJOoijR/6M7LJbBP1d1Hd6N9Xf5UAxSeGRo/w0=);strokeColor=none;strokeWidth=17;spacingTop=-3;spacingBottom=-3;spacingLeft=-3;spacingRight=-3;points=[];labelBackgroundColor=none;rounded=0;html=1;whiteSpace=wrap;fontStyle=1;fontColor=#0a0a0a;" parent="RrnTrXlartnsTWybDFfY-183" vertex="1">
                    <mxGeometry x="7" width="28" height="22" as="geometry"/>
                </mxCell>
                <mxCell id="RrnTrXlartnsTWybDFfY-185" style="vsdxID=10674;fillColor=#a0a1a2;gradientColor=none;shape=stencil(xZfNcuMgDMefxsdosGTAPnfb9/C0TuLZbNxx0m327ZesvxAYiC/ZmxEy/PkBksjo5XKsP5sMxeXadz+b7/bjeszoR4bYno9N317NV0avGb3su7459N3X+WNof9Z3z/vXr+73fYTb8F8uxP0fFH+GtgKl/xneBu/3r35wz13/0UBD84ZDs9JQjg6jZfS/0eggIcfRg2yPccJTe7bkqRKwYgJFTJ3SUHB5gstTCqSrD0hyiUpCKR2JUJE9cd2/m95+VFmAHkX2M0Y5DToaCIp8ZSHitqtv7WXXd9f62nZn1neq+0OzM3Pt9qf6wLou303z6ZlXGZIRs4EhSdBRhlRAqVMMjVO+kWFZuAwVMoaUg/5PDI268nGECBglKDg94ugEx+beSC6M314kIIopcy6vWdd8TuetRMXloQRVOhJny6TSk+ntbu7dEM12l6+Enra1fN4iFQAdgoWeT0aYYFGByFMEpYjiQw9fFcEn54PwdII6ejUcfDoHxBQ+jV548fFp9+hvDi/OMuaD8HSC1cZbXGlOcAk/6CTtCZ8Vzoi7rGcQL/A67l4OQVBc4yJhCnomIToyqwpUOo0YLxG9oXZ+yv2Rp/mXNBeiZCfORzD5OT6BSRVACUymFskpiWmlYkliskuhMCarogphsmu0RzDZFeBDmKyaMoRpKUvnOpSLXBwmPu4l4yLdulhvLoy1hMKBafhqh6Y2RwC5VOM1mYLBzUNkjTzNb0XNECU7/IZA6chWupRkSqdHSeJ8GCKUpKkdqyQlGT9FPiI7L4cQ2Qk+hMgrGuKUKKrTQ4Ql6DKJCLUXFVYQJd93K5Ts+i9EyS4kQ5S84jROaRtT19t8LE/efXs6DS9mu999IhvT8Lym178=);strokeColor=none;strokeWidth=17;spacingTop=-3;spacingBottom=-3;spacingLeft=-3;spacingRight=-3;points=[];labelBackgroundColor=none;rounded=0;html=1;whiteSpace=wrap;fontStyle=1;fontColor=#0a0a0a;" parent="RrnTrXlartnsTWybDFfY-183" vertex="1">
                    <mxGeometry y="14" width="29" height="21" as="geometry"/>
                </mxCell>
                <mxCell id="RrnTrXlartnsTWybDFfY-186" style="vsdxID=10675;fillColor=#dd5900;gradientColor=none;shape=stencil(nZBRDoQgDERP03+WHsHFe5iISyOCQdT19kIaIxq//Jtp3zTpAFaTaUYNUkwx+F6v1EYD+AUpyRkdKCYFqACrzgf9C352LfuxyWRWg1/yhT/nRE5IsZWuZtCSK8CPeI0e/hF+jV7AJM4PO7KWCyr390bSiNtEtQM=);strokeColor=none;strokeWidth=17;spacingTop=-3;spacingBottom=-3;spacingLeft=-3;spacingRight=-3;points=[];labelBackgroundColor=none;rounded=0;html=1;whiteSpace=wrap;fontStyle=1;fontColor=#0a0a0a;" parent="RrnTrXlartnsTWybDFfY-183" vertex="1">
                    <mxGeometry x="10" y="15" width="7" height="3" as="geometry"/>
                </mxCell>
                <mxCell id="RrnTrXlartnsTWybDFfY-187" style="vsdxID=10676;fillColor=#ba141a;gradientColor=none;shape=stencil(pZPdEoIgEIWfhlsGWAW7NnsPZ8RkMnEQ+3n7JKZJMivtbnf5zs5ZWBCkXZW3EjHSWaMP8qwKWyHYIsZUU0mj7BAhyBCkpTZyb3TfFD5vc0e66KhPrsPF6wTBTDgVI1dfIfds5+FaNSOYErIWjSjmYh6f2lgsCMyEQ/7smm2wgPXwF8+LbuSD53A4iDGNAjhOMMB8Zx7hhP8neLzuW3xqaCE+sTMEz/0tVV379R+fv+77UPJ/BbIb);strokeColor=none;strokeWidth=17;spacingTop=-3;spacingBottom=-3;spacingLeft=-3;spacingRight=-3;points=[];labelBackgroundColor=none;rounded=0;html=1;whiteSpace=wrap;fontStyle=1;fontColor=#0a0a0a;" parent="RrnTrXlartnsTWybDFfY-183" vertex="1">
                    <mxGeometry x="1" y="15" width="26" height="8" as="geometry"/>
                </mxCell>
                <mxCell id="RrnTrXlartnsTWybDFfY-188" style="vsdxID=10677;fillColor=#dd5900;gradientColor=none;shape=stencil(nZBRDoQgDERP03+WHsHFe5iISyOCQdT19kIaIxq//Jtp3zTpAFaTaUYNUkwx+F6v1EYD+AUpyRkdKCYFqACrzgf9C352LfuxyWRWg1/yhT/nRE5IsZWuZtCSK8CPeI0e/hF+jV7AJM4PO7KWCyr390bSiNtEtQM=);strokeColor=none;strokeWidth=17;spacingTop=-3;spacingBottom=-3;spacingLeft=-3;spacingRight=-3;points=[];labelBackgroundColor=none;rounded=0;html=1;whiteSpace=wrap;fontStyle=1;fontColor=#0a0a0a;" parent="RrnTrXlartnsTWybDFfY-183" vertex="1">
                    <mxGeometry x="1" y="25" width="7" height="3" as="geometry"/>
                </mxCell>
                <mxCell id="RrnTrXlartnsTWybDFfY-189" style="vsdxID=10678;fillColor=#ba141a;gradientColor=none;shape=stencil(pZRNDoMgEIVPw5YgY8Gurb2HiVhJrRi1f7evhDQVCRLsboDvMW9gMgjysSl7gSgZp0FdxVNWU4PghCiVXSMGOc0RggJBXqtBXAZ17yqz7ktN6uimHvqGl9ERraDkvVydDdjKbgHSI+awH6YMA/ULyH7YsmEXBwecpBbMAbPMfzNLccb+EyRk411cQ5G4Y8cumBNMuSUAhrPUn+GbfifOACfMj7t2ogWOoVDBG8+5dh+BBjrStREtiGrjwDe5XRktCHyUayla4Fiag9+UqmXbmiG3PF9PtXnLTEQoPg==);strokeColor=none;strokeWidth=17;spacingTop=-3;spacingBottom=-3;spacingLeft=-3;spacingRight=-3;points=[];labelBackgroundColor=none;rounded=0;html=1;whiteSpace=wrap;fontStyle=1;fontColor=#0a0a0a;" parent="RrnTrXlartnsTWybDFfY-183" vertex="1">
                    <mxGeometry x="1" y="20" width="26" height="13" as="geometry"/>
                </mxCell>
                <mxCell id="RrnTrXlartnsTWybDFfY-190" style="vsdxID=10679;fillColor=#dd5900;gradientColor=none;shape=stencil(nZBRDoQgDERP03+WHsHFe5iISyOCQdT19kIaIxq//Jtp3zTpAFaTaUYNUkwx+F6v1EYD+AUpyRkdKCYFqACrzgf9C352LfuxyWRWg1/yhT/nRE5IsZWuZtCSK8CPeI0e/hF+jV7AJM4PO7KWCyr390bSiNtEtQM=);strokeColor=none;strokeWidth=17;spacingTop=-3;spacingBottom=-3;spacingLeft=-3;spacingRight=-3;points=[];labelBackgroundColor=none;rounded=0;html=1;whiteSpace=wrap;fontStyle=1;fontColor=#0a0a0a;" parent="RrnTrXlartnsTWybDFfY-183" vertex="1">
                    <mxGeometry x="20" y="30" width="7" height="3" as="geometry"/>
                </mxCell>
                <mxCell id="RrnTrXlartnsTWybDFfY-191" style="vsdxID=10680;fillColor=#ba141a;gradientColor=none;shape=stencil(nZBRDoQgDERP03+WHsHFe5iISyOCQdT19kIaIxq//Jtp3zTpAFaTaUYNUkwx+F6v1EYD+AUpyRkdKCYFqACrzgf9C352LfuxyWRWg1/yhT/nRE5IsZWuZtCSK8CPeI0e/hF+jV7AJM4PO7KWCyr390bSiNtEtQM=);strokeColor=none;strokeWidth=17;spacingTop=-3;spacingBottom=-3;spacingLeft=-3;spacingRight=-3;points=[];labelBackgroundColor=none;rounded=0;html=1;whiteSpace=wrap;fontStyle=1;fontColor=#0a0a0a;" parent="RrnTrXlartnsTWybDFfY-183" vertex="1">
                    <mxGeometry x="1" y="30" width="7" height="3" as="geometry"/>
                </mxCell>
                <UserObject label="" tags="Background" id="RrnTrXlartnsTWybDFfY-192">
                    <mxCell style="vsdxID=10682;fillColor=none;gradientColor=none;strokeColor=none;spacingTop=-3;spacingBottom=-3;spacingLeft=-3;spacingRight=-3;points=[];labelBackgroundColor=none;rounded=0;html=1;whiteSpace=wrap;fontStyle=1;fontColor=#0a0a0a;" parent="1" vertex="1">
                        <mxGeometry x="1198" y="846" width="26" height="26" as="geometry"/>
                    </mxCell>
                </UserObject>
                <mxCell id="RrnTrXlartnsTWybDFfY-193" style="vsdxID=10683;fillColor=#59b4d9;gradientColor=none;shape=stencil(jZLdDoIwDIWfZrdktCLeI74HkSGLCGSAwtu7pRjo8O+uPTvt1y4VmHRl1ioBsutNc1UPnfelwKMA0HWpjO5tJDAVmBSNURfTDHVOeZs5p4tuzd11GKkulNLVgJwojyg9kfc8GDKHvnsW4jg47EgaYSNN4JWNyChyQm74gAUIwj0HLy1nhuTI9WDIHfjPpjKIYk5cDfFiWilGzv2x6Ffm+udC3s7/yAm2Q6HvebuoDZZbKHRV0Smt3/3bsRLdHaZP);strokeColor=none;spacingTop=-3;spacingBottom=-3;spacingLeft=-3;spacingRight=-3;points=[];labelBackgroundColor=none;rounded=0;html=1;whiteSpace=wrap;fontStyle=1;fontColor=#0a0a0a;" parent="RrnTrXlartnsTWybDFfY-192" vertex="1">
                    <mxGeometry x="13" y="3" width="9" height="9" as="geometry"/>
                </mxCell>
                <mxCell id="RrnTrXlartnsTWybDFfY-194" style="vsdxID=10684;fillColor=#59b4d9;gradientColor=none;shape=stencil(nZHNDsIgEISfZq9ku1C151rfo0mpEBEain9vL0iM1cRqepvd/WYPM8DrUbWDBMIxeHeQF90FBXwLRNoq6XWICngDvO6dl3vvTrbL89AmMqmjO6cP1+xbIytWyUV4yxt8TLsMG20nsKjYRrzBAlkpvhuoYiX9+x2XgQXOoM/jIngG/RFbFK/Ae21M7mt6/ywornK5vLkD);strokeColor=none;spacingTop=-3;spacingBottom=-3;spacingLeft=-3;spacingRight=-3;points=[];labelBackgroundColor=none;rounded=0;html=1;whiteSpace=wrap;fontStyle=1;fontColor=#0a0a0a;" parent="RrnTrXlartnsTWybDFfY-192" vertex="1">
                    <mxGeometry x="9" y="14" width="16" height="11" as="geometry"/>
                </mxCell>
                <mxCell id="RrnTrXlartnsTWybDFfY-195" style="vsdxID=10685;fillColor=#FFFFFF;gradientColor=none;fillOpacity=20;strokeOpacity=20;shape=stencil(fVJdD4IwDPw1e226Vhg8K/4PoyCLCGTi178X0hGpMbz1rtfdbZ3h7a0+9KUhvA2hu5RPfxpqwztD5Nu6DH4YK8OF4W3VhfIcunt7EtwfJuVUXbvHdMJL5nCaIHwLSgTuRXm8B5FarY3QOSAn1IuE4hSsjapI5TlsOKo4DuaQRuodKYvKufHtIuPcnFNacGsxc4aEdFTUMTMHuNExUUfMEJJUR1x9muXF/3ui9iMCm2pP1H56F2PxXWHlm0Z+wLL/u/KRku/CxQc=);strokeColor=none;spacingTop=-3;spacingBottom=-3;spacingLeft=-3;spacingRight=-3;points=[];labelBackgroundColor=none;rounded=0;html=1;whiteSpace=wrap;fontStyle=1;fontColor=#0a0a0a;" parent="RrnTrXlartnsTWybDFfY-192" vertex="1">
                    <mxGeometry x="13" y="3" width="5" height="9" as="geometry"/>
                </mxCell>
                <mxCell id="RrnTrXlartnsTWybDFfY-196" style="vsdxID=10686;fillColor=#FFFFFF;gradientColor=none;fillOpacity=20;strokeOpacity=20;shape=stencil(nZHdCsIwDIWfJrclbXDufs73GKyzxdqOrk59e1vDcAj+4N1JzpdAToCayXSjBoVTiuGoL7ZPBmgHSllvdLQpK6AWqBlC1IcYzr7neuwKWdQpzGXDleeqjUAqUwpv3MFHtWfYWb+C8T9Q4ge0rsRW/o4v5gKTFFi/x7+cl8UzmME6x7mu/dcgc4ufQO0d);strokeColor=none;spacingTop=-3;spacingBottom=-3;spacingLeft=-3;spacingRight=-3;points=[];labelBackgroundColor=none;rounded=0;html=1;whiteSpace=wrap;fontStyle=1;fontColor=#0a0a0a;" parent="RrnTrXlartnsTWybDFfY-192" vertex="1">
                    <mxGeometry x="9" y="14" width="7" height="11" as="geometry"/>
                </mxCell>
                <mxCell id="RrnTrXlartnsTWybDFfY-197" style="vsdxID=10687;fillColor=#a0a1a2;gradientColor=none;shape=stencil(nZLRDoMgDEW/pq8EaDTu2bn/MBEHGQODzG1/PxhZpi5q3NttOW1KewHLXtadAE577+xF3FXjJeAROFdGCqd8UIAVYNlaJ87O3kyT4q6OZFRXO8QOj1THi1jC6TOFOSPs8M6cEq2VGdEZJ9mEZ5Qu07iLphM029N3hf2ZeIWd7QILQvNl+vOZP/GNTW/dJYjvSVuldXLE+H1ugZBK9sHqBQ==);strokeColor=none;spacingTop=-3;spacingBottom=-3;spacingLeft=-3;spacingRight=-3;points=[];labelBackgroundColor=none;rounded=0;html=1;whiteSpace=wrap;fontStyle=1;fontColor=#0a0a0a;" parent="RrnTrXlartnsTWybDFfY-192" vertex="1">
                    <mxGeometry y="5" width="10" height="6" as="geometry"/>
                </mxCell>
                <mxCell id="RrnTrXlartnsTWybDFfY-198" style="vsdxID=10688;fillColor=#a0a1a2;gradientColor=none;shape=stencil(UzV2Ls5ILEhVNTIoLinKz04tz0wpyVA1dlE1MsrMy0gtyiwBslSNXVWNndPyi1LTi/JL81Ig/IJEkEoQKze/DGRCBUSfoYEBSI+RQSWED+G5QZTmZObhUQrjY1VMtlISHICiFMhA+DEtMycHEkTI8uhhAhSChKexKwA=);strokeColor=none;spacingTop=-3;spacingBottom=-3;spacingLeft=-3;spacingRight=-3;points=[];labelBackgroundColor=none;rounded=0;html=1;whiteSpace=wrap;fontStyle=1;fontColor=#0a0a0a;" parent="RrnTrXlartnsTWybDFfY-192" vertex="1">
                    <mxGeometry x="8" width="1" height="9" as="geometry"/>
                </mxCell>
                <UserObject label="&lt;div style=&quot;font-size: 1px&quot;&gt;&lt;font style=&quot;font-size: 14.11px; font-family: &amp;quot;Segoe UI Semibold&amp;quot;; direction: ltr; letter-spacing: 0px; line-height: 120%; opacity: 1;&quot;&gt;Virtual&lt;/font&gt;&lt;font style=&quot;font-size: 14.11px; font-family: &amp;quot;Segoe UI Semibold&amp;quot;; direction: ltr; letter-spacing: 0px; line-height: 120%; opacity: 1;&quot;&gt;&lt;br&gt;Network &lt;br&gt;peering&lt;br&gt;&lt;/font&gt;&lt;/div&gt;" tags="Background" id="RrnTrXlartnsTWybDFfY-233">
                    <mxCell style="verticalAlign=middle;align=center;overflow=width;vsdxID=11000;fillColor=none;gradientColor=none;shape=stencil(nZBLDoAgDERP0z3SIyjew0SURgSD+Lu9kMZoXLhwN9O+tukAlrNpJg1SzDH4QW/URgNYgZTkjA4UkwJUgGXng+6DX1zLfmoymdXo17xh5zmRJ6Q42BWCfc2oJfdAr+Yv+AP9Cb7OJ3H/2JG1HNGz/84klThPVCc=);strokeColor=none;points=[];labelBackgroundColor=none;rounded=0;html=1;whiteSpace=wrap;fontStyle=1;fontColor=#0a0a0a;" parent="1" vertex="1">
                        <mxGeometry x="723" y="987" width="100" height="48" as="geometry"/>
                    </mxCell>
                </UserObject>
                <UserObject label="" tags="Background" id="RrnTrXlartnsTWybDFfY-234">
                    <mxCell style="vsdxID=10726;edgeStyle=none;startArrow=classic;endArrow=classic;startSize=5;endSize=5;strokeColor=#00b050;spacingTop=0;spacingBottom=0;spacingLeft=0;spacingRight=0;verticalAlign=middle;html=1;labelBackgroundColor=#f2f2f2;rounded=0;exitX=0.5;exitY=0;exitDx=0;exitDy=0;exitPerimeter=0;entryX=0.5;entryY=1;entryDx=0;entryDy=0;entryPerimeter=0;fontStyle=1;fontColor=#0a0a0a;" parent="1" source="RrnTrXlartnsTWybDFfY-2" target="RrnTrXlartnsTWybDFfY-171" edge="1">
                        <mxGeometry relative="1" as="geometry">
                            <Array as="points"/>
                        </mxGeometry>
                    </mxCell>
                </UserObject>
                <mxCell id="RrnTrXlartnsTWybDFfY-235" style="fontStyle=1;fontColor=#0a0a0a;" parent="1" vertex="1">
                    <mxGeometry x="1171" y="939" as="geometry"/>
                </mxCell>
                <UserObject label="" tags="Background" id="RrnTrXlartnsTWybDFfY-236">
                    <mxCell style="vsdxID=10725;edgeStyle=none;startArrow=classic;endArrow=classic;startSize=5;endSize=5;strokeColor=#00b050;spacingTop=0;spacingBottom=0;spacingLeft=0;spacingRight=0;verticalAlign=middle;html=1;labelBackgroundColor=#f2f2f2;rounded=0;entryX=0.5;entryY=1;entryDx=0;entryDy=0;entryPerimeter=0;fontStyle=1;fontColor=#0a0a0a;" parent="1" source="RrnTrXlartnsTWybDFfY-235" target="RrnTrXlartnsTWybDFfY-171" edge="1">
                        <mxGeometry relative="1" as="geometry">
                            <Array as="points"/>
                        </mxGeometry>
                    </mxCell>
                </UserObject>
                <mxCell id="RrnTrXlartnsTWybDFfY-237" style="fontStyle=1;fontColor=#0a0a0a;" parent="1" vertex="1">
                    <mxGeometry x="621" y="518" as="geometry"/>
                </mxCell>
                <mxCell id="RrnTrXlartnsTWybDFfY-239" style="fontStyle=1;fontColor=#0a0a0a;" parent="1" vertex="1">
                    <mxGeometry x="971" y="639" as="geometry"/>
                </mxCell>
                <UserObject label="&lt;div style=&quot;font-size: 1px&quot;&gt;&lt;font style=&quot;font-size: 14.11px; font-family: &amp;quot;Segoe UI Semibold&amp;quot;; direction: ltr; letter-spacing: 0px; line-height: 120%; opacity: 1;&quot;&gt;&lt;i&gt;HTTPS 443&lt;br&gt;&lt;/i&gt;&lt;/font&gt;&lt;/div&gt;" tags="symbols" id="RrnTrXlartnsTWybDFfY-240">
                    <mxCell style="vsdxID=10449;edgeStyle=none;startArrow=none;endArrow=classic;startSize=5;endSize=5;strokeColor=#ff0000;spacingTop=0;spacingBottom=0;spacingLeft=0;spacingRight=0;verticalAlign=middle;html=1;labelBackgroundColor=#FFFFFF;rounded=0;align=center;exitX=0.5;exitY=1.375;exitDx=0;exitDy=0;exitPerimeter=0;fontStyle=1;fontColor=#0a0a0a;" parent="1" source="RrnTrXlartnsTWybDFfY-83" target="RrnTrXlartnsTWybDFfY-239" edge="1">
                        <mxGeometry relative="1" as="geometry">
                            <mxPoint x="9" y="-1" as="offset"/>
                            <Array as="points">
                                <mxPoint x="971" y="579.07"/>
                                <mxPoint x="971.2" y="579.07"/>
                            </Array>
                        </mxGeometry>
                    </mxCell>
                </UserObject>
                <mxCell id="RrnTrXlartnsTWybDFfY-241" style="fontStyle=1;fontColor=#0a0a0a;" parent="1" vertex="1">
                    <mxGeometry x="1071" y="659" as="geometry"/>
                </mxCell>
                <UserObject label="" tags="Background" id="RrnTrXlartnsTWybDFfY-242">
                    <mxCell style="vsdxID=10487;edgeStyle=none;startArrow=classic;endArrow=classic;startSize=5;endSize=5;strokeColor=#ffc000;spacingTop=0;spacingBottom=0;spacingLeft=0;spacingRight=0;verticalAlign=middle;html=1;labelBackgroundColor=#FFFFFF;rounded=0;exitX=0;exitY=0.5;exitDx=0;exitDy=0;exitPerimeter=0;fontStyle=1;fontColor=#0a0a0a;" parent="1" source="RrnTrXlartnsTWybDFfY-102" target="RrnTrXlartnsTWybDFfY-241" edge="1">
                        <mxGeometry relative="1" as="geometry">
                            <Array as="points"/>
                        </mxGeometry>
                    </mxCell>
                </UserObject>
                <mxCell id="RrnTrXlartnsTWybDFfY-243" style="fontStyle=1;fontColor=#0a0a0a;" parent="1" vertex="1">
                    <mxGeometry x="1071" y="919" as="geometry"/>
                </mxCell>
                <UserObject label="" tags="Background" id="RrnTrXlartnsTWybDFfY-244">
                    <mxCell style="vsdxID=10495;edgeStyle=none;startArrow=classic;endArrow=classic;startSize=5;endSize=5;strokeColor=#ffc000;spacingTop=0;spacingBottom=0;spacingLeft=0;spacingRight=0;verticalAlign=middle;html=1;labelBackgroundColor=#FFFFFF;rounded=0;exitX=0;exitY=0.5;exitDx=0;exitDy=0;exitPerimeter=0;fontStyle=1;fontColor=#0a0a0a;entryX=1.008;entryY=0.803;entryDx=0;entryDy=0;entryPerimeter=0;" parent="1" edge="1" target="RrnTrXlartnsTWybDFfY-1">
                        <mxGeometry relative="1" as="geometry">
                            <Array as="points"/>
                            <mxPoint x="1170.9999999999995" y="906" as="sourcePoint"/>
                            <mxPoint x="1067" y="906" as="targetPoint"/>
                        </mxGeometry>
                    </mxCell>
                </UserObject>
                <UserObject label="&lt;div style=&quot;font-size: 1px&quot;&gt;&lt;/div&gt;" tags="symbols" id="RrnTrXlartnsTWybDFfY-245">
                    <mxCell style="vsdxID=10681;edgeStyle=none;startArrow=classic;endArrow=classic;startSize=5;endSize=5;strokeColor=#ff0000;spacingTop=0;spacingBottom=0;spacingLeft=0;spacingRight=0;verticalAlign=middle;html=1;labelBackgroundColor=#FFFFFF;rounded=0;align=center;exitX=0.4742268041237113;exitY=1;exitDx=0;exitDy=0;exitPerimeter=0;entryX=0.5;entryY=0;entryDx=0;entryDy=0;entryPerimeter=0;fontStyle=1;fontColor=#0a0a0a;" parent="1" source="RrnTrXlartnsTWybDFfY-92" target="RrnTrXlartnsTWybDFfY-172" edge="1">
                        <mxGeometry relative="1" as="geometry">
                            <mxPoint x="10" as="offset"/>
                            <Array as="points"/>
                        </mxGeometry>
                    </mxCell>
                </UserObject>
                <mxCell id="RrnTrXlartnsTWybDFfY-246" style="fontStyle=1;fontColor=#0a0a0a;" parent="1" vertex="1">
                    <mxGeometry x="851" y="1039" as="geometry"/>
                </mxCell>
                <UserObject label="" tags="Background" id="RrnTrXlartnsTWybDFfY-247">
                    <mxCell style="vsdxID=10723;edgeStyle=none;startArrow=classic;endArrow=classic;startSize=5;endSize=5;strokeColor=#00b050;spacingTop=0;spacingBottom=0;spacingLeft=0;spacingRight=0;verticalAlign=middle;html=1;labelBackgroundColor=#f2f2f2;rounded=0;entryX=0.5;entryY=1;entryDx=0;entryDy=0;entryPerimeter=0;fontStyle=1;fontColor=#0a0a0a;" parent="1" source="RrnTrXlartnsTWybDFfY-246" target="RrnTrXlartnsTWybDFfY-171" edge="1">
                        <mxGeometry relative="1" as="geometry">
                            <Array as="points"/>
                        </mxGeometry>
                    </mxCell>
                </UserObject>
                <mxCell id="RrnTrXlartnsTWybDFfY-248" style="fontStyle=1;fontColor=#0a0a0a;" parent="1" vertex="1">
                    <mxGeometry x="1171" y="699" as="geometry"/>
                </mxCell>
                <UserObject label="" tags="Background" id="RrnTrXlartnsTWybDFfY-249">
                    <mxCell style="vsdxID=10724;edgeStyle=none;startArrow=classic;endArrow=classic;startSize=5;endSize=5;strokeColor=#00b050;spacingTop=0;spacingBottom=0;spacingLeft=0;spacingRight=0;verticalAlign=middle;html=1;labelBackgroundColor=#f2f2f2;rounded=0;entryX=0.5;entryY=1;entryDx=0;entryDy=0;entryPerimeter=0;fontStyle=1;fontColor=#0a0a0a;" parent="1" source="RrnTrXlartnsTWybDFfY-248" target="RrnTrXlartnsTWybDFfY-171" edge="1">
                        <mxGeometry relative="1" as="geometry">
                            <Array as="points"/>
                        </mxGeometry>
                    </mxCell>
                </UserObject>
                <UserObject label="" tags="Background" id="RrnTrXlartnsTWybDFfY-250">
                    <mxCell style="vsdxID=10039;edgeStyle=none;startArrow=classic;endArrow=classic;startSize=5;endSize=5;strokeColor=#ffc000;spacingTop=0;spacingBottom=0;spacingLeft=0;spacingRight=0;verticalAlign=middle;html=1;labelBackgroundColor=#FFFFFF;rounded=0;fontStyle=1;fontColor=#0a0a0a;" parent="1" edge="1">
                        <mxGeometry relative="1" as="geometry">
                            <Array as="points"/>
                            <mxPoint x="811" y="1039" as="sourcePoint"/>
                            <mxPoint x="811" y="979" as="targetPoint"/>
                        </mxGeometry>
                    </mxCell>
                </UserObject>
                <UserObject label="" tags="Background" id="RrnTrXlartnsTWybDFfY-251">
                    <mxCell style="vsdxID=10347;edgeStyle=none;startArrow=block;endArrow=block;startSize=3;endSize=3;strokeWidth=8;strokeColor=#44546a;spacingTop=0;spacingBottom=0;spacingLeft=0;spacingRight=0;verticalAlign=middle;html=1;labelBackgroundColor=#f2f2f2;rounded=0;fontStyle=1;fontColor=#0a0a0a;" parent="1" edge="1">
                        <mxGeometry relative="1" as="geometry">
                            <mxPoint x="-1" as="offset"/>
                            <Array as="points"/>
                            <mxPoint x="306" y="908" as="sourcePoint"/>
                            <mxPoint x="408" y="908" as="targetPoint"/>
                        </mxGeometry>
                    </mxCell>
                </UserObject>
                <UserObject label="" tags="Background" id="RrnTrXlartnsTWybDFfY-252">
                    <mxCell style="vsdxID=10624;edgeStyle=none;startArrow=block;endArrow=block;startSize=3;endSize=3;strokeWidth=8;strokeColor=#44546a;spacingTop=0;spacingBottom=0;spacingLeft=0;spacingRight=0;verticalAlign=middle;html=1;labelBackgroundColor=#f2f2f2;rounded=0;fontStyle=1;fontColor=#0a0a0a;" parent="1" edge="1">
                        <mxGeometry relative="1" as="geometry">
                            <Array as="points"/>
                            <mxPoint x="161" y="908" as="sourcePoint"/>
                            <mxPoint x="251" y="908" as="targetPoint"/>
                        </mxGeometry>
                    </mxCell>
                </UserObject>
                <UserObject label="" tags="Background" id="RrnTrXlartnsTWybDFfY-253">
                    <mxCell style="vsdxID=10647;edgeStyle=none;startArrow=block;endArrow=block;startSize=3;endSize=3;strokeWidth=8;strokeColor=#44546a;spacingTop=0;spacingBottom=0;spacingLeft=0;spacingRight=0;verticalAlign=middle;html=1;labelBackgroundColor=#f2f2f2;rounded=0;fontStyle=1;fontColor=#0a0a0a;" parent="1" edge="1">
                        <mxGeometry relative="1" as="geometry">
                            <Array as="points"/>
                            <mxPoint x="458" y="908" as="sourcePoint"/>
                            <mxPoint x="548" y="908" as="targetPoint"/>
                        </mxGeometry>
                    </mxCell>
                </UserObject>
                <mxCell id="RrnTrXlartnsTWybDFfY-256" value="" style="sketch=0;pointerEvents=1;shadow=0;dashed=0;html=1;strokeColor=none;fillColor=#195c85;labelPosition=center;verticalLabelPosition=bottom;verticalAlign=top;align=center;outlineConnect=0;shape=mxgraph.veeam2.datacenter;fontStyle=1;fontColor=#0a0a0a;" parent="1" vertex="1">
                    <mxGeometry x="12" y="853.5" width="98" height="91" as="geometry"/>
                </mxCell>
                <mxCell id="RrnTrXlartnsTWybDFfY-259" value="" style="image;aspect=fixed;html=1;points=[];align=center;fontSize=12;image=img/lib/azure2/compute/Virtual_Machine.svg;" parent="1" vertex="1">
                    <mxGeometry x="1250" y="613" width="53.91" height="50" as="geometry"/>
                </mxCell>
                <mxCell id="RrnTrXlartnsTWybDFfY-260" value="" style="image;aspect=fixed;html=1;points=[];align=center;fontSize=12;image=img/lib/azure2/compute/Virtual_Machine.svg;" parent="1" vertex="1">
                    <mxGeometry x="1235" y="867" width="53.91" height="50" as="geometry"/>
                </mxCell>
                <mxCell id="RrnTrXlartnsTWybDFfY-261" value="" style="image;aspect=fixed;html=1;points=[];align=center;fontSize=12;image=img/lib/azure2/compute/Virtual_Machine.svg;" parent="1" vertex="1">
                    <mxGeometry x="1258" y="887" width="53.91" height="50" as="geometry"/>
                </mxCell>
                <UserObject label="&lt;div style=&quot;font-size: 1px&quot;&gt;&lt;p style=&quot;text-align:center;margin-left:0;margin-right:0;margin-top:0px;margin-bottom:0px;text-indent:0;vertical-align:middle;direction:ltr;&quot;&gt;&lt;font style=&quot;font-size: 12.7px; font-family: &amp;quot;Segoe UI Semibold&amp;quot;; direction: ltr; letter-spacing: 0px; line-height: 120%; opacity: 1;&quot;&gt;&lt;b&gt;[[CustomerCode_Lower]]&lt;/b&gt;&lt;/font&gt;&lt;/p&gt;&lt;p style=&quot;text-align:center;margin-left:0;margin-right:0;margin-top:0px;margin-bottom:0px;text-indent:0;vertical-align:middle;direction:ltr;&quot;&gt;&lt;font style=&quot;font-size: 12.7px; font-family: &amp;quot;Segoe UI Semibold&amp;quot;; direction: ltr; letter-spacing: 0px; line-height: 120%; opacity: 1;&quot;&gt;&lt;b&gt;&amp;nbsp;Datacenter&lt;br&gt;&lt;/b&gt;&lt;/font&gt;&lt;/p&gt;&lt;/div&gt;" tags="Background" id="e_7yFJaq4C-F8rhnlh39-1">
                    <mxCell style="verticalAlign=middle;align=center;overflow=width;vsdxID=10807;fillColor=none;gradientColor=none;shape=stencil(nZBLDoAgDERP0z3SIyjew0SURgSD+Lu9kMZoXLhwN9O+tukAlrNpJg1SzDH4QW/URgNYgZTkjA4UkwJUgGXng+6DX1zLfmoymdXo17xh5zmRJ6Q42BWCfc2oJfdAr+Yv+AP9Cb7OJ3H/2JG1HNGz/84klThPVCc=);points=[];labelBackgroundColor=none;rounded=0;html=1;whiteSpace=wrap;fontColor=#0a0a0a;strokeWidth=2;strokeColor=none;" parent="1" vertex="1">
                        <mxGeometry x="-9" y="951" width="148" height="36" as="geometry"/>
                    </mxCell>
                </UserObject>
            </root>
        </mxGraphModel>
    </diagram>
</mxfile>
